<svg xmlns="http://www.w3.org/2000/svg" viewBox="0 0 800 800"><defs><style>.cls-1{fill:#fff;}</style></defs><g id="Layer_2" data-name="Layer 2"><circle cx="400" cy="400" r="400"/><path d="M770.61,46.92" transform="translate(-0.81)"/><path d="M222,258.6" transform="translate(-0.81)"/><path d="M498.81,259.32" transform="translate(-0.81)"/><path d="M562.53,507.72" transform="translate(-0.81)"/></g><g id="Layer_1" data-name="Layer 1"><path class="cls-1" d="M464.06,202.8c1.73-.94-.84-3.2-1-3.86C460.93,201.49,464.64,203.44,464.06,202.8Z" transform="translate(-0.81)"/><polygon class="cls-1" points="442.2 228.25 441.82 226.81 440.09 232.35 442.2 228.25"/><path class="cls-1" d="M419.14,246.47c5.73,2.78,8.05-7.37,13.54-9l1.49.5-.88-5.12C428.57,237.37,423.74,244.93,419.14,246.47Z" transform="translate(-0.81)"/><path class="cls-1" d="M398.91,246.54c2.14,1.14-1.57,3.63,3.38-1.76a5.54,5.54,0,0,1-.88,0A21.1,21.1,0,0,1,398.91,246.54Z" transform="translate(-0.81)"/><path class="cls-1" d="M401.41,244.75c2.4-2.07-2.79-.19,0,0Z" transform="translate(-0.81)"/><path class="cls-1" d="M390.64,254.76l2.07-4.13c-1.49-.5-4.61,1.56-4.11,0C385.89,254.08,387.39,254.56,390.64,254.76Z" transform="translate(-0.81)"/><path class="cls-1" d="M390.09,260.48l1.19-2C390.64,258.29,390.07,258.49,390.09,260.48Z" transform="translate(-0.81)"/><path class="cls-1" d="M393.8,254.27l-2.52,4.22c1,.35,2.23,1.77,1.26-1.8C393.29,258.25,393,256.41,393.8,254.27Z" transform="translate(-0.81)"/><path class="cls-1" d="M396.38,253.35c2.61-.46,5.48-1.7,3.39,2.43C405.58,250.26,402.19,247.81,396.38,253.35Z" transform="translate(-0.81)"/><path class="cls-1" d="M421.54,252.08l3.49-.58,1-3.17C425.51,249.9,420.3,250.78,421.54,252.08Z" transform="translate(-0.81)"/><path class="cls-1" d="M368.36,268.53c.56,1.12,3.12,1.67,4.33,2.7l1.55-3C372.48,268.54,369.65,269.81,368.36,268.53Z" transform="translate(-0.81)"/><path class="cls-1" d="M372.69,271.23l-2.33,4.49C373.74,273.36,373.72,272.11,372.69,271.23Z" transform="translate(-0.81)"/><polygon class="cls-1" points="392.61 265.93 395.87 257.82 391.5 266.88 392.61 265.93"/><polygon class="cls-1" points="353.64 279.4 353.94 275.56 352.94 281.81 353.64 279.4"/><path class="cls-1" d="M345.6,287.13c.06-3-4.55-1.38-3.85-3.79-2.22,2.33-3.09,5.6-3.87,8.55C339.28,289.47,341.61,287.91,345.6,287.13Z" transform="translate(-0.81)"/><path class="cls-1" d="M336.34,296.53a23.33,23.33,0,0,0,1.54-4.64A12.32,12.32,0,0,0,336.34,296.53Z" transform="translate(-0.81)"/><path class="cls-1" d="M363.84,280.14a5.64,5.64,0,0,0-5-.45l3.55,1.54Z" transform="translate(-0.81)"/><path class="cls-1" d="M362.5,281.28l-.12,0c-1.59,1.17-2.7,2-3.18,2.3C359.61,283.24,360.61,282.57,362.5,281.28Z" transform="translate(-0.81)"/><path class="cls-1" d="M364.2,279.87l-.36.27C364.19,280.3,364.34,280.32,364.2,279.87Z" transform="translate(-0.81)"/><path class="cls-1" d="M382,271c-.94,3.18-4.1,8.28,2,7.19C384.08,275.11,380.6,275.74,382,271Z" transform="translate(-0.81)"/><path class="cls-1" d="M368.63,281.81l4.32-2.43c-.64-.65-2.15-1.14-1.69-2.71Z" transform="translate(-0.81)"/><polygon class="cls-1" points="366.62 284.15 367.82 281.81 366.22 282.71 366.62 284.15"/><path class="cls-1" d="M344.91,293.69c-.72,2.49-2.45,4.05-4.33,5.9a37.24,37.24,0,0,0,7.24-4.55C347.44,294,347.18,291.7,344.91,293.69Z" transform="translate(-0.81)"/><path class="cls-1" d="M353.64,287.87c-.06.15-.19.3-.24.45C353.81,288.36,354,288.29,353.64,287.87Z" transform="translate(-0.81)"/><path class="cls-1" d="M320.6,316.09c.23.05.48.16.72.21-.1-.17-.21-.33-.31-.51Z" transform="translate(-0.81)"/><path class="cls-1" d="M348.58,295.24c2.06-.81,2.52-2.26,2.8-3.83a26.39,26.39,0,0,1-3.56,3.63C348,295.53,348.16,295.8,348.58,295.24Z" transform="translate(-0.81)"/><path class="cls-1" d="M331.75,302.35a24.6,24.6,0,0,0,4-.87C334.27,301.33,331.49,301.41,331.75,302.35Z" transform="translate(-0.81)"/><path class="cls-1" d="M352.25,288a2.2,2.2,0,0,1,.15-.31C351.4,287.57,351.69,287.8,352.25,288Z" transform="translate(-0.81)"/><path class="cls-1" d="M352.25,288a11.6,11.6,0,0,0-.87,3.39,15.86,15.86,0,0,0,2-3.09A4,4,0,0,1,352.25,288Z" transform="translate(-0.81)"/><path class="cls-1" d="M328.81,337.89c-1.79-2.66.54-8.47,6.38-8.92,2.06-4.83-6.95-10.87-13.87-12.67.78,1.15,1.59,2.13-.92,6.69,2.42.22,10.86-3.83,9.56,1-3.86,5.37-4.75,2.51-8.21,3.26,4.56,1.29-2.49,9.68,2.36,13.17l2.93-5.18C327.7,335.86,327.09,338.27,328.81,337.89Z" transform="translate(-0.81)"/><path class="cls-1" d="M328.66,310.59,330,309c-2.11,1-4.19,1.09-8.09,1.13-1.57,3.35-1.35,4.69-.85,5.65l7.87-6Z" transform="translate(-0.81)"/><path class="cls-1" d="M336.88,303.28c1,3.65-1.79,7.84,2.85,8.85,4.37-3.9,1.34-4.83,3.11-8.2-6.79,6.65.89-3.21-5.65-.39a23.13,23.13,0,0,1,3.39-4,34.24,34.24,0,0,1-4.79,1.89,1.45,1.45,0,0,1,.3,0l0,0,0,0c.59.08.86.2.35.3,0,.05-.08.13-.11.18a4.51,4.51,0,0,1,.49,1.27c-2.57,1.19-.9-.41-.49-1.27a3.07,3.07,0,0,0-.24-.48h-.05L330,309C331.81,308.1,333.68,306.4,336.88,303.28Z" transform="translate(-0.81)"/><path class="cls-1" d="M384.67,287.08a1.12,1.12,0,0,1-.74-.44C383.72,287.35,383.72,287.71,384.67,287.08Z" transform="translate(-0.81)"/><path class="cls-1" d="M380.34,287.85c.24-.8-.17-2.23,1.79-3.34,2.16-.39,1,1.3,1.8,2.13.48-1.55,2.15-4.85-2.19-3.56l-.23.78c-3.71,1.42-10.2,1.09-10,.31A24.27,24.27,0,0,0,380.34,287.85Z" transform="translate(-0.81)"/><path class="cls-1" d="M359,296.3l-5.06,6.25,5-.19-1.28-1.27C361.52,298.83,359.39,297.73,359,296.3Z" transform="translate(-0.81)"/><polygon class="cls-1" points="317.99 315.37 316.46 311.9 316.26 318.79 317.99 315.37"/><polygon class="cls-1" points="310.39 322.38 308.63 319.73 307.79 322.95 310.39 322.38"/><path class="cls-1" d="M255.9,443.37l.24-2.45A7.61,7.61,0,0,0,255.9,443.37Z" transform="translate(-0.81)"/><path class="cls-1" d="M248.12,458l1.2,1.08C248.91,458,248.49,457.38,248.12,458Z" transform="translate(-0.81)"/><path class="cls-1" d="M151.6,524.36c-4.07,2.3-9.69,4.74-6.19,5.47l3.64.08A8.36,8.36,0,0,1,151.6,524.36Z" transform="translate(-0.81)"/><path class="cls-1" d="M195.1,583.86l-1.41.21,1.39,3.74C195.09,586.62,195.09,585.27,195.1,583.86Z" transform="translate(-0.81)"/><path class="cls-1" d="M184.62,573.73l4.28-2.32A15.09,15.09,0,0,0,184.62,573.73Z" transform="translate(-0.81)"/><path class="cls-1" d="M293.35,360.49l-1.94-4C289.52,360.27,292,359.41,293.35,360.49Z" transform="translate(-0.81)"/><path class="cls-1" d="M235,396.88a21.39,21.39,0,0,0-6.56,4.12C232.29,399.63,236.45,399.53,235,396.88Z" transform="translate(-0.81)"/><path class="cls-1" d="M285.68,466c.09-1.55-.26-2.41-1-2.72C284.57,464.86,284.78,465.9,285.68,466Z" transform="translate(-0.81)"/><path class="cls-1" d="M222.68,407.52a17.23,17.23,0,0,0,1.65-.67,19.89,19.89,0,0,1,4.06-5.85C225.53,402,222.78,403.7,222.68,407.52Z" transform="translate(-0.81)"/><path class="cls-1" d="M361.59,210.36c.09-.26.09-.36.22-.7C361.3,210.66,361.37,210.63,361.59,210.36Z" transform="translate(-0.81)"/><path class="cls-1" d="M297.16,215.86a24.19,24.19,0,0,1,3-2.57A7.72,7.72,0,0,0,297.16,215.86Z" transform="translate(-0.81)"/><path class="cls-1" d="M279,349c1.47-1.67,0-.52,0,0Z" transform="translate(-0.81)"/><path class="cls-1" d="M296.08,351.9a2.28,2.28,0,0,0,.49,1.84A2.89,2.89,0,0,1,296.08,351.9Z" transform="translate(-0.81)"/><path class="cls-1" d="M225.27,438.18l-.13.14C226.07,438.25,225.9,438.25,225.27,438.18Z" transform="translate(-0.81)"/><path class="cls-1" d="M282.46,347.86a12.69,12.69,0,0,0-2.77,1.16A13.17,13.17,0,0,0,282.46,347.86Z" transform="translate(-0.81)"/><path class="cls-1" d="M281,347c.67-.4,1.16-.74,1.65-1.05C282.49,345.29,282.05,345.17,281,347Z" transform="translate(-0.81)"/><path class="cls-1" d="M276.82,351.19a13.56,13.56,0,0,1,2.87-2.17c-.48.12-.74.1-.74-.06C278.51,349.44,277.89,350.11,276.82,351.19Z" transform="translate(-0.81)"/><path class="cls-1" d="M372.56,234.27c.16-.08.28-.18.49-.27-.47-.66-.74-.81-.8-.72S372.31,233.75,372.56,234.27Z" transform="translate(-0.81)"/><path class="cls-1" d="M172.6,587.75c0-.09-.11-.16-.13-.24l-.17.27Z" transform="translate(-0.81)"/><path class="cls-1" d="M174.36,595.14c-4-3.43-3.32-5.19-2.06-7.36q-5.13.54-10.26,1.19Q168.19,592.21,174.36,595.14Z" transform="translate(-0.81)"/><path class="cls-1" d="M272.89,407.47l-5.22,3.45c-1.66-8.13,2-11.61-4.16-9,9.38,5.57-8.45,19.32.92,24.88L260.78,429c.55-.86.06-1.29.61-2.15-7.78,3.83,4.67,8.13-.76,15.42-2.16,2.4-4.55,3.62-4.73,1.14l-.78,7.4c-1.12,1.69-2.57.39-1.45-1.29l-4.11,9.77-.24-.22a44.36,44.36,0,0,1,1.79,8.39c-2.63,1.66-.4-1.74-1.91-1.75-.12,2.14-.26,4.28-.41,6.4-3.62.78-3.72-4.75-1.52-8.15-12.11-.21.15,5.56-11,13l1.38-5.49c-7.11.21-7.15,5-13.45,8.66,2.45-.31,14.37-6.35,13.77.51-1.57,1.18-3,3.09-2.72,7.11-3.41-1.82-4.18,1.54-6,5.29l-4.35-2.73c-.88,4.63,1.57,5.59,2.3,9-2.87,4.15-6.83,3.1-10.32,2.46-4.69,6.5,8.28-1.64,4.39,7a17.44,17.44,0,0,0-4.82,7.79,94.08,94.08,0,0,0-2.15,10.51c-3.94,3.08-2.27-2.3-4.39-1.63l1.36,5.64c-.61.81-1.51-.12-2-.59-.44,3.8,4.24,2.89,2.57,8.32,2,2.1-1.18,3.47-4.7,5.37s-7.33,4.36-6.46,8.94c-2.12.62-2.21-2.37-4.15-3-.72,5-1.16,7.13-1.32,9.15a60.41,60.41,0,0,0,.06,8.66l-6.43,3.51c5.85-1.8,6.19,5.8,6.2,12.45a48.31,48.31,0,0,0,5.85-1.05c-.87,2.93-1.74,5.87-2.73,8.74-1.31.38-2.23-1.36-3.14-3.74,0,.72,0,1.42.07,2-3.37,1.43-4.82-1.6-5.87-5,1.44-.27,2.94-.49,4.41-.7-1.35-3.56-3.07-7.15-5.79-8.49a5.94,5.94,0,0,1-.43,3.11c-.38-.94-.8-1.66-1.37-1.74s-.15,1.33.09,3.2l-5.8-1.71,1.58,1.68L172.58,587c0,2.45.16,5,.32,7.54s.22,5.13.14,7.8a37.46,37.46,0,0,1-4.11,16.73c-1.3-5.12-4.92-4.8-8.67-8,6.23.53,4.24-9.12,9.06-13.61-2.52,2.36-3.94.32-4.06-.85l-3.35,12.12c-1.51-1.36-2.48-1.34-3.47-.82a14,14,0,0,0-1.57,1.06,11.44,11.44,0,0,1-2.07,1.12c7.7,3.26-1.41,10-2.58,15.27-2.24-1.52-3.61-4.17.58-8.18-7.34.85-.9,9.1-3.55,12.61l15.7,4.84a3.75,3.75,0,0,1,.81-2.65c.18,1.28-.11,2,1,2.44l-18.94-5.85a2.29,2.29,0,0,0-.1-.23s0,.08,0,.13L167,634.39c-1.29-1.47-1.64-4.19-1.37-6.31s1.31-3.63,2.49-2.8l.13,1.34a76.56,76.56,0,0,0-.09-8.06c-.06-3-.44-6.16-.78-9.12a42.38,42.38,0,0,0-.8-4.23,25.23,25.23,0,0,0-1.12-3.61c-.89-2.14-2.13-3.67-3.8-4.15a62.77,62.77,0,0,1,9.44,2.44,221.46,221.46,0,0,1-20.94-19.13c2.78,1.18,7.82.81,12.42,1.26s8.79,1.62,9.94,5.49c1.11-2,2.37-4.41,1.14-9.17-1.06,1.26-9,2.24-9.14.13,3.69-2.25,4.69-3,5.63-4a43.92,43.92,0,0,1,5.24-4.84c-.83.93-3.36.34-5.56-.93a9.79,9.79,0,0,1-2.79-2.32,2.9,2.9,0,0,1-.68-2.66c1.2.85,8.87,1.78,9.5,3.23-2.23-3.45-4.54-7-6.6-10.68,1,2.56,7.28,2.3,10.24,1.15-1,.2-.45-1.59.3-3.72s1.84-4.58,1.76-5.81l-3.08,2.88c2.06-4.48-.13-7.73-2.42-11.15s-4.6-6.93-2.58-11.64c1.3,1.86,9.6,6.85,12.47,2.66A103.47,103.47,0,0,1,176.38,519a47.6,47.6,0,0,1-4.58-8.42,18.37,18.37,0,0,1-1.52-8.2l3.14-.48c.15-2.59.37-5.17.56-7.78,2.07,3.61,4.9,9.8,7.79,16,1.35,3,2.75,6.11,4.06,9s2.25,5.35,3,7.36c3.34-2.56,3.26.28,5.22-4.79,3-.73,2.23,4.21,1.73,5.7L199,522l3.4-5.29c-5.17-1.84-.49-11-4.66-12.69-.26,2.51-.47,5-.69,7.49s-.32,5-.47,7.43c-2.56-.88-5.16-4.29-6.47-8.58a18.22,18.22,0,0,1-.74-6.8,14.7,14.7,0,0,1,.66-3.41,13.62,13.62,0,0,1,1.55-3.13c3-1.07,7.59,6.1,9.28,6.75-.54-1-.29-3.28.29-5.39s1.59-4,2.36-4l.58,4.78c2.14-1.7,1.61-4.36,1.5-7s.3-5.15,4.06-6.44c1.43-1.64,9.22-1.63,6.73-3.64-7-.45-23.51-9.84-26.07-14.41.39-.23,3.21-2,6.48-3.63,1.63-.84,3.35-1.66,4.91-2.3a15.86,15.86,0,0,1,4-1.15c3-.14,4.59,2.63,6.08,5.36s2.91,5.44,5.47,5.37c-1.15-.93-1.53-3.56-1.54-4.57,2.32-1.14,3.21,3.36,5.44-1-4-3.82,6.22-7.83-2.4-4.56,1.57-4.83,3.9-3.51,7.11-8.18-2-.34-3.58-3.15-4.48-6.53s-1-7.28-.08-9.74c.91,1.09,3,1.34,4,1.43,1.68-1.89,3.28-3.47,4.81-4.9s3.07-2.65,4.54-3.88,2.94-2.45,4.42-3.79a61.82,61.82,0,0,0,4.53-4.59c1.57.22,5.75-2.09,6.23.91.16-1.65-.4-3.81,1.45-6,7.23-.95-3.77,5.24,3.3,5.89-2.12-2.37,1.7-8.44,3.1-12.76-2.22-1.21-4,.36-5.43,2.81a38.48,38.48,0,0,0-3,7.91c-2.53-2.24-3.92-5.87-4.09-10.15a29.69,29.69,0,0,1,3.19-13.9c4.25-6.95,5.53.51,5.78-1.16,5.58-4.94,5.68-9.27,6-13s.63-7.08,6.81-9.67c6.52-.36,6.12,6,9.07,7.43-3.45,5.61-8.92,5-11.88,8.18l5.22-2.36c-.42,2.47-2.67,6.24-5.19,7,1.4-.06,3.24-1.14,5.36-2.84s4.52-4,7.14-6.43c5.18-4.89,11.1-10.34,16.46-12.9.5-2.41,2-5.88-.34-6l-2.24,2.88c-4.8-.28,1.73-8.13-2.73-6.21,1.89-5.11,3.39-11.62,9.81-14.77l4.23,2.81c-1.07-1-5.28.81-5.71,3.21.66-3.57,12.23-2,10.31-8.9l-5.85.64c2-5.1,3.18-13,8.81-15.85-5.26-1.84-.69,1.34-7.69-.09,3.74,1.43.73,3.93-2,6.3s-5.23,4.61-.51,5.38a9.62,9.62,0,0,0-7.72.74,14.24,14.24,0,0,1-8,2.07c1.23,1.08,3.63.9-.74,3.78a7.36,7.36,0,0,1,.13,1.81,2.37,2.37,0,0,1-.34.15c.12,0,.22,0,.34-.05,0,.33,0,.38.12,0a6.18,6.18,0,0,1,3.6.06c.6,4.44-5.44,9.92-6.15,13.19-2.74,1.53-.35-2.23-2.74-2.35l-1,4.94c-2.75-2.34-10,1.28-6.22-5.23l-4.83,4.38c-4.14,1.25-8.53,4.35-9.77,7.75-2.73,1.65-2.67,8.33-2.78,4.44-1.9,2.93-3.74,5.92-5.57,8.89l-.71-.55c-3.71,3.45-6.16,8.32-9.3,12.74a33.61,33.61,0,0,1-5.36,6.23,22.86,22.86,0,0,1-7.74,4.58c-1.55,3.22-3.05,6.57-7.49,10.35l-3.11-1.12c-2,4.06-10.85,8.45-9.46,12-4.79-.69-8.49,3.41-11.64,8.37-1.55,2.51-3,5.18-4.38,7.64a28.65,28.65,0,0,1-4.14,6.06l3.19,2.53a38.31,38.31,0,0,0-4,7.16c-1.11,2.65-2.16,5.53-3.21,8.83l3.27,1.52c-.21,3.24-2.71,6-5.56,9.14s-6.19,6.51-8.21,10.65c-.92-1.19.51-3.09,2-4.15a13.13,13.13,0,0,0-3.83,2.7,13.66,13.66,0,0,0-2.39,3.58,22.2,22.2,0,0,0-1.43,4.11c-.34,1.44-.58,2.92-.79,4.4s-.42,2.94-.66,4.37a31.07,31.07,0,0,1-.87,4.15A14.47,14.47,0,0,1,160,512.8a11,11,0,0,1-2.73,3,6.06,6.06,0,0,1-2.29,5.62,1.31,1.31,0,0,0,0-.65,6.39,6.39,0,0,0-.41,1c-1,.81-2,1.63-3,2.6a11.85,11.85,0,0,0,2.83-2.08,28.73,28.73,0,0,0-1.34,7.74l-4-.11c0,.24-.1.42-.11.67-2.27,2.25,1,2.74,4.22,2.26a13.56,13.56,0,0,0,1,4.3c-3.32.1-3.36,2.08-3.49,4.1s-.36,4.11-3.94,4.72c1.31,1.39.89,5,1,8.71s.83,7.4,4,8.86c-.89-.1-1.47.62-1.22-.87-1.37,2.89-2.81,5.84-1.44,9l-5,.45c1.77,2.68,3.52,5.29,5.35,7.86-3.51,3.64-5.48,5.25-8.64.52a54.51,54.51,0,0,1,2.09,6,31.39,31.39,0,0,1,.76,3.4,18.63,18.63,0,0,0,.8,3.09,28,28,0,0,0,2.45,5l-3.13-.64c0,1.53.93,3.59,1.56,5.44s1.05,3.53-.3,4.42c-4,4.19-3.39,16.85-2.3,30l2.54,30.74,20.91-23.5C171,638.94,176.31,633.56,182,630c-4.71-1.66-2.58-2.49-.06-3.66s5.61-2.55,3-5c2.34.57,4.79-.56,4.6,2.82,3.63-8.25,10.95-8.31,9.52-16.86,2.38.5,1.51,3.43,3.09,3.48,0-.85.08-3.39,1.68-3.35s.75,2.13.7,3.83c5-7.53,0-12.2-4.85-16.41,2.53-.94,4.05-1.93,4.74-3.31s.47-3.2-.35-5.72c2.58-.1,5.85-1,3.38,4,2-2.37,13.18-14,9-17,1.61-.1,2.64-3.43,2.58-4.43,4-5.66,4.7-5.93,7.94-11.91l-1.72,1.14c-3.77-5.5,1.81-5.49,4-10.55l.46.46c5.14-4.19,5.39-5.63,5.69-7a5,5,0,0,1,1.11-2.35,31,31,0,0,1,4.86-4.36l-3.65-1.36c-6.56-5.15,9.66-7,10.51-14.79L245,518.7c-.24-2.38,3.52-3.37,7.71-4.16s8.82-1.36,10.23-2.84c1.05-.4.35,1.75.22,3.06,9.29-6.7-3.74-3.61-1-10.89,3.07.05,5.17,4.91,8.12.6,3.15-1.25-.68-17.39,7.22-21.16-2.57.4-5.13.79-4.87-3.09,1.84-5.15,13.8-9.41,10.21-16.8a2.29,2.29,0,0,1,1.91-.12c.38-4.48,3.61-13.32,1.56-17.15,13.61,2.56,5.8-25.9,16.7-20.33l5.09-11.68,1,.85c4.35-6.92,3-10.8,1.65-14.66,1.58-1.3,2,.43,2.5.85,7.5-9.5,7.54-10.8,6.55-22.4l4,.85c-.84-3.44,13.22-12.49,14.38-24.87a2.69,2.69,0,0,1,1,1.94c1.75-13.77,24.08-22.57,13.52-33.53l.88-9.29c-6.21,9.36-4.77-4.4-9-1.45,1.3-4.28,9.16-8,7.29-2.89l-1,.41c5.72,5.27,8.84-11,13.24-8.38a301.42,301.42,0,0,1,16.79-28q4.44-6.77,8.68-13.52l1-1.69.54-.87.69-1.23q1.39-2.46,2.76-4.92c1.83-3.3,3.62-6.62,5.34-9.95q-3.81,1.08-7.46,1.83l2.27-4.13c.76-1.37,1.54-2.9,2.32-4.34,2.61-2.26,6.73-3.38,3.07,3.63a7.48,7.48,0,0,0,3.14-7.19c-.24-2.41-1.49-4-2.19-4,4.42-6.4,6-5.87,6.53-3.61s0,6,1.1,3.79l2.37-5.89-1.48,1.49c-.59-4.21-3.72-3.59.21-11.43a15.05,15.05,0,0,1,4.63-4.61c1.19-.71,2-1,2.67-2.08.57-.23,1.17-1.07,1.71-3.32l1.59-3.18,1.47-3.11,2.95-6.27q-4.46,4.47-8.75,8.52c-1.18-3.07,4.8-10.39-5.1-.84a56.44,56.44,0,0,0,9.9-13,133,133,0,0,0,7-14.88c3.89-9.7,6.28-17.63,9.27-22-3.22-.93-.78-6.72,2.91-15.59-2.5,4-12.18,15.43-8.74,8.07a119.49,119.49,0,0,0,10.19-12.41,73.76,73.76,0,0,0,5.49-9.35c1.53-3,3-6.2,5.13-10.16a175.66,175.66,0,0,1,9.35-15.15c-3,4.61-4.15,5.65-4.49,5.19s.16-2.49.46-4.21c0-.08,0-.06,0-.05l-.1,0-.19.06-.4.16a6.27,6.27,0,0,0-.89.49,13.76,13.76,0,0,0-2.35,2.08,46.83,46.83,0,0,0-3.36,4.16c-1.31,1.79-2.81,4-4.45,6.57-.06-1.07,2.25-4.22,5-7.9,1.39-1.84,2.89-3.82,4.36-5.88s2.9-4.22,4.24-6.54c-.67.53-1.28,1-1.82,1.32a3.46,3.46,0,0,1-1.38.65A95.11,95.11,0,0,1,445.9,97c-2.8,2.06-5.36,3.6-8.08,5.28s-5.63,3.51-9.06,6a131.64,131.64,0,0,0-11.8,9.85c-1.18,1.92-1.82,3.62-3.06,5.94a61.12,61.12,0,0,1-6.3,9.32,29.6,29.6,0,0,0,.31-9.46c-2.29,2.38-5.52,7.73-8.18,11.69a25.3,25.3,0,0,1-3.41,4.38c-.9.78-1.5.69-1.83-.61a13.52,13.52,0,0,1-3.53,7.38,48.92,48.92,0,0,0-5,2.73c-1.76,1.07-3.62,2.32-5.54,3.68s-3.92,2.87-5.95,4.45-4.07,3.16-6.13,4.84-4.15,3.41-6.24,5.17l-6.22,5.25c-4.13,3.52-8.22,7.07-12.27,10.43s-8.11,6.76-12,9.72c-2,1.51-4,3-6,4.45l-3.06,2.16c-.78.51-1.54,1-2.32,1.47a68.36,68.36,0,0,1-20.67,8.67c4.75-.16,2.84,1.61.52,3.48,1.94-.64,2.05,2.8,3.5,4.1l-12.83,3c1.4,5.57-10.17,8-8.19,12.8l2.54-3c-.56,7.84,13.62,6.45,17.59,13,.54-8.86,18.19-1,19.86-14.46,2.6,0,.07,3,2,3.78-.07-4.07,1.82-6.33,7-8.42v1c1.43-1.22,2.79-2.31,4.11-3.3q1-.73,1.95-1.41l.48-.33.32-.21.6-.37a26.55,26.55,0,0,1,4.61-2.15,17.28,17.28,0,0,1,2.1-.62c.67-.17,1.33-.32,2-.46,1.33-.27,2.64-.53,4-.92,0-1.61,0-3.19-.07-4.74,1.52-.56,1.59.89,2,1.78.74-2.4.94-3.49.73-3.83s-.77,0-1.33.37-1.14.67-1.44.31-.38-1.37.25-3.87c1,4.11,3.49,2.17,6.14.26s5.14-3.55,2,4.47c.83-.63,1.68-2.7,2.47-4.72s1.54-4,2.69-4.89c-.52,1.41-1.06,2.84-1.63,4.29q1.7-3.28,3.5-6.66c.55-.13.23,1.22-.57,3.19s-2,4.52-3.14,6.68c0-.3-1.36,1.8-1.79,2.37-.8,2.4.16,1.32,1.54-.4s3.08-4,2.67-3.09a14.13,14.13,0,0,0,.38-2.13,59.75,59.75,0,0,1,7.89-7.68,83.56,83.56,0,0,0,9.14-8.92c2-2.24,4.53-5.09,7.8-8.92l3.93-5.45c1.64-1.89,2.9-3.29,3.84-4.29.46-.5.85-.9,1.16-1.22.12-.12.08,0,.08,0l0,.13c0,.09-.06.19-.1.31a31.72,31.72,0,0,1-2.5,4.44c-1.14,1.83-2.42,3.81-3.31,5.43s-1.38,2.87-1.09,3.41l-.93,1c3.8-3.88,5.12-4.28,3.86-1.71-2.06,1.84-4.75,5.44-7.4,8.8a75.59,75.59,0,0,1-7.58,8.7c1.56-1,2.56-1.66,3.5-2.35a28.88,28.88,0,0,0,2.86-2.42c1.08-1,2.39-2.28,4.2-3.94s4.13-3.7,7.08-5.91l-6.73,7.5c2.48-2,4.39-3.58,5.65-4.36s1.88-.69,1.66.88c-1.72.5-4.33,3.42-7,6.23a44.14,44.14,0,0,1-8.19,7.29c-3.93,4.65-5.18,6.45-5.36,7.32s.71.72,1.41.78,1.23.28.48,1.39-2.75,3.11-7,6.41a41,41,0,0,0,6.81-4.34,15.5,15.5,0,0,0,3.27-3.69c1.39-2.23,1.46-3.62,2.58-3.84,2.76-2.69,5.19-4.14,6.42-4.06s1.34,1.56-.07,3.54c-.88,1.67-5.79,5.77-10.53,9.64-2.38,1.94-4.72,3.83-6.56,5.45s-3.19,3-3.68,4.1c.28-.48-.6-.12-.33-.59-1.9,1.5-1.24,1.78-.93,2.41s.3,1.55-2.36,3.07c2.87-.18,2.37.68,2.19,1.27s-.12,1.07,3.47,1c.34-1.81.64-3.48.84-5,.39,1.14,2.46,2,3.33,3.93s.59,4.65-3,7.68a5.28,5.28,0,0,1-1.4-1.84c-.4-.75-.79-1.45-1-2a2.26,2.26,0,0,0-1.5,2.26,2.5,2.5,0,0,1-1.62,2.39c-1.52-.5-2.17-1.17-2.34-1.93a4.58,4.58,0,0,1,.45-2.47,8.72,8.72,0,0,0,.77-2.51c.05-.79-.27-1.48-1.49-1.75-1.92.83-1,1.55-.69,2.36.15.39.18.74-.26.9a8.64,8.64,0,0,1-3.16-.12c2.28.32,3.15.88,3.32,1.45a1.23,1.23,0,0,1-.24,1,6.58,6.58,0,0,1-.85,1,6.38,6.38,0,0,0-1.63,2.23c-.27.87-.08,1.9.94,3.57-1.1-.62-2.22-1.22-3.34-1.8.07.19.19.45.32.75l.19.49a1.37,1.37,0,0,1,.12.61,6.05,6.05,0,0,1-.61,3.11l-1.35-2.75-.67-1.37-.34-.69a2.35,2.35,0,0,0-.43-.5c.2.19.2.66.19,1a5,5,0,0,1-.12,1.11,6,6,0,0,1-.78,1.91,13.2,13.2,0,0,1-2.94,3c-2.26,1.85-4.71,3.56-4.94,6.48,5.09-10.07,5.22-.14,9.88-3.11-1.92,14.75-12.5,2.54-18.14,17.22.52-2.12,5.71-6,5.74-2.22-2.07,2.27-5.21,5.08-7.83,5.76-4.14,9.55,4.2.42,4.21,5.42-5.74,1-.72,5.39-1.54,10.11l-3.43-1.77c-7.74,9.33,5.64,6.53-2,14.59l-2.62-6.5-1.38,5.58-3.35-3.07c0,6.89-1.58,8.16-5.45,12.86,3.05,0,5.84,3.95,3.5,8.68-3.7,2.12-2.32-3.49-5.3,3.39-1.36-2.62-3.18-5.66,1.47-6.9-.95-.88-1.36-2.6-2.31-3.48-4.13,2.21-5.06,8.35-6.27,10.79a6.33,6.33,0,0,1,2.14-2.19l-.25,12.11c-2.08.86-2.49-.88-2.89-2.6-.63,2.15.23,4.31-.94,7.34-2.4-2.17-5.4-3.49-4.59-8.24l-1.64,10.83c-1.52,0-5.76,3-6.17,1.31-2.13,2.14-2.38,6-2.79,10s-1,8.17-3.75,11a4.54,4.54,0,0,1,.2,3.24c-3.85,6.07-10.09,10-10,19.46l-7.17,1.78c-1.81,6.48,9.23-2.63,6.22,8.15-1.85,7.75-5.58.46-8.2,2.2.81,4.71,3,13.33-4.3,17.64C270.7,410.9,272.28,409.63,272.89,407.47Zm-34.75,73c0-1.76-.72-5.68,1.83-5.61C243,478.5,240.52,478.72,238.14,480.46Zm-56,108.77c-.35-1.69,1.2-2.76,3.57-3.56A7,7,0,0,1,182.11,589.23Zm81.43-221.32a.76.76,0,0,0,0,.26C259.92,369.61,261.25,369.14,263.54,367.91Zm6.52-4a1.06,1.06,0,0,0-.84-1.43c.3,1.06-.87,2.26-2.42,3.4C267.89,366.26,269,366.07,270.06,363.92ZM415.59,204.55,413.35,207C413.72,203.54,414.58,204.07,415.59,204.55Z" transform="translate(-0.81)"/><path class="cls-1" d="M185.81,574.94a4.57,4.57,0,0,1,2.09.64C187.72,574.71,187.1,574.27,185.81,574.94Z" transform="translate(-0.81)"/><path class="cls-1" d="M293.71,361.22a1.73,1.73,0,0,0,.15-.2,2,2,0,0,0-.51-.53Z" transform="translate(-0.81)"/><path class="cls-1" d="M220.45,470.19a5.94,5.94,0,0,1-3.23,1.17C218,472,219,471.86,220.45,470.19Z" transform="translate(-0.81)"/><path class="cls-1" d="M294.75,332.35l-2.91,3.92c1.6-1.67,2.78-1.59,4.06-1.9C295.22,333.76,293.68,333.39,294.75,332.35Z" transform="translate(-0.81)"/><path class="cls-1" d="M341.44,323.9c.22-.8,1.08-1,1.29-1.76l-1.28-1.26C339.27,322.83,338.63,325.24,341.44,323.9Z" transform="translate(-0.81)"/><path class="cls-1" d="M306.52,339.07c2.42,2.2,3.92-.57,6-3.19a2.05,2.05,0,0,1-.44.39C309.87,332.2,308.18,335.65,306.52,339.07Z" transform="translate(-0.81)"/><path class="cls-1" d="M313.05,335.3a10.2,10.2,0,0,1,2.25-2.06C314.41,331.6,314.12,333.76,313.05,335.3Z" transform="translate(-0.81)"/><path class="cls-1" d="M275.44,355.84c1.73-.47-2.1-3.71-.54-3.36C273.35,348.24,270.61,363.41,275.44,355.84Z" transform="translate(-0.81)"/><polygon class="cls-1" points="314.76 345.38 311.24 343.13 311.97 346.77 314.76 345.38"/><path class="cls-1" d="M294.27,360.44l4.64-2.71c-.51-.44-.28-1.18.13-2C296.54,357.85,293.37,359.64,294.27,360.44Z" transform="translate(-0.81)"/><path class="cls-1" d="M299,355.78c1.3-1.08,2.43-2.22,2.68-3.34A16.36,16.36,0,0,0,299,355.78Z" transform="translate(-0.81)"/><polygon class="cls-1" points="310.17 351 308.46 351.4 305.5 353.64 310.17 351"/><path class="cls-1" d="M253.39,399.48l-3.09,5c.61,1.36,2.29.79,3.35-1.13C253.88,401.67,255,399.75,253.39,399.48Z" transform="translate(-0.81)"/><path class="cls-1" d="M273.27,394.74c-1.67.5-2.38-.06-3.93-.37l3.41,3.6Z" transform="translate(-0.81)"/><path class="cls-1" d="M262.62,407.37c.61,1.37-2.69,8.67,1.95,3.26C264,409.27,267,404.38,262.62,407.37Z" transform="translate(-0.81)"/><polygon class="cls-1" points="203.52 469.73 204.26 468.49 197.35 464.16 203.52 469.73"/><path class="cls-1" d="M188.9,543.33c3.92-5.2-4.23-3.12,0-7.6-1.28-2.09-3.51,3.67-4.53,1.67.26,2.15,0,3.6.36,4.54S186.1,543.26,188.9,543.33Z" transform="translate(-0.81)"/><path class="cls-1" d="M184.4,537.4a15.34,15.34,0,0,0-.46-2.28A5.76,5.76,0,0,0,184.4,537.4Z" transform="translate(-0.81)"/><polygon class="cls-1" points="281.03 221.81 276.54 223 280.41 223.55 281.03 221.81"/><path class="cls-1" d="M278.73,231.59,274.84,228l.68,5.33C276.18,232.58,277.44,231.09,278.73,231.59Z" transform="translate(-0.81)"/><path class="cls-1" d="M223.26,485.92l.94.89c1.5.07,2.07-.76,3.23-2.41Z" transform="translate(-0.81)"/><polygon class="cls-1" points="253.03 436.2 252.48 437.05 257.52 437.5 253.03 436.2"/><path class="cls-1" d="M270.63,389.42c-1.08,1.72-1.2,4.31-2.29,6C269.55,391.14,276.11,391.54,270.63,389.42Z" transform="translate(-0.81)"/><path class="cls-1" d="M452.38,493.33c.08-.22.05-.13.06-.17C452.3,493.53,452.37,493.33,452.38,493.33Z" transform="translate(-0.81)"/><path class="cls-1" d="M449.06,491.05l1.36-.26a21.44,21.44,0,0,1-3.61-.49A18,18,0,0,0,449.06,491.05Z" transform="translate(-0.81)"/><path class="cls-1" d="M447.76,480.5c-2.83.66-2.57,1.8-1.8,2.95s2,2.26,1.16,3.35l-1.25.5c1.56.08,3.12.12,4.68.13-.55-.95-1.63-2.16-2.39-3.42S447,481.47,447.76,480.5Z" transform="translate(-0.81)"/><path class="cls-1" d="M460,473.21c-2.21.45-1.93-1.49-.66,1.63a5.43,5.43,0,0,1,.56-.3A3.77,3.77,0,0,1,460,473.21Z" transform="translate(-0.81)"/><path class="cls-1" d="M459.88,474.54c.18,1.37,1.85-.92,0,0Z" transform="translate(-0.81)"/><path class="cls-1" d="M458.57,468.18l2,1.82c1.31-.39,1.61-2,2.56-1.39C462,466.76,460.73,467.13,458.57,468.18Z" transform="translate(-0.81)"/><path class="cls-1" d="M454.41,466.44l.84.95C455.8,467.22,456,467,454.41,466.44Z" transform="translate(-0.81)"/><path class="cls-1" d="M457,469.4l-1.77-2c-.92.26-2.78.29.63.92C454.2,468.15,455.82,468.55,457,469.4Z" transform="translate(-0.81)"/><path class="cls-1" d="M456.15,470.54c-1.25,1-2,2.37-4,.54.38,1.76,1.61,2.5,2.61,2.36S456.54,472.29,456.15,470.54Z" transform="translate(-0.81)"/><path class="cls-1" d="M441.85,480l-1.65,1.44,2,1.08c-.49-.26-.13-.92.13-1.49S442.74,479.89,441.85,480Z" transform="translate(-0.81)"/><path class="cls-1" d="M461.68,456.94c-1.21-.15-3.25.52-4.81.61l1.37,1.38C459.09,458.26,459.88,457,461.68,456.94Z" transform="translate(-0.81)"/><path class="cls-1" d="M456.87,457.55l-2-2.08C454.53,457.28,455.54,457.63,456.87,457.55Z" transform="translate(-0.81)"/><polygon class="cls-1" points="447.26 466.07 451.64 469.44 447.2 465.42 447.26 466.07"/><polygon class="cls-1" points="461.31 449.32 464.07 450.57 459.9 448.37 461.31 449.32"/><path class="cls-1" d="M461.89,444.25c2.28,1,4-.92,5.38,0-.33-1.38-2.27-2.66-4-3.83C464.2,441.64,463.89,442.81,461.89,444.25Z" transform="translate(-0.81)"/><path class="cls-1" d="M460.79,438.51a14.67,14.67,0,0,0,2.48,1.95A7.51,7.51,0,0,0,460.79,438.51Z" transform="translate(-0.81)"/><path class="cls-1" d="M455.58,452c.74-.13,2.67-.35,3.52-1.45l-3.44.66Z" transform="translate(-0.81)"/><path class="cls-1" d="M455.55,451.27l.11,0c.11-.86.21-1.46.25-1.71C455.87,449.75,455.76,450.28,455.55,451.27Z" transform="translate(-0.81)"/><path class="cls-1" d="M455.55,452.24l0-.2C455.23,452.11,455.12,452.15,455.55,452.24Z" transform="translate(-0.81)"/><path class="cls-1" d="M451.23,460.73c-1.88-1.23-3.88-3.82-6.85-1.43C446.71,460.22,448.39,458.86,451.23,460.73Z" transform="translate(-0.81)"/><path class="cls-1" d="M451.25,453.08l-.87,2.15c.91,0,2.24-.37,3.16.25Z" transform="translate(-0.81)"/><polygon class="cls-1" points="449.39 451.97 450.44 453.08 450.75 452.28 449.39 451.97"/><path class="cls-1" d="M457.36,442a3.74,3.74,0,0,1-1.65-3.2,7.19,7.19,0,0,0-1.26,3.64C455.51,442.63,457.4,443.27,457.36,442Z" transform="translate(-0.81)"/><path class="cls-1" d="M456.15,446.46c-.08-.07-.11-.16-.18-.22C455.67,446.35,455.57,446.45,456.15,446.46Z" transform="translate(-0.81)"/><path class="cls-1" d="M456.66,427.46l-.64.13.59.09Z" transform="translate(-0.81)"/><path class="cls-1" d="M453.8,442.56c-.71.89.09,1.5,1.11,2.08a5.4,5.4,0,0,1-.46-2.25C454,442.29,453.65,442.25,453.8,442.56Z" transform="translate(-0.81)"/><path class="cls-1" d="M459.43,435.27a11.07,11.07,0,0,0-2,1.45C458.55,436.33,460.3,435.51,459.43,435.27Z" transform="translate(-0.81)"/><path class="cls-1" d="M456.93,446c.05,0,.11.09.15.14C457.82,445.86,457.46,445.88,456.93,446Z" transform="translate(-0.81)"/><path class="cls-1" d="M456.93,446a9.32,9.32,0,0,0-2-1.34,4.86,4.86,0,0,0,1.06,1.6A5.3,5.3,0,0,1,456.93,446Z" transform="translate(-0.81)"/><path class="cls-1" d="M435.15,421.81c3.13.5,5.82,3.3,2.23,5.16,2.16,2.37,12.68,1.86,18.64.62a5.24,5.24,0,0,1-4.3-2.64c-1.79.57-4.48,4.4-7.16,2.31-1.35-3,1.34-2.26,3.13-3.48-4.06.8-5.32-4.26-11.15-4.26l1.74,2.78C437.38,422.26,436.05,421.18,435.15,421.81Z" transform="translate(-0.81)"/><path class="cls-1" d="M455.33,431.6l.31.91c.63-.95,2-1.56,4.56-2.63a6,6,0,0,0-3.59-2.2l-.84,4.26Z" transform="translate(-0.81)"/><path class="cls-1" d="M455.36,436.44c-3.38-.93-4.69-3.18-8.51-2.16,0,2.63,2.74,2,4.12,3.7-.55-4.24,1.82,1.33,4-1.54a5.46,5.46,0,0,1,.74,2.31,10.54,10.54,0,0,1,1.73-2l-.22.08v0h0c-.45.15-.72.19-.46,0,0,0,0-.07-.06-.1a9,9,0,0,1-1.28-.28c.8-1.14.9-.12,1.28.28.18,0,.33.07.52.09h0l-1.58-4.29C455.1,433.35,455.11,434.46,455.36,436.44Z" transform="translate(-0.81)"/><path class="cls-1" d="M437,456.84a1.82,1.82,0,0,1,.8-.12C437.4,456.43,437.12,456.31,437,456.84Z" transform="translate(-0.81)"/><path class="cls-1" d="M439.15,455.12c.46.33,1.82.63,1.45,1.63-1.05.85-1.64-.05-2.78,0,.9.64,2.43,2.2,4.15.33l-.47-.31c1.22-1.7,5.62-3.75,6.08-3.43A37.59,37.59,0,0,0,439.15,455.12Z" transform="translate(-0.81)"/><path class="cls-1" d="M446.29,445.44l-1.49-3.63-3.08,1.64h1.79C442.7,445.44,444.93,445.12,446.29,445.44Z" transform="translate(-0.81)"/><polygon class="cls-1" points="457.6 427.23 461.18 428.03 456.24 425.56 457.6 427.23"/><polygon class="cls-1" points="457.61 422.73 460.73 423.23 458.97 421.85 457.61 422.73"/><path class="cls-1" d="M374.9,449.31l-.59,1.32A3.19,3.19,0,0,0,374.9,449.31Z" transform="translate(-0.81)"/><path class="cls-1" d="M382.21,445.69l-.57-1.47C381.72,445.15,381.89,445.79,382.21,445.69Z" transform="translate(-0.81)"/><path class="cls-1" d="M448,325.64c-3.09.63-7.74.7-4.27,1.33l3.48.39C446.7,326.5,447.17,326,448,325.64Z" transform="translate(-0.81)"/><path class="cls-1" d="M425.34,393.88l1,.5c-.49-1.15-.95-2.23-1.37-3.19C425.12,392,425.23,392.92,425.34,393.88Z" transform="translate(-0.81)"/><path class="cls-1" d="M433.77,405.57l-3.08-.36A7.58,7.58,0,0,0,433.77,405.57Z" transform="translate(-0.81)"/><path class="cls-1" d="M335.23,470.36l-.1,3.78C337.11,473.43,335.64,472.05,335.23,470.36Z" transform="translate(-0.81)"/><path class="cls-1" d="M464.38,377.12a6.2,6.2,0,0,0,2.73-2.66C464.83,375.53,461.63,376.12,464.38,377.12Z" transform="translate(-0.81)"/><path class="cls-1" d="M360.61,415.23a2.79,2.79,0,0,0,.22,2.26A2.28,2.28,0,0,0,360.61,415.23Z" transform="translate(-0.81)"/><path class="cls-1" d="M467.91,370.88a9.34,9.34,0,0,0-1,.47,4,4,0,0,1,.15,3.11C468.8,373.68,470,372.63,467.91,370.88Z" transform="translate(-0.81)"/><path class="cls-1" d="M375.52,334a4.08,4.08,0,0,1,.54.16C375.85,333.75,375.69,333.81,375.52,334Z" transform="translate(-0.81)"/><path class="cls-1" d="M430.75,346.6a4.8,4.8,0,0,1-1.5.83C429.62,347.55,430.08,347.36,430.75,346.6Z" transform="translate(-0.81)"/><path class="cls-1" d="M462.19,405.05c.08,1,.36.21,0,0Z" transform="translate(-0.81)"/><path class="cls-1" d="M447.93,407.75a3.74,3.74,0,0,0-1.62-.62A4.83,4.83,0,0,1,447.93,407.75Z" transform="translate(-0.81)"/><path class="cls-1" d="M449.17,356.39s0-.05,0-.08C448.48,356.43,448.61,356.41,449.17,356.39Z" transform="translate(-0.81)"/><path class="cls-1" d="M460.42,406.24a4.73,4.73,0,0,0,1.2-1.06A4.5,4.5,0,0,0,460.42,406.24Z" transform="translate(-0.81)"/><path class="cls-1" d="M462.07,406.28a7.81,7.81,0,0,0-.45.77C462.17,407.25,462.55,407.2,462.07,406.28Z" transform="translate(-0.81)"/><path class="cls-1" d="M462.2,403.72a2.74,2.74,0,0,1-.58,1.46c.26-.15.46-.19.57-.13C462.18,404.77,462.17,404.37,462.2,403.72Z" transform="translate(-0.81)"/><path class="cls-1" d="M317,398.7a2.63,2.63,0,0,1,.39,0C316.91,397,316.82,397.5,317,398.7Z" transform="translate(-0.81)"/><path class="cls-1" d="M473.26,360.87c0-.06-.07-.13-.07-.19l-.2.09Z" transform="translate(-0.81)"/><path class="cls-1" d="M473.46,365.82c-2.85-3.76-1.93-4.3-.47-5.05q-4.74-1.78-9.41-3.67Q468.59,361.33,473.46,365.82Z" transform="translate(-0.81)"/><path class="cls-1" d="M357.68,458.62l3.73,1.77c-.89,6-3.84,5.35.29,8.33-2-5.07.31-6.33,2.58-7.72s4.55-2.72,2.37-7.69l2.57,1.28c-.5.13-.3.74-.79.87,5.38,3.15-1.15-8.19,3.42-8.73,1.72,0,3.39.95,3,2.58l1.78-3.95c1-.27,1.65,1.51.67,1.78q2.11-1.58,4.17-3.22l.12.3a41.34,41.34,0,0,1,.17-6.33c1.91.74,0,1.32.94,2.34.41-1.23.81-2.43,1.19-3.67,2.4,1.87,1.71,5.43-.24,6,3.81,4.09,4,3.21,4.27,1.62s.52-3.83,4.65-2.57l-1.68,2.57c4.63,4.42,5.4,1.44,10.08,3.06-.85-.66-3.45-1.89-5.65-3.51s-4-3.56-3.36-5.51c1.17.26,2.37,0,2.67-2.77,2,3.29,2.94,1.62,4.58.35l2.6,4.42c1.14-2.46-.42-4.58-.56-7.23,2.36-.91,5,2.13,7.29,4.59,3.84-1.52-5.8-3.79-2.37-7.2,3.81-.24,4.65-3.24,6.06-8,2.9.11,1.48,2.79,3,3.51l-.7-4.51c.46-.21,1.06.9,1.37,1.46.47-2.29-2.86-4.22-1.53-6.92-1.38-2.49.92-1.63,3.45-1.08s5.32.82,4.65-2.75c1.54.64,1.62,2.72,3,4.13,1-6.15,1.26-4.81.56-11.57l4.58.58c-4.26-1.49-4.82-6.85-5.35-11.33-1.81-.89-3.36-1.7-4.21-2,.43-1.54.8-3.1,1.19-4.63.91.32,1.77,1.9,2.67,3.95-.07-.5-.15-1-.25-1.41,2.31.51,3.72,3.19,4.79,6-1-.44-2.11-.93-3.17-1.44,1.28,3,2.76,6.28,4.86,8.43a3,3,0,0,1,.14-1.95,4.47,4.47,0,0,0,1.13,1.81c.45.32.06-.83-.28-2.27l4.46,3.69-1.31-1.86c2.19-.3,4.37-.67,6.56-1.07-.42-3.47-1.49-7.35-2.15-11.07s-.93-7.28.3-10.22c2,4,4.7,5,8.24,8.43-2.5-1.19-2.94.06-3.17,1.84s-.29,4-1.84,4.81c1.62-.8,3,1.16,3.25,2.06.16-1.27.33-2.52.47-3.78l.37-3.8c2.82,2.92,3.07,1.21,5.38,1.23-6.62-4.64-.89-6.91-1.17-10.33,2.13,1.64,3.85,3.92,1.34,5.68,3.35.8,2.35-1.57,1.14-4s-2.52-4.84.47-4.41c-.41.59-1,.62-.11,1.72a2.79,2.79,0,0,1,1.51-3.16,2.09,2.09,0,0,1,3,.55l-.4.61a20.22,20.22,0,0,0,2.92-3.28,18.75,18.75,0,0,0,2.26-4.52,9.48,9.48,0,0,0,.44-4.71,6.08,6.08,0,0,0-2.38-3.84,89.7,89.7,0,0,1,7.66,5.81q-1.83-2.46-3.71-4.85c-1.27-1.59-2.59-3.18-3.91-4.72-2.65-3.09-5.36-6-8.18-8.86,2.45,1.64,7,3.49,11.22,5.47s7.93,4.2,8.34,6.85a3.69,3.69,0,0,0,2.18-4.91c-1.13.44-8.47-1.88-8.49-3.08,3.56.11,4.59,0,5.54-.27s1.8-.61,5.1-1.38c-.82.36-3.2-.7-5.27-2s-3.83-2.87-3.36-3.65c1.17.77,8.5,3.11,9.11,4.14-1.08-1.33-2.17-2.62-3.29-3.88s-2.33-2.52-3.51-3.73c1.18,1.61,7.15,2.68,9.94,2.33-.92,0-.54-1.05,0-2.29s1.15-2.76.9-3.54c-.85.55-1.7,1.07-2.54,1.58,1.35-2.62-1.39-4.76-4.29-6.68s-6.11-3.74-5.49-6.08c1.75.77,11.07,3.27,12.63.5-1.53-.65-4.58-1.86-8.06-3.19s-7.38-2.79-10.6-4.11l7.17,4.45c.33,1.54.68,2.92,1,4a25.45,25.45,0,0,1,.62,2.69c-.66-.63-1.33-1.21-2-1.76.07.61.16,1.2.27,1.76s.26,1.18.42,1.72a34.67,34.67,0,0,1-5.07-8.95,32.1,32.1,0,0,1-1.64-6,33.77,33.77,0,0,1-.44-6.14v-.42L478.08,321c2.28,1.48,4.26,2.8,5.65,3.9,2.19-2,3.11-.48,3.17-3.56l.69-35-27.83,18.13-.29.18a1.59,1.59,0,0,1-.86-2.3l2.66-6.46,28,25.51a4.69,4.69,0,0,1,1.25,2.8l.73-2.72,10.56-39.39-44.2,18.51c-1.3.55-2.61,1.13-3.9,1.75s-2.5,1.36-3.71,2.1c1.9,1.93,1,4.41.38,6.73a12.47,12.47,0,0,0-.51,3.3,3.24,3.24,0,0,0,1.37,2.53,35.41,35.41,0,0,1,4.81-11.69c1.68,2.09,2.29,6.29,2.5,10s.09,7.08-1.85,8.81c-1.23-.13-3-1.73-4.62-3.53s-2.91-3.8-3.66-4.31a7.4,7.4,0,0,1-.29,4.21c-.42,1.48-1.05,2.69-1.77,2.6-.36-1.24-.68-2.51-1-3.83a2.31,2.31,0,0,0-1.21,2.24,14,14,0,0,0,.6,2.93,4.88,4.88,0,0,1,.2,2.63c-.26.74-1,1.31-2.53,1.64-.42.52-2.42.73-3.92,1s-2.59.68-1.15,1.36c6.57.13,24.05,7.56,28,10.1-.25,0-2,.54-4.16,1.16a35.16,35.16,0,0,1-6.21,1.5c-2.55.07-5.11-1.34-7.55-2.86s-4.76-3.1-7-3a9.18,9.18,0,0,1,3.22,2.63c-1.55.76-4.22-1.8-4.31.86,5.09,1.94-1.82,4.75,4.1,2.42.84,2.73-1.75,2.12-2.22,4.84,3.62.08,11,5.42,11.91,8a11.83,11.83,0,0,0-4.05-.38c-1.57,4.41-4.63,6.27-5.61,10.55-1.38.1-3.41,1.83-5.5.44.81.83,2.48,1.8,2.31,3.15-5.18,1.58,0-3.12-6-2.37,3,.85,3.52,4.4,5.08,6.7,4.91.41,1.81-4.17.33-6.5,6.58,1.46,12.75,6.23,14.94,11.19.94,3.79-4.58.66-3.77,1.44-1.23,3.18,1.43,5.14,3.64,6.83s4,3.14,1.13,5.42c-4.6,1.43-8.44-1.34-11.58-1.39-1.14-3.19,3.47-4,3.65-5.93l-2.45,2c-1.24-1.17-1.94-3.31-.52-4.13-2.06.56-2.81,3.35-3.5,6.58s-1.44,6.86-3.56,9.21c1.28,1.14,2.53,2.95,4.35,2.45l-.35-1.72c3.65-1,4.29,3.77,6.2,1.95,2.08,2.54,5.51,5.45,3.19,8.21l-4.93-.06c1.43.11,3.15-1.61,1.78-2.67,2,1.54-7.19,3.84-1,6l3.65-1.7c2.14,2.48,7,5.72,5.19,8.19,4.94-.66-.48-.68,5.35-1.9-3.58.4-3.34-1.28-3.11-2.84s.41-3-3.44-2.16c6.78-1.09,3.2-3,9.09-4.73-1.62-.14-3.2.46-2.08-1.63a7.6,7.6,0,0,1-1.34-.68.86.86,0,0,1,.14-.13,1.33,1.33,0,0,0-.21.09c-.23-.13-.28-.14-.07,0a6.39,6.39,0,0,1-2.6.78c-3.52-1.62-2.87-5.17-4.6-6.67,1-1.21,1.76.84,3.57.38L454,398.63c3.57.37,6.47-2.53,8,.88l.62-2.74c2.27-1.29,3.4-3.36,2.18-5,1-1.15-3.3-4-.75-2.35l-1.38-4.73.89.13c.64-2.08-.36-4.56-.61-7s.33-4.78,4-6.48c-.57-1.62-1.31-3.36.27-5.5l3.13.27c-.6-2.08,4.34-4.67,1.43-6.24,4.31.08,5.32-2,5.54-4.38s-.4-4.68.7-5.67l-3.83-1.36c.79-1.65.24-3.47-.46-5.85l-3.31-1.39c-1-1.45.16-2.22,1.52-2.67s3-.47,3.3-1.09c1,1,.49,1-.36.72a10.36,10.36,0,0,0,2.44.9c.36.08.34-.23.19-.59l-.3-.74c-.11-.25-.23-.55-.34-.86a5.56,5.56,0,0,1-.38-1.69L451.94,320c.53,1.07.41,2.14-1.37,2.9.62.46.81.83.73,1.14a1.71,1.71,0,0,1-1,.77c0-.08-.06-.15-.16-.22a.81.81,0,0,0-.1.31c-.67.26-1.44.51-2.06.78a7,7,0,0,0,2-.6,4.86,4.86,0,0,0,1,2.7l-3.84-.38c0,.08,0,.14.06.23-1.61.52,1.6,1.09,4.56,1.21a9.44,9.44,0,0,0,1.94,1.79c-3.12-.34-2.76.37-2.46,1.16s.48,1.62-2.86,1.14c1.45.78,1.64,2.13,2.26,3.67a8.18,8.18,0,0,0,4.5,4.83c-.84-.3-1.35-.16-1.19-.73-1.18.85-2.28,1.62-1.05,3.41l-4.66-1.61q2.43,2.54,4.77,5.28c-3.43.14-5.27-.22-7.84-3.3,1.66,2.95,1.74,3.95,1.87,4.82a6.37,6.37,0,0,0,.39,1.56,26.89,26.89,0,0,0,1.41,3.09l-2.6-1.81c-.53,1,2,5-.61,4.2a5.11,5.11,0,0,0-4.19,1.16,27.48,27.48,0,0,0-3.63,3.77,33.32,33.32,0,0,1-4.27,4.3,12.27,12.27,0,0,1-5.74,2.53c3.86,2.72,2.53,2.59.87,2.42s-3.62-.41-1.15,2.25c-1.86-1.26-3.4-1.46-4-3.61-.47,2-2.08,2.3-3.19,2.85s-1.81,1.34-.68,4.42c-1.8-1.36-1.61-2.89-2.77-3.61.11.54.46,2.17-.7,1.44s-.86-1.72-1.1-2.8c-2.36,2.67,1.8,8,5.79,13-3.46-1-3.87-.08-2.26,4.05-1.88-1.16-4.13-2.12-2.79-4.22-1.24.63-8.22,2.85-5.18,6.89-1.14-.75-1.72.87-1.63,1.56-2.58,1.63-3.06,1.43-5.17,3.6l1.17.17c2.75,5.64-1.18,2.6-2.68,4.64l-.31-.55c-7.11-.42-.73,3.16-8.11,2.12l2.42,3c2.14,3.54.42,3.24-1.91,2.58s-5.24-1.69-5.72.48l2.17,1.21c0,1.65-2.53,0-5.32-2.15s-5.78-4.66-6.77-4.66c-.69-.42-.11-1.27,0-2-6.3-1.82,2.19,4.56,0,7.29-1.94-2-2.95-6.28-5.08-5.57-1-.65-1.23,2.07-1.91,4.55s-1.77,4.84-4.37,3.3c1.61,1.51,3.23,3,2.64,5.11-.87.9-3.24,0-5.21-.38s-3.55-.1-3,3.32a3.54,3.54,0,0,1-1.14-1.26,33.38,33.38,0,0,1-2.2,4,7.47,7.47,0,0,0-1.19,4.93c-3.69-5.57-5.47-2.88-7.13-.21s-3.11,5.4-5.57-.21l-4.85,2.83-.36-1.21c-3.59.61-3.64,3.79-3.73,7-1.08-.46-.94-1.75-1.11-2.37-2.89-.18-4.4-.15-5.43.87s-1.59,3-2.66,6.61l-1.77-3.58c-.08.64-.71.75-1.64.66a15.84,15.84,0,0,1-3.23-.72,9.33,9.33,0,0,0-2.69-.63c-.69,0-1.07.4-1.29,1.57,0-.46,0-1.23,0-1.79a3.82,3.82,0,0,1-.08.39c0,.11,0,.18,0,.26s0,.13,0,.18c0,.38,0,.75-.05,1.14s-.09.8-.13,1.14-.07.63-.13.95c-.15.71-.21,1.11-.37,1.62l-.11.35-.07.24a5.49,5.49,0,0,1-.21.51l-.13.3a1.83,1.83,0,0,1-.15.25.17.17,0,0,1,0,.05s-.07.09,0,0a1.14,1.14,0,0,1,.25-.24l-.19.17-.17.13,0,0a1.53,1.53,0,0,1,.35-.16l.09,0,.18-.07a1.67,1.67,0,0,1,.34-.11,2,2,0,0,1,.31-.07l.44-.11a5.64,5.64,0,0,1,.83-.13c.1,0,.26,0,.43-.05l.44-.05a6.45,6.45,0,0,1,.71,0h-.16l-.21,0-.44-.07a3,3,0,0,1-.87-.3A7,7,0,0,1,316,441c-.26-.2-.53-.42-.79-.65a1.9,1.9,0,0,1-1.63.87,6.27,6.27,0,0,1-2.34-.39c-1.69-.52-3.4-1.76-4.73-.95a1.47,1.47,0,0,1,.6-1.47,4.18,4.18,0,0,1,1.89-.88c1.44-.29,2.87.09,3,1.09l-.77.11c3.58,1.19,4.43.41,5.19-.54s1.38-2.14,3.66-1a26.39,26.39,0,0,1,3.59-5.39c.74-.92,1.51-1.82,2.3-2.69.39-.44.78-.87,1.19-1.3l1.27-1.22c1.7-1.63,3.4-3.21,5-4.83a57.52,57.52,0,0,0,4.56-4.87l-5.31-2.66,2.13-2.32c1.57.16,4.28,1.9,2.8,3.51,3.32,1.1-.06-4.65-1-5.48,2.31-1,3.37.45,4,1.94s.8,3.08,1.27,2.62l.77-1.62-.79-.12c-1-2.59-2.85-4.29-.94-6.18,2-.55,3.32,1.65,3.9,1.28.33.28.61.23.77-.66.91-.9,1.91-1.73,2.89-2.56l-4.51-1.9c-.55-2.78,2.67-2.59-2.48-4.7a6.31,6.31,0,0,0,5.23,0,15.1,15.1,0,0,0,4.12-3.13c2.52-2.48,4.46-5.38,5.9-5-.57-4.12,1.34-5.71,3.83-7.44-1.2-.22-5-3.77-2.61-5.1,3.2,4.37,4.8,4.38,6.53,4s3.48-1.31,6.71,1c-4.68-2.79,4.8-5.56-1.95-9.44,2.28-.62,2.58,3.08,5.43,4.1.76-3.15,3.43-4.32,6.38-5.23s6.31-1.37,8.49-3.69c-.68-1.25-2.72-2.46-2.73-5q3.33,2.09,6.57,4.25c.67-1.21-3.24-7.53,1.2-4.52-.87-.85-2.2-2.13-1.71-2.95a21.36,21.36,0,0,0,9.26-2.66c1.39-.72,2.67-1.66,4-2.46l4-2.52a30.39,30.39,0,0,1,4.2-2.26,21.69,21.69,0,0,1,4.6-1.32,15.49,15.49,0,0,1,5.05-.06,20,20,0,0,1,5.64,1.94c-2.48-2-1.54-2.63-.37-3.16-1-.33-1.14-3.28-1.93-5l3.35,1.61c1.1.53,2.2,1.08,3.3,1.69-.7-5.32,5.21-1.95,4.31-7l-1.35,1.37c.22-3.19-1.45-6.15-3.5-9.22s-4.47-6.24-5.45-9.95c-.29,3.65-2.78,1.72-5.4.42s-5.46-2.21-5.9,3.11c-1.5-1.12-.06-2.6-1.19-4.08.05,3.48-1,4.53-3.93,4.19l0-.86a19,19,0,0,1-8.79,2.38,87.87,87.87,0,0,0-10.3,1.15l2.25,3.12c-1.83.32-2.71-.59-3.87-1,.42,3.05,1.54,2.49,2.74,2.08s2.47-.76,3.05,2.48a4.71,4.71,0,0,0-4.17-1.74,14,14,0,0,0-4.13,1.5c-2.73,1.31-5.46,2.4-8.33-1-2.4,1.39,2.88,3.38.51,4.75l-1.83-1.66,1,3c-1.78.49-4.1-1.57-5.21-3.24.5,0,.78-1.13,1.1-1.53-3.49-1.13-5.26,4.25-6.37,4,1-.1,2-.16,3-.2-.67.71-1.38,1.4-2.12,2.08s-1.54,1.29-2.36,1.9c-1.64,1.22-3.38,2.36-5.08,3.57-3.3,2.51-6.35,5.37-7.75,9.42l1.53,1.08c-2.16,6-4.61,1.24-8.28,6.24l-.11-.46c.21,2.1-.36,3.85-1.69,4.79-.27-2.59-4.83-1.11-4.9-4.18-1,3.35-1.1,4.35-.73,5.47a32.17,32.17,0,0,1,2.08,6.06l-2.7-1.54c.94,2.88,1.85,4,.33,6.57-.09-3.51-4.52-1.86-5-6.18-4.52-.06-5.07,2.79-5.47,5s-.69,4-5.19,1.86c4.16,7.65,7-.95,7.22,1.44,2.84.86,2.93,5.91,1.05,6.76-.72.65-3.22-.49-6-1.29a14.2,14.2,0,0,0-4.12-.68,4,4,0,0,0-3.2,1.49c.35-.37-.1-.8.25-1.17-2.84.16-.19,4.7-4.32,4.38,3.07,4.11-2.16,2.19,2.62,6.38.56-1.5,1.16-3,1.75-4.48-.19,1.53.79,3.92,1.15,6s.19,4-2.5,4.65A10.9,10.9,0,0,1,317,398.7c-2.24-.11-.44,2.68-2.76,2.58-2.45-2-1.88-3.37-1-4.86a11.24,11.24,0,0,0,1.27-2.44,4.5,4.5,0,0,0-.1-3.24c-3-.6.32,7.1-4.26,1.76,2.84,3.49,1.89,4.32.6,5.17s-2.9,1.7-1.2,5l-3-2.38c.08.4.31,1.08.44,1.76a2.24,2.24,0,0,1-.11,1.78c-1-1.43-2-2.9-3-4.34.9,2.38-.59,3-2.31,3.49s-3.64.87-3.45,2.66c3.1-4.9,4.54,1.43,8.17,1,.21,4.29-2.4,3.73-5.45,3.12s-6.52-1.31-7.79,2.65c.1-1.23,4-2.33,4.66.05a10.27,10.27,0,0,1-5.91,1.66c-2,5,3.8,1.26,4.68,4.37-2.46-.39-2.38.41-1.66,1.62.35.62.89,1.28,1.3,2.07a5.83,5.83,0,0,1,.75,2.43l-3.44-1.75c-2.85,2.94-1.17,4.41.47,5.48a5,5,0,0,1,1.94,1.77c.3.74.06,1.55-1.16,3.06-.71-.74-1.41-1.5-2.09-2.3s-1.34-1.56-2-2.38c0,1.39,0,2.85.05,4.32-1.34-.69-2.66-1.35-4-2.07a25.83,25.83,0,0,1,.86,3.59,10,10,0,0,1,.05,2.82c-.16,1.87-.95,3.59-1.32,7.17a4.19,4.19,0,0,1,4.56.18,7.45,7.45,0,0,1,2.1,1.94,13.15,13.15,0,0,1,1.65,3.17,3.17,3.17,0,0,1-.88,1.92,3,3,0,0,1-1,.39c-.26.09-.39.3-.16,1a8.82,8.82,0,0,0,.66,1.44,25.92,25.92,0,0,0,1.62,2.33,8.62,8.62,0,0,1-4.68-1.56c-1.22-1.07-1.93-3-.77-5.47a5.24,5.24,0,0,1-2.11-.81,7.43,7.43,0,0,0-2.05-.91,9.28,9.28,0,0,0,0,4.77,13.57,13.57,0,0,0,.88,2.58,18.56,18.56,0,0,0,1.29,2.46,32.81,32.81,0,0,0,6.19,6.78,9.63,9.63,0,0,1-2.35-3.92,31.32,31.32,0,0,0,3.65,2.09,28.79,28.79,0,0,0,3.79,1.44,22,22,0,0,0,3.78.8c.62.07,1.23.13,1.83.17s1.17,0,1.74,0c.68,1,.61,1.69.06,2.15a6,6,0,0,1-2.61.89,10.21,10.21,0,0,0,4.15.07c.67-.11,1.41-.18,2.12-.27a13.34,13.34,0,0,1,2.33-.1,17.74,17.74,0,0,1-2,4.29,4.7,4.7,0,0,1-2.08,1.54A9.11,9.11,0,0,1,304,474a34.71,34.71,0,0,0,3.89.18c1.21,0,2.33-.16,3.47-.29s2.07-.39,3.05-.63,1.82-.55,2.67-.86a11.15,11.15,0,0,0,2.8,2.35c1.06.81,2,1.58,1.4,2.23,2.9.59,5.63-1.54,7.81-3.65l1.61-1.55a19.63,19.63,0,0,1,1.55-1.31l.4-.26.31-.2a2.92,2.92,0,0,1,.65-.3,2.77,2.77,0,0,1,1.49,0,2.81,2.81,0,0,1,.75-2c3.52-.47,7.83,2,10.15-3.51l4.28,4.33c1.29-1.21-.13-2.55-1.32-4.09s-2.15-3.29-.08-5.28c2.82-3.09,3.15,3.89,5,4.83.7-3.36,1.36-10,6.41-7.18C359.68,458.2,358.5,457.8,357.68,458.62Zm34.22-20.4c-.24,1.07-.31,4-1.95,2.32C388.48,436.28,390.12,437.78,391.9,438.22Zm42.57-42.46c.43,1.32-.64,1.45-2.35,1C432.45,396.05,433.14,395.62,434.47,395.76Zm26.26-1.5-.17-.11C462.3,392.88,461.62,393.32,460.73,394.26Zm-2.19,2.91a2,2,0,0,0,1.57.43c-.93-.38-.87-1.11-.47-1.88C458.61,395.78,457.85,396.08,458.54,397.17ZM343.88,406.7l-1.16-.17C342.74,404.74,343.27,405.69,343.88,406.7Z" transform="translate(-0.81)"/><path class="cls-1" d="M432.82,404.2a8.36,8.36,0,0,1-1.6-1.39A1.79,1.79,0,0,0,432.82,404.2Z" transform="translate(-0.81)"/><path class="cls-1" d="M335.24,469.66c-.05,0-.08,0-.13,0a3.2,3.2,0,0,0,.12.7Z" transform="translate(-0.81)"/><path class="cls-1" d="M438.16,338.91a4.1,4.1,0,0,1,2.36-.86A1.73,1.73,0,0,0,438.16,338.91Z" transform="translate(-0.81)"/><path class="cls-1" d="M462.59,415l-.73-2.16c.06,1-.82,1.25-1.5,1.67C461.26,414.57,462.61,414.35,462.59,415Z" transform="translate(-0.81)"/><path class="cls-1" d="M436.93,430.66c.45.35,0,.67.46,1l1.79.06C439.16,430.4,437.82,429.34,436.93,430.66Z" transform="translate(-0.81)"/><path class="cls-1" d="M449.61,415.33c-3.24-.22-2.29,1.24-1.86,2.77a.47.47,0,0,1,0-.26C452.24,418.79,450.93,417.07,449.61,415.33Z" transform="translate(-0.81)"/><path class="cls-1" d="M447.83,418.46a2.21,2.21,0,0,1-.08,1.37C449.54,420.2,448.19,419.32,447.83,418.46Z" transform="translate(-0.81)"/><path class="cls-1" d="M460,401.56c-.93.56,4,1.06,2.68,1.24C466.66,404.2,458.42,397.52,460,401.56Z" transform="translate(-0.81)"/><polygon class="cls-1" points="438.05 415.27 442.09 415.2 438.98 413.98 438.05 415.27"/><path class="cls-1" d="M443.33,403.86l-1.45,2.22a1.54,1.54,0,0,1,1.26.83C443.47,405.46,444.51,404,443.33,403.86Z" transform="translate(-0.81)"/><path class="cls-1" d="M443.14,406.91a1.88,1.88,0,0,0,.42,2A3.9,3.9,0,0,0,443.14,406.91Z" transform="translate(-0.81)"/><polygon class="cls-1" points="437.26 411.84 438.18 411.24 438.69 409.59 437.26 411.84"/><path class="cls-1" d="M448.48,378.62l-.59-2.79c-1.29-.55-2.26,0-1.93,1.05C446.78,377.69,447.1,378.75,448.48,378.62Z" transform="translate(-0.81)"/><path class="cls-1" d="M436.19,384.39c.95-.56,1.84-.45,3.21-.6l-4.87-1Z" transform="translate(-0.81)"/><path class="cls-1" d="M436.53,376.49c-1.3-.52-3.09-4.62-3.47-1.2C434.34,375.83,434.92,378.69,436.53,376.49Z" transform="translate(-0.81)"/><path class="cls-1" d="M452.49,339l-.17.67,7.72,2.61C457.51,341.18,455,340.09,452.49,339Z" transform="translate(-0.81)"/><path class="cls-1" d="M488.44,335.55c2.61-3.72-4.78-1.85-1.79-5-1.76-1.19-2.44,2.55-3.93,1.34C484.36,334.52,483,335.57,488.44,335.55Z" transform="translate(-0.81)"/><path class="cls-1" d="M482.72,331.88a7.71,7.71,0,0,0-1-1.35A4.27,4.27,0,0,0,482.72,331.88Z" transform="translate(-0.81)"/><polygon class="cls-1" points="437.69 348.71 439.9 349.82 438.01 347.53 437.69 348.71"/><path class="cls-1" d="M440.18,341.89l1.83,4.87-.2-4.85C441.47,342.25,440.81,342.92,440.18,341.89Z" transform="translate(-0.81)"/><path class="cls-1" d="M402.44,444l-.51-1.15a1.86,1.86,0,0,0-2.47-.44Z" transform="translate(-0.81)"/><polygon class="cls-1" points="373.99 455.07 374.49 454.95 371.54 451.17 373.99 455.07"/><path class="cls-1" d="M354.68,470.84c1-.2,1.73-1.61,2.75-1.84C355.7,470.65,352.18,465.54,354.68,470.84Z" transform="translate(-0.81)"/><path class="cls-1" d="M437.18,675.55c-.46.55,2.83,1.25,3.38,1.51C440.15,675.79,436.34,675.34,437.18,675.55Z" transform="translate(-0.81)"/><polygon class="cls-1" points="432.05 663 433.31 663.57 430.53 661.1 432.05 663"/><path class="cls-1" d="M435.71,653.24c-5.75-.65-.13,3.8-2.58,5l-1.34-.07,4.2,2.05C435.9,657.88,433.75,654.29,435.71,653.24Z" transform="translate(-0.81)"/><path class="cls-1" d="M449.07,651.43c-2.22-.29-1.51-1.66-1,1a5.48,5.48,0,0,1,.6-.06A2.35,2.35,0,0,1,449.07,651.43Z" transform="translate(-0.81)"/><path class="cls-1" d="M448.66,652.39c-.14,1.07,2-.16,0,0Z" transform="translate(-0.81)"/><path class="cls-1" d="M448.8,647.28l1.52,1.91c1.34.07,2-1.05,2.77-.34C452.44,647.16,451.1,647.09,448.8,647.28Z" transform="translate(-0.81)"/><path class="cls-1" d="M445.17,644.85l.6.93C446.34,645.81,446.58,645.68,445.17,644.85Z" transform="translate(-0.81)"/><path class="cls-1" d="M447.05,647.76l-1.28-2c-.94-.06-2.72-.55.42.86C444.6,646.05,446.08,646.8,447.05,647.76Z" transform="translate(-0.81)"/><path class="cls-1" d="M446,648.36c-1.41.42-2.45,1.19-4-.72C442,650.45,446,651.18,446,648.36Z" transform="translate(-0.81)"/><path class="cls-1" d="M430.18,651.11l-1.91.56,1.6,1.41C429.08,652.38,431.91,651.54,430.18,651.11Z" transform="translate(-0.81)"/><path class="cls-1" d="M454.08,639.66c-1.15-.42-3.24-.44-4.77-.77l1.05,1.39C451.31,640,452.33,639.23,454.08,639.66Z" transform="translate(-0.81)"/><path class="cls-1" d="M449.31,638.89l-1.57-2.08C447.12,638.08,448,638.6,449.31,638.89Z" transform="translate(-0.81)"/><polygon class="cls-1" points="438.34 642.86 441.84 646.53 438.42 642.36 438.34 642.86"/><polygon class="cls-1" points="455.06 633.98 457.52 635.61 453.87 632.92 455.06 633.98"/><path class="cls-1" d="M456.49,630.05c2.06,1.28,4,.23,5.22,1.3-.1-1.15-1.77-2.58-3.27-3.88C459.16,628.59,458.66,629.42,456.49,630.05Z" transform="translate(-0.81)"/><path class="cls-1" d="M456.31,625.42a15.82,15.82,0,0,0,2.13,2.05A7.73,7.73,0,0,0,456.31,625.42Z" transform="translate(-0.81)"/><path class="cls-1" d="M449.05,634.43c.74.09,2.65.39,3.67-.22l-3.45-.36C449.2,634,449.13,634.23,449.05,634.43Z" transform="translate(-0.81)"/><path class="cls-1" d="M449.16,633.84h.11c.26-.62.46-1,.55-1.22C449.75,632.79,449.54,633.15,449.16,633.84Z" transform="translate(-0.81)"/><path class="cls-1" d="M449,634.57a.42.42,0,0,0,.06-.14C448.71,634.39,448.59,634.4,449,634.57Z" transform="translate(-0.81)"/><path class="cls-1" d="M443.25,639.78c-1.58-1.41-3-3.81-6.34-2.84C439,638.22,440.87,637.66,443.25,639.78Z" transform="translate(-0.81)"/><path class="cls-1" d="M444.68,634.12l-1.21,1.38c.87.22,2.22.29,3,1Z" transform="translate(-0.81)"/><polygon class="cls-1" points="443.05 633.04 443.87 634.12 444.32 633.61 443.05 633.04"/><path class="cls-1" d="M452.45,627.25a2.92,2.92,0,0,1-1.12-2.8,4.9,4.9,0,0,0-1.78,2.46C450.55,627.33,452.29,628.26,452.45,627.25Z" transform="translate(-0.81)"/><path class="cls-1" d="M450.56,630.37c-.06-.07-.08-.14-.14-.2C450.11,630.18,450,630.23,450.56,630.37Z" transform="translate(-0.81)"/><path class="cls-1" d="M453.77,616.1l-.63,0,.56.19Z" transform="translate(-0.81)"/><path class="cls-1" d="M448.9,626.89c-.84.5-.15,1.14.74,1.82a3.57,3.57,0,0,1-.09-1.8C449.1,626.72,448.8,626.62,448.9,626.89Z" transform="translate(-0.81)"/><path class="cls-1" d="M455.45,622.64a11.31,11.31,0,0,0-2.15.66C454.44,623.25,456.26,623,455.45,622.64Z" transform="translate(-0.81)"/><path class="cls-1" d="M451.4,630.2s.09.09.11.14C452.28,630.32,451.93,630.25,451.4,630.2Z" transform="translate(-0.81)"/><path class="cls-1" d="M451.4,630.2a10.15,10.15,0,0,0-1.76-1.49,4.25,4.25,0,0,0,.78,1.46A6.72,6.72,0,0,1,451.4,630.2Z" transform="translate(-0.81)"/><path class="cls-1" d="M433.43,607.45c3,1,5.3,3.62,1.59,4.23,1.83,2.19,12.13,4.09,18.12,4.38a6,6,0,0,1-3.89-2.88c-1.81.07-4.9,2.36-7.26.24-1-2.54,1.57-1.4,3.47-1.95-4-.23-4.75-4.25-10.45-5.41l1.43,2.4C435.56,608.24,434.37,607.18,433.43,607.45Z" transform="translate(-0.81)"/><path class="cls-1" d="M452,619l.19.76c.74-.58,2.11-.76,4.78-1a6.83,6.83,0,0,0-3.23-2.43l-1.35,3.07Z" transform="translate(-0.81)"/><path class="cls-1" d="M451.32,622.63c-3.17-1.47-4.13-3.43-8-3.51-.32,2,2.39,2.13,3.5,3.68.05-3.3,1.59,1.41,4.1-.26a3.68,3.68,0,0,1,.4,1.91,8.88,8.88,0,0,1,2-1.15h-.23v0l0,0c-.45,0-.72,0-.44-.1a.18.18,0,0,1,0-.08,9.63,9.63,0,0,1-1.2-.5c.94-.69.89.11,1.2.5.17.06.31.13.49.18h0l-.92-3.59C451.5,620.24,451.35,621.08,451.32,622.63Z" transform="translate(-0.81)"/><path class="cls-1" d="M430.26,633.25a2.69,2.69,0,0,1,.8.12C430.71,633.06,430.46,632.9,430.26,633.25Z" transform="translate(-0.81)"/><path class="cls-1" d="M432.63,632.56c.39.36,1.66.92,1.11,1.55-1.17.35-1.58-.46-2.68-.74.75.69,1.93,2.22,3.94,1.31l-.39-.35c1.5-.91,6.09-1.31,6.48-1A49.78,49.78,0,0,0,432.63,632.56Z" transform="translate(-0.81)"/><path class="cls-1" d="M441.15,627.26l-.88-3-3.24.48,1.74.43C437.67,626.4,439.88,626.69,441.15,627.26Z" transform="translate(-0.81)"/><polygon class="cls-1" points="454.7 616.28 458.1 617.63 453.58 614.73 454.7 616.28"/><polygon class="cls-1" points="455.24 612.84 458.24 613.85 456.67 612.44 455.24 612.84"/><path class="cls-1" d="M474.12,414.41l-.63-1A2.86,2.86,0,0,0,474.12,414.41Z" transform="translate(-0.81)"/><path class="cls-1" d="M472.26,419.77l1.45.59C473,419.86,472.39,419.57,472.26,419.77Z" transform="translate(-0.81)"/><path class="cls-1" d="M479.6,531.27c3.16-.25,7.92-.16,4.46-1l-3.42-.66C481,530.51,480.47,531,479.6,531.27Z" transform="translate(-0.81)"/><path class="cls-1" d="M476.41,469.59h-1.1l2.95,1.7Z" transform="translate(-0.81)"/><path class="cls-1" d="M462.89,464.67l2.58-.79A7.79,7.79,0,0,0,462.89,464.67Z" transform="translate(-0.81)"/><path class="cls-1" d="M479.68,383.69l-3.1-1.91C476.17,383.15,478.06,383.07,479.68,383.69Z" transform="translate(-0.81)"/><path class="cls-1" d="M464.73,578.49a4.81,4.81,0,0,0,2.7-1.76C465.18,577.3,462,577.38,464.73,578.49Z" transform="translate(-0.81)"/><path class="cls-1" d="M508.7,427.29a3.33,3.33,0,0,0-1.82-1.26A2.61,2.61,0,0,0,508.7,427.29Z" transform="translate(-0.81)"/><path class="cls-1" d="M468.21,574a9.43,9.43,0,0,0-.93.27,2.67,2.67,0,0,1,.15,2.46C469.09,576.3,470.25,575.6,468.21,574Z" transform="translate(-0.81)"/><path class="cls-1" d="M515.92,277.23a3.09,3.09,0,0,1,.48-.11C516,277,515.9,277.05,515.92,277.23Z" transform="translate(-0.81)"/><path class="cls-1" d="M559.2,256.67a3.06,3.06,0,0,1-.15,1.36C559.35,257.87,559.45,257.48,559.2,256.67Z" transform="translate(-0.81)"/><path class="cls-1" d="M461.38,599.91c0,.76.34.22,0,0Z" transform="translate(-0.81)"/><path class="cls-1" d="M447.21,599.5a4.65,4.65,0,0,0-1.54-.75A6,6,0,0,1,447.21,599.5Z" transform="translate(-0.81)"/><path class="cls-1" d="M449.54,560.9s0,0,0,0C448.85,560.87,449,560.87,449.54,560.9Z" transform="translate(-0.81)"/><path class="cls-1" d="M459.56,600.53a3.85,3.85,0,0,0,1.25-.62A4,4,0,0,0,459.56,600.53Z" transform="translate(-0.81)"/><path class="cls-1" d="M461.18,600.84c-.22.2-.36.37-.51.52C461.2,601.61,461.58,601.64,461.18,600.84Z" transform="translate(-0.81)"/><path class="cls-1" d="M461.48,598.87a1.68,1.68,0,0,1-.67,1,.76.76,0,0,1,.57,0C461.39,599.69,461.41,599.37,461.48,598.87Z" transform="translate(-0.81)"/><path class="cls-1" d="M506.74,337.46a2.84,2.84,0,0,1,.36,0C505.94,336.27,506.06,336.65,506.74,337.46Z" transform="translate(-0.81)"/><path class="cls-1" d="M450.5,502.68c0,.05.1.09.13.13l.15-.07Z" transform="translate(-0.81)"/><path class="cls-1" d="M448.78,499.42c3.82,2.31,3.12,2.77,2,3.32l9.84,2Z" transform="translate(-0.81)"/><path class="cls-1" d="M477.14,401.12l-3.53.86c-4.26-3.65-2.09-4.68-6.79-4.29,10.32,3.43-1.05,7.22,9.26,10.64l-2.54.5c.2-.3-.39-.54-.19-.84-5.67.75,7,4,4.63,6.46a3,3,0,0,1-3.86,0l1.88,3.06c-.41.6-2.16-.12-1.76-.71l-.23,3.72-.3-.12a44,44,0,0,1,4.56,3.75c-1.77.43-1-.77-2.33-.94l1.93,2.69c-2.94,0-5.06-2.43-4.27-3.64-10.92-1.37,2.12,2.39-5.11,4.42l-.77-2.22c-6.25-.62-4.54,1.45-8.84,2.38,2.07.1,10.51-1.29,12.46,1.58-1,.35-1.56,1,.19,2.78-3.71-1.12-3.13.26-3.34,1.7l-4.87-1.58c1,1.91,3.5,2.55,5.43,4.1-1,1.51-4.88.7-8.19.12-1.58,2.42,6.64,0,6.61,3.43-2.55,1.64-1,3.8,1.12,7.33-2.17,1-2.92-1.18-4.49-1.05l3.49,2.55c-.19.31-1.36-.16-2-.4,1.17,1.61,4.87,1.57,5.65,3.79,5.24,2.12-9,1.34-3.56,5.44-1.56.13-2.93-1.18-4.87-1.58,3.09,4.29,2.12,3.52,6.78,7.68l-3.87,1.19c4.15-.48,7.9,2.86,10.94,5.71,1.95,0,3.65,0,4.49-.14l1.78,3.62c-.91.1-2.51-.69-4.42-1.77.35.31.69.61,1,.87-2.11.46-4.78-.91-7.3-2.46,1.07,0,2.2-.08,3.33-.11a36.5,36.5,0,0,0-8.78-4,2.76,2.76,0,0,1,1,1.33,6,6,0,0,0-1.95-.82c-.55-.06.45.56,1.56,1.4l-5.66-1,2.12.81L459.11,470c4.7,4.3,12.11,9,13.1,13.91-3.69-2.25-6.48-2.19-11.21-3.67,5.37.36-1.15-3.9.52-5.77-.87,1-3.06.05-3.75-.48l3.4,5.26c-3.86-1.25-3.16,0-5.07.48,7.9,1.54,4.24,4.43,6.12,6.72-2.6-.67-5.12-1.84-3.92-3.58-6.42.39,8.19,5.45,2.65,6.06.08-.49.55-.62-.7-1.2,2,1.79-.66,3.93-2.71,2.63l.09-.49c-1.85,2.86-2.91,9.5,3.47,11.92-.85-.23-7.73-2.76-9-3.34l20.27,12.12c-5.46-2.16-19.36-4.25-21.75-7.79-1,.51-2.23,1.15-.72,3.31.95-.27,8.48,1.15,8.79,2-6.8,0-3.73.32-9.75,1.09,1.43-.4,10,3.06,9.32,4.18-1.25-.58-8.69-2.48-9.48-3.19l7.74,5.56c-1.33-1.21-7.27-2.31-9.92-2.36,1.79.19-.92,2.54-.3,3.59l2.38-.67c-2.31,3,11.13,6.94,9.68,10.16-1.65-.93-10.66-4.26-12.25-2.87,4.18,2.09,20.22,9.76,22.74,13.73l-2.7-.18,2.21,3.13c-6.23-3.39-19-11.5-23.84-15.29-2.37.67-3.08-.53-3.41,1.43a3.06,3.06,0,0,1-3.26-2.69l-2.84,4c5.22,1.33,4.17,4.91,8.52,6l-3.93-6.38c5.21,1.33,13.81,7.1,12,10-2.29.19-9-3.3-10.75-3.75,1.66.93,2.52,4,1.18,3.89l-2.37-2.14c-2.45,1.17,6,4.86.46,5.5-.55.63-7.28.2-4.27,1.22,6.24.56,24.51,5.7,28.7,7.79-.47.14-6.74,2.13-9.89,2.1-5-.17-10.48-5-14.74-5.18a11.65,11.65,0,0,1,3.42,2.06c-1.43.41-4.27-1.6-4.12.24,5.14,1.81-1.43,3.22,4.19,2.08,1,2-1.59,1.4-1.91,3.36,3.56.39,11,5.08,12,7.13a16.13,16.13,0,0,0-4-.69c-1.45,3.17-4.34,4.25-5.29,7.32-1.35-.09-3.32.95-5.38-.35.79.72,2.45,1.65,2.29,2.63-5.06.52-.08-2.32-5.93-2.51,3,1,3.48,3.69,5,5.6,4.83,1,1.82-2.87.32-4.78,6.48,1.89,12.57,6.24,14.63,10.33.86,3-4.51-.11-3.72.6-2.54,4.48,10.11,7.4,4.27,10-4.59.38-8.23-2.32-11.31-2.84-.95-2.54,3.56-2.43,3.8-3.89l-2.46,1.17c-1.18-1.07-1.81-2.76-.4-3.18-4.09.25-3.09,7.92-7.59,10.64,1.19,1.06,2.3,2.62,4.11,2.56l-.23-1.34c3.64-.11,4,3.55,5.95,2.51,1.88,2.26,5.05,5.1,2.53,6.76l-4.83-.95c1.39.36,3.22-.63,2-1.67,1.82,1.53-7.37,1.54-1.49,4.35l3.71-.61c1.91,2.27,6.34,5.68,4.29,7.21,4.91.46-.4-.61,5.44-.42-7.12-.76,1.75-4.94-5.93-5.07,6.73.41,3.39-1.7,9.33-2-1.58-.39-3.17-.2-1.93-1.63a10.22,10.22,0,0,1-1.26-.76.41.41,0,0,1,.15-.07l-.21,0c-.21-.14-.26-.16-.07,0a7.28,7.28,0,0,1-2.61.15c-3.33-1.85-2.46-4.44-4.05-5.87,1-.76,1.67.93,3.48.88l-2.38-2.13c3.49.87,6.49-.93,7.84,2l.76-2c2.29-.66,3.55-2.11,2.41-3.57,1-.76-3.1-3.58-.65-1.94l-1.19-3.88.87.22c1.38-3.07-3.78-8.27,3.52-10.11-.55-1.34-1.29-2.76.21-4.28l3.09.52c-.63-1.69,4.21-3.28,1.28-4.79,8.46.87,3.73-6.2,5.87-8.22l-3.87-1.24c.71-1.61.08-3.55-.86-6.09l-3.48-.88c-2.29-2.63,3.81-3.9,4.29-6.84,1.26.58.7,1.2-.25,1.47,8.77-1.09-3.52-8.82,3.05-10.22-1-1.14-.44-1.57.58-1.85,0,.08,0,.16.13.25a.74.74,0,0,0,.14-.31c.69-.16,1.48-.3,2.14-.52a8.26,8.26,0,0,0-2.1.35,4.8,4.8,0,0,0-.66-2.77l3.8.72c0-.08,0-.14,0-.23,1.61-.46-1.55-1.21-4.46-1.58a9.36,9.36,0,0,0-1.88-1.82c6.17,1.07-1.33-2.9,5.31-2-2.92-1.51-1-5.11-7.41-7.52.87.23,1.35.09,1.26.58,1-.76,2.07-1.52.49-2.94l4.82,1-5.68-4c3.25-.45,5.08-.49,8.3,1.88-4.63-4.77-1.33-3.15-6.05-7.44l3,1c.16-1-3.45-3.71-.77-3.53,6.4-.39,3.93-10.24,10.92-14.07-9.25-1.62,4.75-1.32-2.1-3.61,2.2.31,3.63-.08,5.19,1.34-1.23-3.39,4.61-3.15-.65-6.82,2.22.32,2.91,1.52,4.26,1.62-.39-.36-1.58-1.43-.23-1.34s1.65.94,2.44,1.65c.5-2.93-5.93-5.18-12-7.22,3.32-.57,3.13-1.41-.56-3.65,2.15.1,4.49-.1,4.67,1.87.6-.9,4.75-5.16-.11-6.74,1.33.07.78-1.27.29-1.7,1-2.13,1.46-2.2,1.66-4.52l-1,.37c-5.65-2.65-.77-2.22-.95-4.19l.58.23c5.49-2.74-1.5-2.35,4.57-4.86l-3.74-.89c-7.79-2.77,5.72-2.11,3.4-5.34l-2.35.2c-2.32-2.08,11.81-.26,13.18-1.23.77-.06,1,.77,1.36,1.31,5.67-1.89-4.68-1.89-5.05-4.7,2.74.34,6.42,2.6,7.41,1.08,2.35-.19-7-7.38-1.3-8.13-2.15-.11-4.29-.22-5.45-1.82-.17-2,9-2.45,3.19-6a4.73,4.73,0,0,1,1.67.16c-1.22-1.83-1.37-5.18-4.54-7,13.05,2.63-3.61-10.24,8.07-6.63l.63-4.32,1.16.47c1.58-2.4-.93-4.19-3.45-6,1-.37,1.94.41,2.53.65,3.55-3.13,3.17-3.66-1.66-8.69l3.89.83c-1.93-1.55,7.66-3.74,4.41-8.88a4.54,4.54,0,0,1,1.57.94c-3.14-5.63,13.64-6.93.33-12.75l-2.53-3.86c-2.19,3.3-5.82-2.4-8.57-1.61-.36-1.68,5.31-2.4,5.47-.43l-.77.06c7,2.87,3.94-3.72,8.81-2.11,1.85-7.25,8-13,10.39-19.56l-5.83-1,1.05-2.23c1.49-.21,4.63.54,3.88,2.13,3.44.11-1.79-3.62-3-4,3.27-2.55,6.11,3.3,6.56,2.34v-1.48l-.75.1c-1.94-1.81-4.33-2.66-3.44-4.58,1.52-.91,3.65.43,4,0,.41.13.64,0,.41-.71l1.39-2.79-4.78-.21c-1.77-2,1.1-2.69-4.32-2.89,8.32.41,6.19-10.1,9-10.57-2.63-2.83-2-4.61-.92-6.72-1.1.27-6.15-1-4.94-2.69,10,3.92,5.54-2.13,13.39-1.36-5.32-.15.51-5.85-7.1-5.85,1.33-1.34,3.86,1.11,6.65.65-2.77-5.07,5.22-7.6,5.38-12.74-1.33-.5-3.62-.35-5.3-2l7.49-.36c-.36-1.14-7.47-3.31-2.27-3.54-1.21-.12-3-.3-3.25-1.06,9.45-7.16.63-20.58,15.9-26-3,.44-3-.49-2.78-1.49-.82.43-3.3-1.07-5.16-1.53l6.3-2.31c-4.82-2.33,1-4.32-3.69-6.27l.47,1.52c-5.17-3.47-13.38-1.73-20.61-4.3,5.88,3.92-11.13,1.84-2.85,7.83-1.7.2-2.17-1.32-4-1.5,2.88,1.77,3.23,2.9,1.28,4.18l-.71-.44c-.78,5.09-4.54,6.19-8.32,11l3.74.74c-.85,1-2.06.91-3.14,1.17,5.05,3.08,1.35-3.19,7-.05-7.84-.78-2.72,8.22-11.41,6.63-.62,1.78,4.35.79,3.73,2.58L519.3,277l2.77,1.38c-.86,1-3.88.73-5.8.17.32-.22-.28-1-.35-1.35-3.15.69-.46,4.61-1.49,4.87l1.94-1.3c.56,5.59-4.32,10.66-1.21,16.87l1.82.17c2,4.63-2.79,2.32-2.58,6.77l-.36-.28c1.45,1.34,2,2.67,1.44,3.7-1.69-1.63-4.48.68-6.28-1.34,2.15,5,2.05,2.78,7.57,7.37l-3-.29c2.29,1.69,3.62,2.19,3.72,4.41-1.91-2.39-4.71-.08-7.35-2.92-7.51,2.24,4.31,8.17-5.34,7.25,7.23,4.37,5.47-2.26,6.82-.66,2.84-.09,5.36,3.42,4.17,4.49-.6,1.27-10.75-.87-11.64,2.54.14-.33-.45-.53-.31-.86-2.39.64,1.94,3.31-1.79,3.84,4.48,2.35-.89,1.92,5.07,4.05l-.44-3.51c1,2.24,7.61,6.08,3.27,7.89a12.71,12.71,0,0,1-3.19-2.83c-2.05.28.67,2-1.43,2.29-6-2.14-.15-4.16-4.17-7.47-2.84.11,3.27,4.91-3,1.93,7.91,4-2.09,3,3.57,7.24l-3.58-1.28c.46.54,1.94,1.82,1.64,2.45L495.45,340c3.44,3.09-4.62,2.46-3,4.91,1-3.74,4.63.52,7.76-.22,3.44,6.07-10.3-.32-10.14,5.33-.3-.85,3-1.92,4.33-.32a8.76,8.76,0,0,1-4.94,1.6c-.29,3.63,3.9.64,5.68,2.78-4.77-.22,1.29,2.22,2.24,4.14l-3.69-1.13c-3.56,3.12,7.37,3.4,3.43,6L492.48,360l.76,2.22-4.08-1.67c2.5,2.93,1.51,3.3-.27,4.86,2.73.36,6.61,2.32,6.2,4.07-2.55.49-3.3-1.74-3.53.85-2.13-1.26-4.84-2.76-1.12-2.76-1.17-.48-2.14-1.26-3.3-1.74-2.91.48-1.55,3-1.79,3.87a1.63,1.63,0,0,1,1.15-.68l4,5.09a4.64,4.64,0,0,1-3.49-1.43c.19.84,1.73,1.86,1.72,3-2.91-1.19-6-2.08-7-4l2.3,4.37c-1.38-.17-4.12.62-5.08-.16-2.34,1.32,4.41,6.35,1.33,8.1a2.77,2.77,0,0,1,1.28,1.39c-1.39,2.1-5.7,3-2.43,7l-5.86-.09c.56,2.52,7.43,0,8.35,4.17.94,3-4.87-.47-6.64,0,2.32,2.1,7.17,6,2.08,7C476.33,402.32,477.31,402,477.14,401.12Zm-5.71,27.23c-.62-.75-2.7-2.5-.41-2.21C475.08,428,472.91,427.85,471.43,428.35Zm-3.3,43c-1.1-.75-.32-1.16,1.28-1.4C469.57,470.52,469.27,471,468.13,471.35Zm-7.51,120-.17-.1C462.23,590.48,461.54,590.72,460.62,591.31Zm-2.31,1.92a2.59,2.59,0,0,0,1.51.57c-.88-.44-.79-1-.35-1.53C458.45,592.16,457.69,592.27,458.31,593.23Zm75.56-255.52-1.11.16C532,336.5,532.9,337.09,533.87,337.71Z" transform="translate(-0.81)"/><path class="cls-1" d="M464.45,465.26a12.36,12.36,0,0,1,2.08.38A2.4,2.4,0,0,0,464.45,465.26Z" transform="translate(-0.81)"/><path class="cls-1" d="M480.26,384.05s0-.05.07-.07a5.37,5.37,0,0,0-.65-.29Z" transform="translate(-0.81)"/><path class="cls-1" d="M437.73,547.1a4.54,4.54,0,0,1,2.19-.38C439,546.42,438.19,546.42,437.73,547.1Z" transform="translate(-0.81)"/><path class="cls-1" d="M460.94,607.68l-.52-1.81c0,.8-.92.82-1.62,1C459.68,607.11,461,607.19,460.94,607.68Z" transform="translate(-0.81)"/><path class="cls-1" d="M434.15,614.28c.39.36-.08.49.31.84l1.74.44A1.32,1.32,0,0,0,434.15,614.28Z" transform="translate(-0.81)"/><path class="cls-1" d="M448.21,605.52c-3.15-.79-2.37.48-2.1,1.72,0-.07,0-.14.05-.19C450.43,608.63,449.32,607.07,448.21,605.52Z" transform="translate(-0.81)"/><path class="cls-1" d="M446.14,607.51a1.25,1.25,0,0,1-.21,1C447.64,609.16,446.42,608.23,446.14,607.51Z" transform="translate(-0.81)"/><path class="cls-1" d="M459.5,596.85c-.95.27,3.89,1.48,2.54,1.4C465.84,600,458.22,593.47,459.5,596.85Z" transform="translate(-0.81)"/><polygon class="cls-1" points="436.88 603.4 440.84 604.13 437.91 602.63 436.88 603.4"/><path class="cls-1" d="M443,595.77l-1.56,1.4a1.73,1.73,0,0,1,1.17.84C443,597,444.12,596.06,443,595.77Z" transform="translate(-0.81)"/><path class="cls-1" d="M442.58,598a1.22,1.22,0,0,0,.25,1.56A2.44,2.44,0,0,0,442.58,598Z" transform="translate(-0.81)"/><polygon class="cls-1" points="436.41 600.73 437.36 600.46 437.99 599.33 436.41 600.73"/><path class="cls-1" d="M449.07,577.61l-.55-2.18c-1.26-.58-2.22-.31-1.9.54C447.41,576.69,447.72,577.53,449.07,577.61Z" transform="translate(-0.81)"/><path class="cls-1" d="M436.89,580.18a9.33,9.33,0,0,1,3.16,0l-4.75-1.45Z" transform="translate(-0.81)"/><path class="cls-1" d="M437.37,574.41c-1.27-.57-3-3.82-3.4-1.37C435.23,573.62,435.78,575.81,437.37,574.41Z" transform="translate(-0.81)"/><polygon class="cls-1" points="450.84 548.07 450.77 548.56 458.6 550.79 450.84 548.07"/><path class="cls-1" d="M440.28,517.76c-2.52,1.66,4.67,2,1.74,3.26,1.69,1.07,2.39-1.06,3.83-.06C444.3,519.05,445.6,518.67,440.28,517.76Z" transform="translate(-0.81)"/><path class="cls-1" d="M445.85,521a7.48,7.48,0,0,0,1,1A4.08,4.08,0,0,0,445.85,521Z" transform="translate(-0.81)"/><polygon class="cls-1" points="564.21 252.84 566.28 251.95 563.38 252.02 564.21 252.84"/><path class="cls-1" d="M560.12,248.29l5,1.25-4.2-2.28C561.09,247.65,561.32,248.41,560.12,248.29Z" transform="translate(-0.81)"/><path class="cls-1" d="M460.23,429.26l1.16.47c1.36.17,1.55-.13,2-.74Z" transform="translate(-0.81)"/><polygon class="cls-1" points="469 411.14 468.8 411.44 473.48 412.19 469 411.14"/><path class="cls-1" d="M469,393.23c-.4.6.37,1.68,0,2.29C468.62,393.83,474.67,394.77,469,393.23Z" transform="translate(-0.81)"/><path class="cls-1" d="M671.42,374.37c.61.24.11-3.08.14-3.69C670.65,371.51,671.52,375.23,671.42,374.37Z" transform="translate(-0.81)"/><polygon class="cls-1" points="661.68 382.84 661.73 381.46 660.62 384.94 661.68 382.84"/><path class="cls-1" d="M653.5,383.62c1.41,5.6,3.17-1.22,5,.65l.39,1.28.29-4.65C657.26,381.81,655,385.08,653.5,383.62Z" transform="translate(-0.81)"/><path class="cls-1" d="M647.49,371.83c.52,2.17-.85,2,1.19.57-.13-.23-.18-.37-.26-.54A2,2,0,0,1,647.49,371.83Z" transform="translate(-0.81)"/><path class="cls-1" d="M648.42,371.86c.94-.26-.81-1.79,0,0Z" transform="translate(-0.81)"/><path class="cls-1" d="M644.16,373.57l1.05-2.1c-.39-1.28-1.54-1.46-1.22-2.45C642.81,370.23,643.21,371.5,644.16,373.57Z" transform="translate(-0.81)"/><path class="cls-1" d="M643.4,377.84l.56-.9C643.79,376.4,643.6,376.23,643.4,377.84Z" transform="translate(-0.81)"/><path class="cls-1" d="M645.15,375l-1.19,1.9c.27.89.48,2.74.57-.7C644.59,377.93,644.69,376.29,645.15,375Z" transform="translate(-0.81)"/><path class="cls-1" d="M646,375.82c.83,1.17,1.81,1.85.75,3.94C649.08,378.74,648.33,374.78,646,375.82Z" transform="translate(-0.81)"/><path class="cls-1" d="M653.62,389.54l1.1,1.58.62-2C655,390.12,653.39,387.77,653.62,389.54Z" transform="translate(-0.81)"/><path class="cls-1" d="M636.05,371.43c.05,1.22.77,3.18,1,4.72l.78-1.49C637.29,373.88,636.31,373.21,636.05,371.43Z" transform="translate(-0.81)"/><path class="cls-1" d="M637.07,376.15l-1.16,2.21C637.17,378.48,637.29,377.47,637.07,376.15Z" transform="translate(-0.81)"/><polygon class="cls-1" points="643.01 384.17 644.83 379.58 642.59 384.28 643.01 384.17"/><polygon class="cls-1" points="629.94 371.84 630.43 368.96 629.49 373.34 629.94 371.84"/><path class="cls-1" d="M627.3,372.72c.33-2.38-1.23-3.82-.77-5.32-.91.52-1.5,2.6-2,4.47C625.16,370.79,626,371,627.3,372.72Z" transform="translate(-0.81)"/><path class="cls-1" d="M623.56,374.61a16.79,16.79,0,0,0,.93-2.74A8.26,8.26,0,0,0,623.56,374.61Z" transform="translate(-0.81)"/><path class="cls-1" d="M633.5,378c-.19-.72-.6-2.61-1.46-3.33L633,378Z" transform="translate(-0.81)"/><path class="cls-1" d="M633,378.12l0-.1c-.6,0-1,0-1.2-.06C631.91,378,632.28,378,633,378.12Z" transform="translate(-0.81)"/><path class="cls-1" d="M633.63,378h-.13C633.58,378.34,633.63,378.44,633.63,378Z" transform="translate(-0.81)"/><path class="cls-1" d="M639.9,381.46c-.62,2-2.09,4.2-.15,6.93C640.08,386,639,384.45,639.9,381.46Z" transform="translate(-0.81)"/><path class="cls-1" d="M634.76,382.19l1.55.62a7.77,7.77,0,0,1-.23-3.16Z" transform="translate(-0.81)"/><polygon class="cls-1" points="633.35 383.34 633.95 382.19 633.38 381.96 633.35 383.34"/><path class="cls-1" d="M626.42,377.51a2.68,2.68,0,0,1-1.9,2.08,4.06,4.06,0,0,0,2.64.73C627.16,379.25,627.31,377.29,626.42,377.51Z" transform="translate(-0.81)"/><path class="cls-1" d="M629.64,378.11c0,.08-.09.12-.12.21C629.64,378.6,629.72,378.68,629.64,378.11Z" transform="translate(-0.81)"/><path class="cls-1" d="M616.82,380.42l.2.61,0-.59Z" transform="translate(-0.81)"/><path class="cls-1" d="M627.37,380.94c.7.59,1-.28,1.23-1.36a2.85,2.85,0,0,1-1.44.74C627.16,380.82,627.19,381.13,627.37,380.94Z" transform="translate(-0.81)"/><path class="cls-1" d="M621.58,376.44a11.88,11.88,0,0,0,1.3,1.75C622.44,377.15,621.6,375.54,621.58,376.44Z" transform="translate(-0.81)"/><path class="cls-1" d="M629.21,377.4a.77.77,0,0,1,.07-.16C629,376.54,629.06,376.89,629.21,377.4Z" transform="translate(-0.81)"/><path class="cls-1" d="M629.21,377.4a10.24,10.24,0,0,0-.61,2.18,4,4,0,0,0,.92-1.26A8.2,8.2,0,0,1,629.21,377.4Z" transform="translate(-0.81)"/><path class="cls-1" d="M617,402.49c-.26-3.17,1.05-6.26,2.85-3,1.12-2.52-1-12.77-2.86-18.42a6.5,6.5,0,0,1-1,4.66c.7,1.66,3.66,3.67,2.77,6.65-1.72,1.83-1.69-.94-2.81-2.49,1.24,3.82-1.76,6-.67,11.71l1.43-2.23C616.91,400.22,616.47,401.72,617,402.49Z" transform="translate(-0.81)"/><path class="cls-1" d="M619.81,381l.55-.46c-.74-.47-1.37-1.67-2.55-4a7.18,7.18,0,0,0-.83,3.9l3,.11Z" transform="translate(-0.81)"/><path class="cls-1" d="M623,380.27c-.08,3.48-1.34,5.1,0,8.71,1.72-.44.9-3,1.78-4.6-2.72,1.16.59-2-1.66-3.72a3.11,3.11,0,0,1,1.42-1.07,8.93,8.93,0,0,1-1.64-1.4l.09.2h0v.05c.17.42.24.67.07.44,0,0,0,.06,0,.08a11.51,11.51,0,0,1,0,1.3c-.9-.61-.23-.87,0-1.3,0-.17,0-.34,0-.52l0,0-2.61,2.19C621,381,621.75,380.81,623,380.27Z" transform="translate(-0.81)"/><path class="cls-1" d="M639,395.92a2.81,2.81,0,0,1-.17-.79C638.71,395.57,638.67,395.86,639,395.92Z" transform="translate(-0.81)"/><path class="cls-1" d="M637.65,394c.15-.5.18-1.89.88-1.61.68,1,.17,1.65.32,2.77.3-.95,1.14-2.6-.29-4.14l-.15.49c-1.25-1.07-3.17-5.19-3-5.69A57,57,0,0,0,637.65,394Z" transform="translate(-0.81)"/><path class="cls-1" d="M630.38,388l-2.16,1.94,1.52,2.83-.26-1.77C630.89,391.54,630.36,389.38,630.38,388Z" transform="translate(-0.81)"/><polygon class="cls-1" points="615.55 378.75 615.44 375.1 614.67 380.36 615.55 378.75"/><polygon class="cls-1" points="612.54 379.54 612.28 376.38 611.7 378.38 612.54 379.54"/><path class="cls-1" d="M449.61,445.34l-.49,1A2.55,2.55,0,0,0,449.61,445.34Z" transform="translate(-0.81)"/><path class="cls-1" d="M454.5,444.57l-.19-1.56C454.26,443.9,454.29,444.54,454.5,444.57Z" transform="translate(-0.81)"/><path class="cls-1" d="M538.48,390c-1.45-2.76-3.27-7.12-2.6-3.62l.83,3.38C537.32,389.06,537.91,389.35,538.48,390Z" transform="translate(-0.81)"/><path class="cls-1" d="M491.07,418.92l.47,1c0-1.22.06-2.36.09-3.39Z" transform="translate(-0.81)"/><path class="cls-1" d="M492.91,433.18l-1.69-2A7.28,7.28,0,0,0,492.91,433.18Z" transform="translate(-0.81)"/><path class="cls-1" d="M424,454.46l0,3.62C425.13,457.8,424.22,456.18,424,454.46Z" transform="translate(-0.81)"/><path class="cls-1" d="M582.23,384.72c-1.05-1.24-1.81-1.71-2.44-1.8C581.1,384.76,582.33,387.61,582.23,384.72Z" transform="translate(-0.81)"/><path class="cls-1" d="M444.27,408.84a3.49,3.49,0,0,0-.17,2.19A2.93,2.93,0,0,0,444.27,408.84Z" transform="translate(-0.81)"/><path class="cls-1" d="M577.28,383.26c.2.32.38.48.57.75.56-.66,1.14-1.21,1.94-1.09C578.82,381.55,577.81,380.76,577.28,383.26Z" transform="translate(-0.81)"/><path class="cls-1" d="M331.83,476.24a3,3,0,0,1-.35-.3C331.65,476.38,331.74,476.37,331.83,476.24Z" transform="translate(-0.81)"/><path class="cls-1" d="M289.9,459.94a3,3,0,0,1,.93-1C290.5,458.87,290.18,459.13,289.9,459.94Z" transform="translate(-0.81)"/><path class="cls-1" d="M600.87,379.52c.62-.3,0-.39,0,0Z" transform="translate(-0.81)"/><path class="cls-1" d="M605.67,392.77a5.2,5.2,0,0,0,0,1.7A6.85,6.85,0,0,1,605.67,392.77Z" transform="translate(-0.81)"/><path class="cls-1" d="M573.79,405.55h-.06C574,406.19,574,406.07,573.79,405.55Z" transform="translate(-0.81)"/><path class="cls-1" d="M602,381a3.73,3.73,0,0,0-.95-.92A4.17,4.17,0,0,0,602,381Z" transform="translate(-0.81)"/><path class="cls-1" d="M601.7,379.36c.25.12.43.19.61.26C602.32,379,602.21,378.69,601.7,379.36Z" transform="translate(-0.81)"/><path class="cls-1" d="M600,379.82a1.44,1.44,0,0,1,1.1.23.82.82,0,0,1-.21-.53A6.74,6.74,0,0,1,600,379.82Z" transform="translate(-0.81)"/><path class="cls-1" d="M376.87,452.66c-.06-.1-.13-.16-.21-.29C376.37,453.92,376.59,453.64,376.87,452.66Z" transform="translate(-0.81)"/><path class="cls-1" d="M527.46,428.25s0-.13,0-.17l-.12-.12Z" transform="translate(-0.81)"/><path class="cls-1" d="M525.6,431.17c.28-4.43.91-4,1.79-3.21L525,418.21Z" transform="translate(-0.81)"/><path class="cls-1" d="M438.22,448.69l2.21,2.74c-.86,5.41-2.6,4-.23,7.95-2-10.69,5.9-2.34,3.94-13l1.5,2c-.32,0-.24.59-.55.55,3.06,4.68-.07-8,2.86-7a3.27,3.27,0,0,1,1.66,3.44l1.5-3c.64.09.86,2,.23,1.88l2.94-1.47,0,.31a48.16,48.16,0,0,1,.88-5.73c1.09,1.38-.17,1.21.29,2.5l1.22-2.92c1.24,2.63.34,5.59-.92,5.42,3.71,10.33.9-2.95,5.59,2.59L460,446.53c2.23,5.84,3.06,3.41,5.62,6.82-.81-1.89-5.51-8.79-4.17-11.81.68.71,1.45.95,2-1.39.75,3.79,1.55,2.67,2.73,2.21l.89,5c1.05-1.71.45-4.24.8-6.66,1.57.21,2.62,4,3.6,7.25,2.52.34-2.83-5.92-.21-7.42,2.35,1.55,3.34-.75,5.14-4.2,1.71,1.48.34,3.12,1.1,4.47l.48-4.25c.32.05.45,1.3.52,1.93.74-1.75-.86-5,.52-6.71-.59-5.63,4.84,7.47,5.69.81.76,1.34.33,3.13.84,5.05,2-4.65,1.81-3.45,3.08-9.43l2.54,3c-2.11-3.52-1.1-8.32-.15-12.28-.84-1.74-1.56-3.26-2-4l2.08-3.16c.46.78.51,2.56.47,4.73.1-.44.19-.88.25-1.29,1.25,1.7,1.29,4.69,1.14,7.62-.49-.94-1-1.94-1.48-2.94a41,41,0,0,0,.6,9.59,2.77,2.77,0,0,1,.59-1.51,6.71,6.71,0,0,0,.18,2.11c.18.51.24-.65.43-2l1.58,5.52-.26-2.26,3.95,2.93c1.38-6.07,2-14.77,5.4-17.76-.23,4.29,1,6.77,1.75,11.66-1.93-5-2.55,2.71-4.68,2,1.11.37,1.29,2.74,1.18,3.59l2.67-5.32c.61,4,1.26,2.87,2.45,4.36-2.05-7.78,1.7-5.71,2.71-8.36.54,2.63.66,5.4-1.18,5.05,2.93,5.63.9-9.69,3.64-4.95-.42.13-.71-.24-.65,1.14.59-2.52,3.33-1.06,3.15,1.35l-.42.12c3,.47,8.58-1.37,7.9-8.16.17.87,1,8.16,1,9.54l1.37-23.42c.49,5.84,4.41,19.31,2.6,22.95.8.71,1.78,1.54,2.87-.72-.59-.75-2.48-8.16-1.94-8.79,2.75,6.15,1.75,3.25,4.74,8.39-.89-1.13-1.57-10.3-.43-10.18,0,1.38,1.51,8.92,1.26,9.92l1.3-9.31c-.43,1.71,1.06,7.55,2.06,10-.55-1.7,2.36-.21,2.94-1.2l-1.47-1.88c3.26.86,1.08-13,4.19-13-.09,1.89.83,11.44,2.54,12.33,0-4.66-.2-22.37,2-26.29l.91,2.53,1.63-3.28c-.28,7.05-1.73,22-2.83,27.92,1.46,1.89.79,3,2.46,2.53,1,2.36-.37,3.84-.85,4.06l4.2,1c-1-5.29,2.24-5.78,1.43-10.19L551,428c-1-5.28.23-15.46,3.21-15,1,2,.86,9.55,1.18,11.32.1-1.89,2.16-3.9,2.61-2.64l-.77,3c1.85,1.77,1.53-7.43,4.15-2.63.7.24,2.93,6.56,2.59,3.4-1.93-5.92-4.86-24.68-4.8-29.35.29.37,4.29,5.33,5.47,8.22,1.75,4.62,0,11.58,1.49,15.55a12.81,12.81,0,0,1,.34-4c.86,1.14.36,4.54,1.75,3.68-.51-5.43,3.09,0,.06-4.66,1.24-1.75,1.71.9,3.39.42-1-3.41-.12-12.09,1.14-13.84a17.66,17.66,0,0,0,1,3.92c3.07.08,5,2.29,7.81,2,.44,1.28,2,2.68,1.73,5.09.28-1,.4-2.9,1.25-3.14,2.28,4.46-1.83,1,.19,6.44-.31-3.16,1.65-4.64,2.62-6.75-1-4.81-3-.57-3.93,1.55-.9-6.69.32-14,2.86-17.45,2.12-2,1.58,4.19,1.86,3.19,4.54.6,2.24-12.18,6.52-7.82,2,4.07,1.13,8.47,1.84,11.51-1.69,1.86-3.26-2.33-4.52-2l1.84,1.81c-.42,1.5-1.55,2.74-2.4,1.6,1.7,3.68,7.49-.25,11.3,2.91.43-1.5,1.28-3.11.58-4.77l-1,.72c-1.41-3.32,1.43-5-.12-6.44,1.14-2.6,2.29-6.6,4.56-4.9l1,4.83c-.21-1.42-1.68-2.74-2.07-1.19.59-2.27,3.9,6.22,4.06-.27l-1.82-3.21c1.15-2.62,2.33-8,4.32-6.69-1.39-4.71-.35.6-2.3-4.87,1.94,6.87-4.66.26-2,7.4-2.1-6.37-2.61-2.49-5-7.85.25,1.6,1,3-.63,2.39a11.64,11.64,0,0,1-.16,1.46L602,381c0,.06.07.13.11.18,0,.25,0,.3,0,.06a7.67,7.67,0,0,1,1.07,2.35c-.3,3.78-2.72,3.95-3.3,6-1-.66.15-1.89-.55-3.54l-.86,3c-.56-3.55-3.13-5.64-1.27-8l-1.93.07c-1.37-1.85-3-2.44-3.78-.82-1-.65-1.77,4.24-1.35,1.35l-2.7,2.6-.14-.89c-3-.06-5.29,6.69-9.52.7-.87,1-1.75,2.27-3.54,1.49l-.74-3c-1.13,1.25-4.26-2.54-4.36.74-2.53-8.1-6.45-.95-8.9-2.1l.49,4c-1.58,0-2.89,1.33-4.57,3.23l.63,3.53c-1.22,3.16-4.59-1.9-7.14-1.14,0-1.39.68-1.13,1.27-.38-4.3-7.55-5.69,6.8-9.38,1.38-.51,1.4-1.08,1-1.71.22.06,0,.11-.1.14-.21a.55.55,0,0,0-.29,0c-.41-.56-.83-1.22-1.27-1.73a8.17,8.17,0,0,0,1.12,1.77,4.15,4.15,0,0,0-2,1.75l-.93-3.76c-.05.06-.11.06-.17.14-1-1.28-.35,1.9.51,4.7a9.56,9.56,0,0,0-.71,2.46c-1.59-6-1.78,2.41-3.68-4,0,3.28-3.67,3-3,9.84-.17-.88-.47-1.26,0-1.38-1-.63-2-1.25-2.53.77l-1.15-4.78-.91,6.81c-1.66-2.76-2.43-4.39-1.85-8.3-1.93,6.18-2,2.53-3.46,8.6l-.39-3.15c-.85.27-1.54,4.69-2.48,2.19-2.92-5.61-9.69.77-15.6-3.9,2.55,9-3-3.71-2,3.45-.67-2.12-1.57-3.23-1.09-5.26-2.17,2.58-4.42-2.78-5.11,3.54-.68-2.13,0-3.28-.51-4.53-.12.51-.47,2-1,.78s0-1.88.28-2.9c-2.53.82-1.6,7.56-.67,13.87-1.84-2.74-2.42-2.21-2.62,2.08-.83-2-2-4-.5-5-1-.15-6.06-2-5.24,3-.51-1.22-1.32-.14-1.45.49-2.08.07-2.34-.35-4.24.5l.7.71c.34,6.21-1.39,1.66-2.86,2.69l-.06-.63c-4.49-3.69-1.19,2.39-5.75-1.93l.91,3.73c1.2,8.18-4.11-4.2-5.62-.68l1.17,2c-.61,3-5.31-10.4-6.67-11.19-.38-.65.18-1.2.44-1.79-4-4.2.56,5-1.47,6.6-.93-2.59-.78-6.88-2.39-7.08-1.19-2-2.71,9.5-5.78,4.8.86,2,1.72,3.92,1,5.66-1.45,1-5.87-6.9-6-.13a5.3,5.3,0,0,1-.61-1.55c-.89,1.91-3.41,3.57-3.43,7.22-3.78-12.75-6.28,7.87-8.72-4.11l-3.62,1.41-.16-1.24c-2.56-.28-2.81,2.77-3,5.82-.72-.7-.56-1.9-.64-2.54-4-1.66-4.26-1.07-5.91,5.51l-1.14-3.81c-.3,2.42-6.38-5-8.83.26a5.27,5.27,0,0,1,0-1.82c-2.84,5.4-11.64-8.66-9.9,5.74l-1.76,4c3.53.36.89,6.23,2.77,8.26-1.1,1.11-4.29-3.5-2.87-4.58l.41.65c-1.08-7.47-4.67-1.69-5.72-6.71-6.37,1.87-13.61-.73-19.76.38l2.06,5.53-2.2.18c-.87-1.19-1.81-4.28-.24-4.4-1.57-3-1.89,3.31-1.64,4.55-3.52-1.58-.44-6.91-1.38-6.82l-1.14.72.44.6c-.44,2.56.08,5-1.82,5.22-1.44-.86-1.46-3.36-2-3.47-.1-.41-.3-.55-.74,0l-2.82.19,2.2,4.21c-.63,2.5-2.58.41-.06,5.16-1.89-3.68-4.59-3.74-7-3.12s-4.6,1.92-5.5.87c-.77,3.72-2.42,4.14-4.58,4.34.79.78,2.56,5.66.65,5.58-2.47-10.46-4.54-3.46-8.34-10.36,2.86,4.43-4.69,2.9-.37,9.11-1.74-.33-1.37-3.78-3.31-5.79-1.1,2.55-3.25,2.63-5.67,2.43s-5.09-.59-7,.93c.47,1.33,2,3,1.87,5.34-1.65-1.87-3.31-3.71-5-5.52-.62,1,2.43,7.8-1.1,4,.71,1,1.75,2.47,1.37,3.13-5.6-1.3-9.37,2.17-13.23,5a17.81,17.81,0,0,1-6.39,3.43,12.31,12.31,0,0,1-4.09.43,24.1,24.1,0,0,1-5.2-1c2.68,1.43,2.09,2.18,1.32,2.87.92.14,2,2.83,3.22,4.31-2.09-.66-4.23-1.29-6.42-1.87,1.29,2.31.52,3.08-.26,3.78s-1.55,1.38-.09,3.46l.4-1.51c1.23,2.85,3.81,5,6.57,7.34a46,46,0,0,1,8,7.82c-1.5-3.19.93-1.81,3.11-.75s4.12,1.81,2.45-2.9c1.35,1,1,2.31,2.24,3.61-1.33-3.05-1-4.06,1-3.61l.31.77a5.64,5.64,0,0,1,4.79-1.55c.89.05,1.81.16,2.84.28a22.41,22.41,0,0,0,3.37.18l-2.06-3.2c1.09,0,1.82,1,2.64,1.59-1.63-5.64-2.54,1-4.59-5.1,2.39,3.1,3.88,2.3,5.49,1.74s3.17-1,5.38,2.78c1.38-.54-2.22-3.81-.82-4.37l1.34,2-.89-2.95c1.12.06,2.75,2.58,3.57,4.41-.31-.12-.38.79-.54,1,1.12,1,1.82.47,2.34-.28s.92-1.63,1.29-1.29l-1.89-.83c1.49-1.76,3.66-2.46,5.79-3.32a10.69,10.69,0,0,0,3-1.73,7.94,7.94,0,0,0,2.31-3.25L343.8,464c2-4.16,3,1.05,5.88-1.45V463c.15-1.91.78-3.06,1.77-3.14-.25,2.25,2.77,3.43,2.31,6,2.32-4.37.84-3.15,1.24-10.19l1.33,2.71c0-2.8-.28-4.18,1.26-5.39-.75,2.84,2.29,4.05,1.6,7.73,2.66,2.65,3.53.7,4.31-.81s1.42-2.59,3.43,1.79c-.37-8.38-4.28-3.59-3.79-5.54-1.47-2.39-.16-6.3,1.21-5.8,1.23-.13,4.58,9.67,7.47,8.79-.3,0-.17.65-.47.68,1.6,1.76,1.47-3.29,3.64-.31-.41-5,1.83-.15.57-6.36l-2.39,2.08c1.15-2,.88-9.53,4.28-6.66a13.35,13.35,0,0,1-.58,4.15c1.18,1.64,1.15-1.55,2.38.13,1.23,6.21-3,2.14-3.52,7.23,1.42,2.41,2-5.21,2.82,1.66-.85-8.77,3.17.38,3.66-6.58l.74,3.72c.18-.65.44-2.55,1.05-2.59l.06,5c.68-4.47,4,2.84,5,.25-3.26.88-1.78-4.28-3.8-6.66,2.91-5.89,4.6,9.13,8.71,6.3-.49.66-2.82-1.69-2.25-3.63a9,9,0,0,1,3.49,3.54c2.82-1.47-1.34-3.7-.59-6.28,2.07,4.27,1.06-2.18,2-3.93l.87,3.76c4,1.64-.87-8.05,2.9-5.82l-.13,5.51,1.31-1.71.64,4.36c1-3.57,1.77-2.88,3.75-2.06-1-2.55-1.3-6.88.2-7.34,1.54,2,.21,3.71,2.26,2.69,0,2.46.16,5.54-1.55,2.29.17,1.25,0,2.46.22,3.7,1.69,2.32,2.93,0,3.71-.25a1.48,1.48,0,0,1-1-.69l2-5.92a5.32,5.32,0,0,1,.52,3.73c.55-.55.6-2.39,1.46-2.92.44,3.12,1.19,6.27.19,8l2.23-4.07c.49,1.29,2.33,3.33,2.19,4.54,2,1.45,2.76-6.82,5.47-4.91a2.86,2.86,0,0,1,.46-1.77c2.21.25,4.83,3.62,6.39-1.1l2.54,5.2c1.65-1.66-3.34-6.53-.59-9.29,1.89-2.24,1.83,4.51,2.94,5.88.54-3,1.33-9.06,4.33-5C439.48,448.86,438.77,448.15,438.22,448.69Zm23.18-7.21c-.3.89-.74,3.52-1.51,1.35C459.56,438.39,460.37,440.38,461.4,441.48Zm34.5-15.87c-.13,1.31-.77.78-1.63-.55C494.65,424.67,495.17,424.72,495.9,425.61Zm98.25-42.1a1.23,1.23,0,0,0,0,.2C592.88,382.35,593.33,382.9,594.15,383.51Zm2.4,1.38a2.84,2.84,0,0,0-.09-1.61c0,1-.51,1.12-1.11.92C595.63,385.18,596,385.83,596.55,384.89ZM364,429.06l.67.87C364,431.25,364,430.21,364,429.06Z" transform="translate(-0.81)"/><path class="cls-1" d="M492.71,431.53a13.37,13.37,0,0,1-.57-2A2.69,2.69,0,0,0,492.71,431.53Z" transform="translate(-0.81)"/><path class="cls-1" d="M424,453.79s0,0-.08,0a5.53,5.53,0,0,0,.07.7Z" transform="translate(-0.81)"/><path class="cls-1" d="M567.29,421.83a4.93,4.93,0,0,1-1.14-1.85C566.26,420.91,566.58,421.68,567.29,421.83Z" transform="translate(-0.81)"/><path class="cls-1" d="M607.37,377l-1.28,1.17c.65-.28,1,.53,1.41,1.1C607.36,378.36,606.94,377.1,607.37,377Z" transform="translate(-0.81)"/><path class="cls-1" d="M622.29,399.28c.15-.49.42-.1.57-.6l-.26-1.77A1.37,1.37,0,0,0,622.29,399.28Z" transform="translate(-0.81)"/><path class="cls-1" d="M610.19,389.56c.5,3.21,1.24,2,2.15,1.29-.06,0-.11,0-.17,0C611.92,386.33,611.05,388,610.19,389.56Z" transform="translate(-0.81)"/><path class="cls-1" d="M612.55,390.71a1,1,0,0,1,.9-.19C613.35,388.7,613,390.19,612.55,390.71Z" transform="translate(-0.81)"/><path class="cls-1" d="M599.06,382.42c.57.77-.22-4.15.21-2.88C599.28,375.38,596.77,384.88,599.06,382.42Z" transform="translate(-0.81)"/><polygon class="cls-1" points="611.44 400.08 610.61 396.14 610.45 399.42 611.44 400.08"/><path class="cls-1" d="M604.19,398.09l1.7.92a1.86,1.86,0,0,1,.25-1.41C605.16,397.58,604,396.92,604.19,398.09Z" transform="translate(-0.81)"/><path class="cls-1" d="M606.14,397.6a1,1,0,0,0,1.17-.81A2,2,0,0,0,606.14,397.6Z" transform="translate(-0.81)"/><polygon class="cls-1" points="609.45 401.53 608.89 400.76 607.76 400.6 609.45 401.53"/><path class="cls-1" d="M587.34,399.45l-1.55,1.36c0,1.38.58,2.15,1.14,1.53C587.21,401.34,587.77,400.73,587.34,399.45Z" transform="translate(-0.81)"/><path class="cls-1" d="M593.88,409.67a10.42,10.42,0,0,1-1.13-2.93l.58,4.94Z" transform="translate(-0.81)"/><path class="cls-1" d="M589.1,411.46c0,1.39-1.94,4.24.16,3.65C589.25,413.74,590.8,412.38,589.1,411.46Z" transform="translate(-0.81)"/><polygon class="cls-1" points="561.95 408.7 562.37 408.58 561.15 400.52 561.95 408.7"/><path class="cls-1" d="M543.27,431.32c2.28,1.61-.3-5.05,1.87-2.92.17-2-1.77-1.74-1.55-3.46C542.7,427.14,541.9,426.11,543.27,431.32Z" transform="translate(-0.81)"/><path class="cls-1" d="M543.59,424.94a8.74,8.74,0,0,0,.43-1.31A4.26,4.26,0,0,0,543.59,424.94Z" transform="translate(-0.81)"/><polygon class="cls-1" points="282.02 459.83 279.74 459.5 282.25 460.99 282.02 459.83"/><path class="cls-1" d="M284.42,466.34l-3.63-3.75,2.35,4.15C283.25,466.36,283.46,465.6,284.42,466.34Z" transform="translate(-0.81)"/><path class="cls-1" d="M466.92,451.06l-.15-1.24c-.45-1.29-.76-1.33-1.4-1.43Z" transform="translate(-0.81)"/><polygon class="cls-1" points="448.22 450.65 448.53 450.69 447.05 446.2 448.22 450.65"/><path class="cls-1" d="M435.88,459.46c.63.07,1.1-1.11,1.73-1C436.51,459.53,434.52,453.77,435.88,459.46Z" transform="translate(-0.81)"/></g></svg>