<svg xmlns="http://www.w3.org/2000/svg" viewBox="0 0 808 808"><defs><style>.cls-1{fill:#1a1a1a;}.cls-1,.cls-2,.cls-3{stroke:#fff;stroke-miterlimit:10;stroke-width:8px;}.cls-2{fill:none;}.cls-3,.cls-4{fill:#fff;}</style></defs><g id="Layer_2" data-name="Layer 2"><circle class="cls-1" cx="404" cy="404" r="400"/><path class="cls-2" d="M769.8,46.92" transform="translate(4 4)"/><path class="cls-3" d="M221.16,258.6" transform="translate(4 4)"/><path class="cls-2" d="M498,259.32" transform="translate(4 4)"/><path class="cls-4" d="M466.68,198.3c1.73-.93-.84-3.2-1-3.86C463.55,197,467.27,199,466.68,198.3Z" transform="translate(4 4)"/><polygon class="cls-4" points="449.63 227.75 449.25 226.32 447.52 231.85 449.63 227.75"/><path class="cls-4" d="M421.76,242c5.74,2.79,8.06-7.37,13.54-9l1.5.5-.89-5.12C431.19,232.87,426.36,240.44,421.76,242Z" transform="translate(4 4)"/><path class="cls-4" d="M401.53,242c2.14,1.14-1.57,3.64,3.38-1.75a5.54,5.54,0,0,1-.88,0A21.36,21.36,0,0,1,401.53,242Z" transform="translate(4 4)"/><path class="cls-4" d="M404,240.26c2.4-2.07-2.79-.2,0,0Z" transform="translate(4 4)"/><path class="cls-4" d="M393.26,250.26l2.07-4.13c-1.49-.5-4.61,1.56-4.11,0C388.51,249.58,390,250.07,393.26,250.26Z" transform="translate(4 4)"/><path class="cls-4" d="M392.71,256l1.19-2C393.26,253.79,392.69,254,392.71,256Z" transform="translate(4 4)"/><path class="cls-4" d="M396.42,249.77,393.9,254c1,.35,2.23,1.77,1.26-1.8C395.91,253.75,395.62,251.91,396.42,249.77Z" transform="translate(4 4)"/><path class="cls-4" d="M399,248.86c2.61-.47,5.48-1.7,3.39,2.43C408.2,245.77,404.81,243.32,399,248.86Z" transform="translate(4 4)"/><path class="cls-4" d="M424.16,247.59l3.5-.58,1-3.17C428.13,245.41,422.92,246.29,424.16,247.59Z" transform="translate(4 4)"/><path class="cls-4" d="M371,264c.55,1.12,3.11,1.67,4.32,2.7l1.55-3C375.1,264.05,372.27,265.31,371,264Z" transform="translate(4 4)"/><path class="cls-4" d="M375.31,266.73l-2.32,4.5C376.36,268.86,376.34,267.62,375.31,266.73Z" transform="translate(4 4)"/><polygon class="cls-4" points="400.04 265.43 403.3 257.32 398.93 266.38 400.04 265.43"/><polygon class="cls-4" points="361.07 278.9 361.37 275.07 360.37 281.31 361.07 278.9"/><path class="cls-4" d="M348.23,282.64c0-3-4.56-1.39-3.85-3.8-2.23,2.34-3.1,5.61-3.87,8.55C341.9,285,344.23,283.42,348.23,282.64Z" transform="translate(4 4)"/><path class="cls-4" d="M339,292a24.31,24.31,0,0,0,1.55-4.65A12.26,12.26,0,0,0,339,292Z" transform="translate(4 4)"/><path class="cls-4" d="M366.46,275.65a5.6,5.6,0,0,0-5-.45l3.56,1.54Z" transform="translate(4 4)"/><path class="cls-4" d="M365.12,276.78l-.11,0c-1.59,1.17-2.71,2-3.19,2.29Z" transform="translate(4 4)"/><path class="cls-4" d="M366.83,275.37l-.37.28C366.81,275.8,367,275.82,366.83,275.37Z" transform="translate(4 4)"/><path class="cls-4" d="M384.64,266.46c-.94,3.18-4.1,8.28,2,7.19C386.7,270.61,383.22,271.25,384.64,266.46Z" transform="translate(4 4)"/><path class="cls-4" d="M371.25,277.31l4.32-2.43c-.64-.65-2.15-1.13-1.69-2.7Z" transform="translate(4 4)"/><polygon class="cls-4" points="374.05 283.66 375.25 281.31 373.65 282.22 374.05 283.66"/><path class="cls-4" d="M347.53,289.2c-.72,2.49-2.44,4-4.33,5.9a37.28,37.28,0,0,0,7.24-4.56C350.06,289.47,349.8,287.2,347.53,289.2Z" transform="translate(4 4)"/><path class="cls-4" d="M356.26,283.37c-.06.16-.19.3-.24.45C356.43,283.87,356.66,283.79,356.26,283.37Z" transform="translate(4 4)"/><path class="cls-4" d="M323.22,311.6c.23,0,.48.15.72.21-.1-.17-.21-.34-.31-.52Z" transform="translate(4 4)"/><path class="cls-4" d="M351.21,290.75c2.05-.82,2.51-2.26,2.79-3.84a25.31,25.31,0,0,1-3.56,3.63C350.61,291,350.78,291.3,351.21,290.75Z" transform="translate(4 4)"/><path class="cls-4" d="M334.37,297.86a23.65,23.65,0,0,0,4-.88C336.89,296.83,334.11,296.92,334.37,297.86Z" transform="translate(4 4)"/><path class="cls-4" d="M354.87,283.53a1.87,1.87,0,0,1,.15-.32C354,283.08,354.31,283.3,354.87,283.53Z" transform="translate(4 4)"/><path class="cls-4" d="M354.87,283.53a11.54,11.54,0,0,0-.87,3.38,15.41,15.41,0,0,0,2-3.09A4,4,0,0,1,354.87,283.53Z" transform="translate(4 4)"/><path class="cls-4" d="M331.43,333.4c-1.79-2.66.54-8.47,6.38-8.92,2.06-4.83-6.94-10.88-13.87-12.67.78,1.15,1.59,2.13-.92,6.69,2.42.21,10.86-3.83,9.56,1-3.86,5.38-4.75,2.51-8.21,3.27,4.57,1.29-2.49,9.67,2.36,13.17l2.93-5.19C330.32,331.36,329.71,333.78,331.43,333.4Z" transform="translate(4 4)"/><path class="cls-4" d="M331.28,306.1l1.29-1.58c-2.11,1-4.19,1.08-8.09,1.13-1.57,3.34-1.35,4.69-.85,5.64l7.87-6Z" transform="translate(4 4)"/><path class="cls-4" d="M339.51,298.78c1,3.65-1.8,7.84,2.84,8.85,4.37-3.89,1.34-4.82,3.11-8.2-6.79,6.65.89-3.21-5.65-.39a23.42,23.42,0,0,1,3.39-3.94,34.17,34.17,0,0,1-4.79,1.88l.3,0,0,0,0,0c.59.07.87.19.35.29,0,.06-.08.14-.11.18a4.57,4.57,0,0,1,.49,1.28c-2.57,1.19-.89-.42-.49-1.28a3.48,3.48,0,0,0-.24-.47h-.05l-6.14,7.51C334.43,303.61,336.3,301.91,339.51,298.78Z" transform="translate(4 4)"/><path class="cls-4" d="M387.29,282.58a1,1,0,0,1-.73-.44C386.34,282.85,386.34,283.22,387.29,282.58Z" transform="translate(4 4)"/><path class="cls-4" d="M383,283.36c.24-.81-.17-2.24,1.79-3.34,2.16-.39,1,1.3,1.81,2.12.48-1.55,2.14-4.85-2.2-3.56l-.23.79c-3.71,1.42-10.2,1.08-10,.3A24.45,24.45,0,0,0,383,283.36Z" transform="translate(4 4)"/><path class="cls-4" d="M361.58,291.81l-5.06,6.25,5-.2-1.28-1.27C364.14,294.34,362,293.23,361.58,291.81Z" transform="translate(4 4)"/><polygon class="cls-4" points="325.42 314.87 323.88 311.4 323.69 318.29 325.42 314.87"/><polygon class="cls-4" points="317.82 321.89 316.06 319.24 315.22 322.46 317.82 321.89"/><path class="cls-4" d="M258.52,438.87l.24-2.44A7.85,7.85,0,0,0,258.52,438.87Z" transform="translate(4 4)"/><path class="cls-4" d="M250.74,453.46l1.2,1.08C251.53,453.46,251.11,452.89,250.74,453.46Z" transform="translate(4 4)"/><path class="cls-4" d="M154.22,519.86c-4.07,2.3-9.68,4.75-6.18,5.48l3.63.08A8.41,8.41,0,0,1,154.22,519.86Z" transform="translate(4 4)"/><path class="cls-4" d="M197.72,579.36l-1.41.21,1.39,3.74C197.71,582.13,197.71,580.78,197.72,579.36Z" transform="translate(4 4)"/><path class="cls-4" d="M187.24,569.23l4.28-2.32A15.09,15.09,0,0,0,187.24,569.23Z" transform="translate(4 4)"/><path class="cls-4" d="M296,356,294,352C292.14,355.77,294.57,354.91,296,356Z" transform="translate(4 4)"/><path class="cls-4" d="M237.57,392.38a21.58,21.58,0,0,0-6.56,4.13C234.91,395.14,239.07,395,237.57,392.38Z" transform="translate(4 4)"/><path class="cls-4" d="M288.3,461.53c.09-1.55-.26-2.41-1-2.73C287.19,460.37,287.4,461.41,288.3,461.53Z" transform="translate(4 4)"/><path class="cls-4" d="M225.3,403c.61-.17,1.08-.45,1.65-.66a19.76,19.76,0,0,1,4.06-5.85C228.15,397.53,225.4,399.21,225.3,403Z" transform="translate(4 4)"/><path class="cls-4" d="M364.21,205.86c.09-.26.09-.36.22-.69C363.93,206.16,364,206.14,364.21,205.86Z" transform="translate(4 4)"/><path class="cls-4" d="M299.78,211.36a25.07,25.07,0,0,1,3-2.57A7.72,7.72,0,0,0,299.78,211.36Z" transform="translate(4 4)"/><path class="cls-4" d="M281.57,344.46c1.47-1.67,0-.52,0,0Z" transform="translate(4 4)"/><path class="cls-4" d="M298.7,347.41a2.3,2.3,0,0,0,.49,1.83A2.92,2.92,0,0,1,298.7,347.41Z" transform="translate(4 4)"/><path class="cls-4" d="M227.89,433.69l-.13.14C228.7,433.75,228.52,433.75,227.89,433.69Z" transform="translate(4 4)"/><path class="cls-4" d="M285.08,343.36a12.74,12.74,0,0,0-2.77,1.17A13.18,13.18,0,0,0,285.08,343.36Z" transform="translate(4 4)"/><path class="cls-4" d="M283.64,342.46c.67-.4,1.16-.75,1.65-1.06C285.11,340.79,284.67,340.67,283.64,342.46Z" transform="translate(4 4)"/><path class="cls-4" d="M279.44,346.69a13.42,13.42,0,0,1,2.87-2.16c-.48.12-.74.1-.74-.07C281.13,344.94,280.51,345.62,279.44,346.69Z" transform="translate(4 4)"/><path class="cls-4" d="M375.18,229.77c.16-.08.28-.18.49-.27-.47-.66-.74-.81-.8-.71S374.94,229.26,375.18,229.77Z" transform="translate(4 4)"/><path class="cls-4" d="M175.22,583.26c0-.1-.11-.16-.13-.25l-.17.28Z" transform="translate(4 4)"/><path class="cls-4" d="M177,590.65c-4-3.44-3.32-5.19-2.07-7.36-3.42.36-6.84.75-10.26,1.19Q170.81,587.7,177,590.65Z" transform="translate(4 4)"/><path class="cls-4" d="M275.51,403l-5.22,3.46c-1.66-8.14,2-11.62-4.16-9,9.38,5.56-8.44,19.31.92,24.88l-3.65,2.16c.55-.87.06-1.3.61-2.16-7.78,3.84,4.67,8.14-.76,15.42-2.16,2.41-4.54,3.63-4.73,1.14l-.78,7.41c-1.12,1.69-2.56.38-1.45-1.3l-4.11,9.77-.24-.21a44.27,44.27,0,0,1,1.79,8.38c-2.63,1.66-.4-1.73-1.91-1.75-.12,2.15-.25,4.28-.41,6.41-3.62.77-3.72-4.75-1.52-8.16-12.1-.2.15,5.57-11,13l1.38-5.5c-7.11.22-7.15,5.05-13.45,8.67,2.45-.31,14.37-6.35,13.78.51-1.58,1.17-3,3.08-2.73,7.11-3.41-1.82-4.18,1.54-6,5.28l-4.35-2.72c-.87,4.63,1.57,5.59,2.3,9-2.86,4.14-6.82,3.1-10.32,2.46-4.69,6.49,8.28-1.64,4.39,7a17.39,17.39,0,0,0-4.82,7.79A93.14,93.14,0,0,0,217,522.56c-3.93,3.07-2.27-2.31-4.39-1.63l1.36,5.63c-.61.81-1.51-.11-2-.58-.45,3.79,4.23,2.89,2.56,8.31,2,2.1-1.17,3.48-4.7,5.38s-7.33,4.35-6.46,8.94c-2.12.62-2.21-2.38-4.15-3-.72,5-1.15,7.14-1.32,9.16a61.85,61.85,0,0,0,.06,8.65l-6.43,3.51c5.85-1.8,6.19,5.81,6.2,12.45a46.41,46.41,0,0,0,5.85-1c-.87,2.93-1.74,5.86-2.73,8.74-1.31.37-2.22-1.36-3.14-3.75,0,.73,0,1.42.07,2-3.37,1.43-4.82-1.6-5.86-5,1.43-.27,2.93-.5,4.4-.71-1.35-3.55-3.07-7.15-5.78-8.49a6,6,0,0,1-.44,3.11c-.38-.94-.8-1.66-1.37-1.74s-.15,1.33.09,3.21l-5.8-1.72,1.58,1.69-9.39,6.9c0,2.46.16,5,.32,7.54s.22,5.13.14,7.8a37.5,37.5,0,0,1-4.11,16.74c-1.3-5.12-4.92-4.8-8.67-8,6.23.53,4.25-9.13,9.06-13.62-2.52,2.36-3.94.33-4.06-.84l-3.35,12.12c-1.51-1.37-2.48-1.35-3.47-.82a14,14,0,0,0-1.57,1.06,10.55,10.55,0,0,1-2.07,1.11c7.71,3.27-1.41,10-2.58,15.27-2.24-1.51-3.61-4.16.58-8.17-7.34.84-.9,9.09-3.55,12.6l15.7,4.85a3.74,3.74,0,0,1,.81-2.65c.18,1.27-.11,2,1,2.44l-18.95-5.86a2.14,2.14,0,0,0-.1-.22.74.74,0,0,1,0,.12l19.22,5.94c-1.29-1.47-1.64-4.19-1.37-6.31s1.31-3.63,2.5-2.8l.12,1.34a76.54,76.54,0,0,0-.09-8.06c-.06-3-.44-6.16-.78-9.12a39.24,39.24,0,0,0-.8-4.23A25.38,25.38,0,0,0,168,597.1c-.89-2.13-2.13-3.67-3.8-4.15a65.27,65.27,0,0,1,9.44,2.44,221.46,221.46,0,0,1-20.94-19.13c2.78,1.19,7.82.82,12.42,1.26s8.79,1.62,9.94,5.49c1.11-2,2.37-4.41,1.14-9.17-1.06,1.26-9,2.25-9.14.13,3.69-2.25,4.69-3,5.63-4a44.84,44.84,0,0,1,5.24-4.84c-.83.94-3.36.35-5.56-.93a9.47,9.47,0,0,1-2.79-2.32,2.9,2.9,0,0,1-.68-2.65c1.2.85,8.87,1.78,9.5,3.22-2.23-3.45-4.53-7-6.6-10.68,1,2.57,7.28,2.31,10.24,1.16-1,.19-.45-1.59.3-3.72s1.84-4.58,1.76-5.81l-3.08,2.88c2.06-4.48-.13-7.73-2.42-11.15s-4.59-6.94-2.58-11.65c1.3,1.87,9.6,6.85,12.47,2.67A103.82,103.82,0,0,1,179,514.49a47.52,47.52,0,0,1-4.58-8.41,18.39,18.39,0,0,1-1.52-8.2l3.14-.48c.15-2.59.37-5.17.57-7.79,2.06,3.61,4.9,9.8,7.78,16l4.06,9c1.25,2.83,2.25,5.34,3,7.35,3.35-2.55,3.26.29,5.22-4.79,3-.72,2.23,4.22,1.73,5.71l3.25-5.37,3.39-5.29c-5.17-1.85-.49-11-4.66-12.7-.26,2.51-.47,5-.69,7.49s-.32,5-.47,7.44c-2.56-.88-5.16-4.29-6.47-8.59a18.17,18.17,0,0,1-.74-6.79,15.13,15.13,0,0,1,.66-3.41,13.49,13.49,0,0,1,1.55-3.14c3-1.07,7.59,6.11,9.28,6.75-.54-.95-.29-3.28.29-5.39s1.59-4,2.36-4l.59,4.78c2.13-1.7,1.6-4.37,1.49-7s.3-5.15,4.06-6.44c1.43-1.65,9.22-1.63,6.73-3.64-7-.46-23.51-9.84-26.07-14.42.4-.22,3.21-2,6.49-3.63,1.62-.83,3.35-1.66,4.9-2.29a16,16,0,0,1,4-1.16c3-.13,4.59,2.64,6.09,5.37s2.9,5.43,5.46,5.36c-1.15-.93-1.53-3.56-1.54-4.57,2.32-1.14,3.21,3.36,5.44-1-4-3.81,6.22-7.83-2.4-4.55,1.57-4.84,3.9-3.52,7.11-8.18-1.94-.34-3.58-3.16-4.48-6.54s-1-7.28-.08-9.73c.91,1.09,3,1.33,4,1.43,1.68-1.89,3.28-3.48,4.81-4.9s3.07-2.65,4.54-3.89,2.94-2.45,4.42-3.79a61.58,61.58,0,0,0,4.53-4.58c1.57.22,5.75-2.1,6.23.9.16-1.64-.4-3.8,1.45-6,7.23-1-3.77,5.23,3.3,5.89-2.11-2.37,1.7-8.44,3.1-12.77-2.22-1.2-4,.37-5.43,2.81a38.55,38.55,0,0,0-3,7.92c-2.53-2.24-3.92-5.88-4.08-10.15A29.62,29.62,0,0,1,251,391.2c4.25-6.95,5.53.51,5.78-1.15,5.58-4.95,5.68-9.27,6-13.05s.63-7.08,6.81-9.67c6.52-.36,6.12,6,9.07,7.43-3.45,5.61-8.91,5-11.88,8.18l5.22-2.35c-.42,2.46-2.67,6.23-5.19,7,1.4-.06,3.24-1.14,5.36-2.84s4.52-4,7.14-6.43c5.18-4.89,11.1-10.34,16.46-12.89.5-2.42,2-5.89-.34-6l-2.24,2.89c-4.8-.28,1.73-8.14-2.73-6.22,1.89-5.1,3.39-11.62,9.81-14.76l4.23,2.8c-1.07-1-5.28.81-5.71,3.22.66-3.57,12.23-2,10.31-8.91l-5.84.64c2-5.1,3.17-13,8.81-15.85-5.27-1.84-.7,1.34-7.7-.08,3.74,1.42.73,3.92-2,6.29s-5.23,4.61-.51,5.38a9.61,9.61,0,0,0-7.72.75,14.24,14.24,0,0,1-8,2.07c1.23,1.07,3.63.9-.74,3.77a7,7,0,0,1,.13,1.82l-.34.14c.12,0,.22,0,.34-.05,0,.33,0,.39.12,0a6.19,6.19,0,0,1,3.6,0c.6,4.44-5.44,9.92-6.15,13.19-2.74,1.54-.35-2.23-2.74-2.34l-1,4.93c-2.76-2.33-10,1.28-6.23-5.22l-4.83,4.38c-4.14,1.24-8.53,4.35-9.77,7.75-2.73,1.64-2.67,8.32-2.78,4.44-1.9,2.93-3.73,5.91-5.57,8.88l-.71-.55c-3.71,3.46-6.15,8.33-9.3,12.74a33.67,33.67,0,0,1-5.36,6.24,23,23,0,0,1-7.74,4.58c-1.55,3.21-3,6.56-7.48,10.35l-3.12-1.13c-2,4.06-10.85,8.45-9.46,12-4.79-.69-8.49,3.4-11.64,8.37-1.55,2.5-3,5.17-4.38,7.63a28.75,28.75,0,0,1-4.14,6.07l3.19,2.52a39.3,39.3,0,0,0-4,7.17c-1.11,2.65-2.16,5.52-3.21,8.83l3.27,1.51c-.21,3.25-2.71,6-5.56,9.14s-6.19,6.51-8.2,10.65c-.93-1.19.5-3.08,2-4.14a13,13,0,0,0-3.83,2.7A13.58,13.58,0,0,0,168,487.6a22,22,0,0,0-1.43,4.11c-.34,1.43-.57,2.92-.79,4.39s-.42,2.95-.66,4.37a31.56,31.56,0,0,1-.87,4.16,14.63,14.63,0,0,1-1.61,3.68,11,11,0,0,1-2.73,3A6.07,6.07,0,0,1,157.6,517a1.33,1.33,0,0,0,0-.65,5.8,5.8,0,0,0-.41.94c-1,.82-2,1.64-3,2.6a11.85,11.85,0,0,0,2.83-2.07,28.73,28.73,0,0,0-1.34,7.74l-4-.11c0,.24-.09.41-.11.67-2.27,2.24,1,2.74,4.22,2.26a13.5,13.5,0,0,0,1,4.29c-3.32.1-3.36,2.09-3.49,4.11s-.36,4.11-3.94,4.72c1.31,1.38.89,5,1,8.7s.83,7.41,4,8.87c-.89-.1-1.47.62-1.22-.88-1.37,2.9-2.81,5.84-1.44,9l-5,.44c1.77,2.68,3.52,5.3,5.35,7.86-3.5,3.64-5.47,5.25-8.63.52A54,54,0,0,1,145.5,582a31.29,31.29,0,0,1,.76,3.39,18.38,18.38,0,0,0,.8,3.09,27.31,27.31,0,0,0,2.45,5l-3.13-.64c0,1.54.93,3.6,1.56,5.45s1.05,3.53-.3,4.41c-4,4.2-3.39,16.86-2.3,30l2.54,30.74,20.91-23.49c4.88-5.48,10.14-10.86,15.78-14.42-4.7-1.66-2.58-2.5-.06-3.66s5.61-2.55,3-5c2.34.57,4.8-.56,4.6,2.81,3.63-8.24,10.95-8.3,9.53-16.86,2.37.5,1.5,3.43,3.08,3.49,0-.86.08-3.39,1.69-3.36s.74,2.13.69,3.83c5-7.52,0-12.19-4.85-16.41,2.54-.94,4.05-1.93,4.74-3.31s.47-3.19-.35-5.72c2.58-.09,5.85-1,3.38,4,2-2.37,13.18-14,9-17,1.61-.1,2.64-3.42,2.58-4.43,4-5.65,4.7-5.92,7.94-11.9L227.83,553c-3.77-5.51,1.81-5.49,4-10.55l.46.46c5.14-4.19,5.39-5.64,5.69-7a4.87,4.87,0,0,1,1.11-2.35A30,30,0,0,1,244,529.2l-3.65-1.36c-6.56-5.15,9.66-7,10.52-14.79l-3.2,1.15c-.24-2.38,3.52-3.37,7.71-4.16s8.82-1.35,10.23-2.83c1.05-.41.35,1.74.23,3.05,9.28-6.7-3.75-3.61-1.05-10.89,3.07.06,5.17,4.92,8.12.61,3.15-1.26-.67-17.39,7.22-21.16-2.57.4-5.13.78-4.86-3.09,1.83-5.16,13.79-9.42,10.2-16.81a2.35,2.35,0,0,1,1.92-.12c.37-4.48,3.6-13.31,1.55-17.15,13.61,2.56,5.8-25.9,16.7-20.33l5.09-11.68,1,.86c4.35-6.92,3-10.8,1.65-14.66,1.59-1.31,2,.43,2.5.85,7.5-9.51,7.54-10.81,6.55-22.41l4,.86c-.85-3.45,13.22-12.5,14.38-24.88a2.72,2.72,0,0,1,1,1.95c1.75-13.78,24.08-22.58,13.52-33.53l.88-9.29c-6.21,9.35-4.77-4.4-9-1.45,1.3-4.29,9.16-8,7.29-2.9l-1,.41c5.72,5.27,8.85-11,13.24-8.37,5-9.81,10.9-19,16.79-28,3-4.5,5.87-9,8.68-13.51l1.05-1.69.54-.88.69-1.22,2.77-4.93c1.82-3.29,3.61-6.62,5.33-9.94q-3.81,1.06-7.46,1.82l2.27-4.13c.76-1.36,1.55-2.89,2.32-4.34,2.61-2.26,6.73-3.37,3.07,3.63a7.48,7.48,0,0,0,3.14-7.18c-.24-2.42-1.49-4-2.19-4,4.42-6.4,6.05-5.86,6.53-3.61s0,6,1.1,3.8l2.37-5.89-1.48,1.48c-.59-4.21-3.72-3.58.22-11.42a14.79,14.79,0,0,1,4.63-4.62c1.18-.71,2-1,2.66-2.07.57-.23,1.17-1.08,1.71-3.32L423,193.8l1.47-3.11,2.95-6.27q-4.46,4.46-8.75,8.51c-1.18-3.06,4.8-10.39-5.09-.84a56.47,56.47,0,0,0,9.89-13,132.19,132.19,0,0,0,7-14.88c3.89-9.69,6.28-17.63,9.27-22-3.22-.93-.78-6.72,2.91-15.59-2.5,4-12.18,15.43-8.74,8.06a120.14,120.14,0,0,0,10.2-12.4,74.82,74.82,0,0,0,5.48-9.35c1.53-3,3-6.2,5.13-10.16A174.13,174.13,0,0,1,464,87.65c-3,4.6-4.15,5.65-4.48,5.18s.15-2.49.45-4.2c0-.08,0-.06,0,0l-.09,0-.19.06a3.25,3.25,0,0,0-.4.15,6.48,6.48,0,0,0-.9.5A12.92,12.92,0,0,0,456,91.4a45.4,45.4,0,0,0-3.36,4.16c-1.3,1.78-2.81,4-4.44,6.57-.07-1.07,2.24-4.23,5-7.9,1.39-1.85,2.89-3.83,4.36-5.89s2.9-4.21,4.24-6.54A22,22,0,0,1,460,83.13a3.56,3.56,0,0,1-1.38.64,94.41,94.41,0,0,1-10.12,8.74c-2.8,2-5.36,3.6-8.07,5.28s-5.64,3.5-9.07,6a131.32,131.32,0,0,0-11.8,9.84c-1.18,1.92-1.82,3.62-3.06,5.94a61.09,61.09,0,0,1-6.3,9.33,29.6,29.6,0,0,0,.31-9.46c-2.29,2.38-5.52,7.73-8.18,11.68a25.06,25.06,0,0,1-3.41,4.39c-.9.78-1.5.69-1.83-.62a13.41,13.41,0,0,1-3.53,7.38,51.4,51.4,0,0,0-5,2.74c-1.76,1.07-3.62,2.31-5.54,3.68s-3.92,2.86-5.95,4.44-4.07,3.17-6.13,4.84-4.15,3.42-6.24,5.18l-6.22,5.25c-4.13,3.52-8.22,7.06-12.27,10.43s-8.11,6.75-12,9.72q-3,2.27-6,4.45l-3.06,2.16c-.78.51-1.54,1-2.32,1.47a67.88,67.88,0,0,1-20.67,8.66c4.75-.16,2.84,1.62.52,3.48,1.94-.64,2.05,2.81,3.5,4.1l-12.83,3c1.4,5.56-10.17,8-8.19,12.79l2.54-3c-.56,7.84,13.62,6.45,17.59,13,.54-8.85,18.19-1,19.86-14.46,2.6,0,.08,3,2,3.79-.07-4.07,1.82-6.34,7-8.42v1c1.43-1.22,2.8-2.31,4.11-3.29q1-.75,2-1.41l.48-.34.32-.21.6-.36a25.83,25.83,0,0,1,4.61-2.15,20.14,20.14,0,0,1,2.1-.63c.67-.17,1.33-.31,2-.45,1.33-.28,2.64-.54,4-.93,0-1.61,0-3.19-.07-4.73,1.52-.57,1.59.89,2,1.78.74-2.41.94-3.5.73-3.83s-.77,0-1.33.36-1.13.67-1.44.32-.38-1.38.25-3.88c1,4.11,3.49,2.17,6.14.26s5.14-3.55,2,4.47c.83-.63,1.68-2.7,2.47-4.71s1.54-4,2.69-4.89c-.52,1.4-1.06,2.83-1.63,4.29,1.13-2.19,2.3-4.42,3.5-6.67.55-.13.23,1.22-.57,3.19s-2,4.53-3.14,6.68c0-.29-1.36,1.81-1.79,2.37-.8,2.4.16,1.32,1.54-.4s3.08-4,2.67-3.08a14.58,14.58,0,0,0,.38-2.13,59.93,59.93,0,0,1,7.89-7.69,82.66,82.66,0,0,0,9.14-8.92c2-2.23,4.53-5.09,7.81-8.92l3.92-5.44c1.64-1.89,2.9-3.3,3.84-4.3.47-.5.85-.9,1.17-1.21.11-.13.07,0,.07,0l0,.13c0,.09-.06.2-.1.32a32.3,32.3,0,0,1-2.5,4.44c-1.14,1.83-2.42,3.81-3.31,5.43s-1.38,2.87-1.09,3.41l-.93,1c3.8-3.89,5.12-4.29,3.86-1.71-2.06,1.84-4.75,5.43-7.4,8.79a75.59,75.59,0,0,1-7.58,8.7c1.56-1,2.56-1.66,3.5-2.35a28.89,28.89,0,0,0,2.86-2.41c1.08-1,2.39-2.28,4.21-3.95s4.12-3.7,7.07-5.91l-6.73,7.51c2.48-2,4.39-3.58,5.65-4.36s1.88-.69,1.66.88c-1.72.49-4.32,3.42-7,6.23a44.14,44.14,0,0,1-8.19,7.29c-3.93,4.65-5.18,6.44-5.36,7.32s.71.71,1.41.78,1.23.27.48,1.39-2.75,3.1-7,6.41a41.6,41.6,0,0,0,6.81-4.35,15.1,15.1,0,0,0,3.27-3.69c1.39-2.22,1.46-3.61,2.58-3.84,2.76-2.68,5.19-4.13,6.43-4.06s1.33,1.56-.08,3.54c-.88,1.67-5.79,5.77-10.53,9.64-2.38,1.94-4.72,3.84-6.56,5.46s-3.19,3-3.68,4.1c.28-.49-.6-.13-.33-.59-1.9,1.5-1.24,1.78-.93,2.41s.3,1.54-2.36,3.06c2.88-.17,2.37.68,2.19,1.27s-.12,1.07,3.47,1c.34-1.81.64-3.47.84-5,.39,1.13,2.46,2,3.34,3.92s.58,4.66-3,7.68a5.24,5.24,0,0,1-1.4-1.83c-.4-.75-.79-1.45-1-2a2.28,2.28,0,0,0-1.5,2.27,2.5,2.5,0,0,1-1.61,2.38c-1.53-.49-2.18-1.16-2.35-1.92a4.64,4.64,0,0,1,.45-2.47,9.18,9.18,0,0,0,.78-2.51c0-.8-.28-1.49-1.5-1.76-1.92.84-1,1.55-.69,2.37.16.38.18.74-.26.9a8.64,8.64,0,0,1-3.16-.12c2.28.32,3.15.87,3.32,1.45a1.25,1.25,0,0,1-.24,1,7.07,7.07,0,0,1-.85,1,6.38,6.38,0,0,0-1.63,2.23c-.27.86-.08,1.89.94,3.56-1.1-.61-2.22-1.21-3.34-1.8.07.19.19.45.32.76l.19.48a1.37,1.37,0,0,1,.12.61,6.11,6.11,0,0,1-.61,3.12l-1.34-2.75-.68-1.38-.34-.69a2.63,2.63,0,0,0-.43-.5c.2.19.2.66.19,1a4.94,4.94,0,0,1-.12,1.1,6.11,6.11,0,0,1-.78,1.92,13.4,13.4,0,0,1-2.94,3c-2.26,1.85-4.71,3.56-4.94,6.48,5.09-10.08,5.22-.14,9.88-3.11-1.91,14.74-12.5,2.53-18.14,17.22.52-2.13,5.71-6,5.74-2.23-2.07,2.27-5.21,5.08-7.83,5.77-4.14,9.55,4.2.41,4.21,5.41-5.74,1-.71,5.39-1.54,10.12L341.07,281c-7.74,9.33,5.64,6.54-2,14.59l-2.62-6.5-1.38,5.58-3.35-3.07c0,6.9-1.58,8.16-5.45,12.87,3.05,0,5.84,3.95,3.5,8.67-3.7,2.12-2.32-3.49-5.3,3.39-1.36-2.61-3.18-5.66,1.48-6.89-1-.88-1.37-2.6-2.31-3.49-4.14,2.22-5.07,8.36-6.28,10.8a6.3,6.3,0,0,1,2.15-2.2l-.26,12.12c-2.08.85-2.49-.89-2.89-2.61-.63,2.15.23,4.31-.94,7.35-2.4-2.18-5.4-3.49-4.59-8.24L309.2,334.2c-1.53,0-5.77,3-6.18,1.31-2.13,2.15-2.38,6-2.79,10s-1,8.18-3.75,11a4.57,4.57,0,0,1,.21,3.24c-3.85,6.06-10.1,10-10,19.46L279.5,381c-1.8,6.48,9.23-2.64,6.23,8.14-1.86,7.76-5.59.46-8.21,2.2.81,4.72,3,13.33-4.3,17.64C273.33,406.41,274.9,405.14,275.51,403Zm-34.75,73c0-1.76-.71-5.68,1.83-5.61C245.65,474,243.14,474.22,240.76,476Zm-56,108.77c-.35-1.68,1.2-2.76,3.58-3.55A7.12,7.12,0,0,1,184.73,584.73Zm81.43-221.31a.7.7,0,0,0,0,.25C262.54,365.11,263.87,364.65,266.16,363.42Zm6.52-4a1.05,1.05,0,0,0-.84-1.42c.3,1.06-.87,2.26-2.42,3.4C270.51,361.76,271.66,361.57,272.68,359.42ZM418.21,200.06,416,202.51C416.34,199.05,417.21,199.57,418.21,200.06Z" transform="translate(4 4)"/><path class="cls-4" d="M188.43,570.44a4.91,4.91,0,0,1,2.1.64C190.34,570.21,189.72,569.77,188.43,570.44Z" transform="translate(4 4)"/><path class="cls-4" d="M296.33,356.73c.07-.06.09-.14.15-.2A1.89,1.89,0,0,0,296,356Z" transform="translate(4 4)"/><path class="cls-4" d="M223.07,465.69a5.94,5.94,0,0,1-3.23,1.17C220.57,467.46,221.61,467.36,223.07,465.69Z" transform="translate(4 4)"/><path class="cls-4" d="M297.37,327.86l-2.91,3.92c1.6-1.68,2.78-1.59,4.06-1.9C297.84,329.27,296.3,328.9,297.37,327.86Z" transform="translate(4 4)"/><path class="cls-4" d="M344.06,319.41c.22-.8,1.08-1,1.3-1.77l-1.29-1.26C341.9,318.33,341.25,320.74,344.06,319.41Z" transform="translate(4 4)"/><path class="cls-4" d="M309.14,334.58c2.42,2.2,3.92-.57,6-3.19a2,2,0,0,1-.44.38C312.49,327.7,310.8,331.15,309.14,334.58Z" transform="translate(4 4)"/><path class="cls-4" d="M315.67,330.8a10.45,10.45,0,0,1,2.25-2.06C317,327.11,316.74,329.26,315.67,330.8Z" transform="translate(4 4)"/><path class="cls-4" d="M278.06,351.34c1.73-.47-2.1-3.7-.54-3.35C276,343.74,273.23,358.92,278.06,351.34Z" transform="translate(4 4)"/><polygon class="cls-4" points="322.19 344.88 318.67 342.64 319.4 346.28 322.19 344.88"/><path class="cls-4" d="M296.89,355.94l4.64-2.7c-.51-.44-.28-1.18.13-1.95C299.16,353.35,296,355.15,296.89,355.94Z" transform="translate(4 4)"/><path class="cls-4" d="M301.66,351.29c1.3-1.08,2.43-2.22,2.69-3.34A15.83,15.83,0,0,0,301.66,351.29Z" transform="translate(4 4)"/><polygon class="cls-4" points="317.6 350.51 315.89 350.91 312.93 353.14 317.6 350.51"/><path class="cls-4" d="M256,395l-3.09,5c.61,1.35,2.29.79,3.35-1.14C256.5,397.18,257.57,395.26,256,395Z" transform="translate(4 4)"/><path class="cls-4" d="M275.89,390.24c-1.67.5-2.38-.06-3.93-.37l3.42,3.61Z" transform="translate(4 4)"/><path class="cls-4" d="M265.24,402.88c.61,1.36-2.69,8.66,1.95,3.25C266.57,404.78,269.62,399.88,265.24,402.88Z" transform="translate(4 4)"/><polygon class="cls-4" points="210.94 469.23 211.69 467.99 204.78 463.67 210.94 469.23"/><path class="cls-4" d="M191.53,538.83c3.91-5.2-4.24-3.11,0-7.6-1.28-2.09-3.51,3.68-4.53,1.67.26,2.15,0,3.61.36,4.54S188.72,538.77,191.53,538.83Z" transform="translate(4 4)"/><path class="cls-4" d="M187,532.9a15,15,0,0,0-.46-2.27A5.93,5.93,0,0,0,187,532.9Z" transform="translate(4 4)"/><polygon class="cls-4" points="288.46 221.31 283.97 222.5 287.84 223.06 288.46 221.31"/><path class="cls-4" d="M281.35,227.1l-3.89-3.58.68,5.33C278.8,228.08,280.06,226.6,281.35,227.1Z" transform="translate(4 4)"/><path class="cls-4" d="M225.88,481.42l.94.89c1.5.07,2.08-.75,3.23-2.4Z" transform="translate(4 4)"/><polygon class="cls-4" points="260.46 435.71 259.91 436.56 264.95 437.01 260.46 435.71"/><path class="cls-4" d="M273.25,384.93c-1.08,1.72-1.2,4.31-2.28,6C272.17,386.65,278.73,387.05,273.25,384.93Z" transform="translate(4 4)"/><path class="cls-4" d="M455,488.84c.09-.22.05-.14.06-.17C454.92,489,455,488.84,455,488.84Z" transform="translate(4 4)"/><path class="cls-4" d="M451.68,486.55l1.36-.25a23.7,23.7,0,0,1-3.61-.49A19.7,19.7,0,0,0,451.68,486.55Z" transform="translate(4 4)"/><path class="cls-4" d="M450.38,476c-2.83.67-2.57,1.8-1.8,2.95s2,2.26,1.16,3.36l-1.25.5q2.34.12,4.68.12c-.54-.94-1.62-2.16-2.39-3.41S449.61,477,450.38,476Z" transform="translate(4 4)"/><path class="cls-4" d="M462.6,468.71c-2.2.46-1.93-1.49-.66,1.64a4,4,0,0,1,.56-.3A3.83,3.83,0,0,1,462.6,468.71Z" transform="translate(4 4)"/><path class="cls-4" d="M462.5,470.05c.18,1.37,1.85-.93,0,0Z" transform="translate(4 4)"/><path class="cls-4" d="M461.2,463.69l2,1.81c1.31-.38,1.61-2,2.57-1.39C464.66,462.26,463.35,462.63,461.2,463.69Z" transform="translate(4 4)"/><path class="cls-4" d="M457,461.94l.84.95C458.42,462.73,458.61,462.48,457,461.94Z" transform="translate(4 4)"/><path class="cls-4" d="M459.64,464.91l-1.77-2c-.92.27-2.77.29.64.93C456.82,463.65,458.44,464.06,459.64,464.91Z" transform="translate(4 4)"/><path class="cls-4" d="M458.77,466.05c-1.25,1-2,2.37-4,.53.38,1.77,1.61,2.5,2.61,2.36S459.16,467.79,458.77,466.05Z" transform="translate(4 4)"/><path class="cls-4" d="M444.47,475.46l-1.64,1.44,2,1.09c-.49-.27-.13-.93.13-1.49S445.36,475.39,444.47,475.46Z" transform="translate(4 4)"/><path class="cls-4" d="M464.3,452.44c-1.21-.15-3.25.52-4.81.62l1.37,1.38C461.71,453.77,462.5,452.48,464.3,452.44Z" transform="translate(4 4)"/><path class="cls-4" d="M459.49,453.06l-2-2.08C457.15,452.78,458.16,453.14,459.49,453.06Z" transform="translate(4 4)"/><polygon class="cls-4" points="454.69 465.57 459.07 468.95 454.63 464.92 454.69 465.57"/><polygon class="cls-4" points="468.74 448.83 471.5 450.08 467.33 447.88 468.74 448.83"/><path class="cls-4" d="M464.52,439.75c2.27,1,4-.91,5.38.05-.34-1.38-2.28-2.66-4-3.84C466.82,437.15,466.51,438.31,464.52,439.75Z" transform="translate(4 4)"/><path class="cls-4" d="M463.41,434a14.67,14.67,0,0,0,2.48,1.95A7.64,7.64,0,0,0,463.41,434Z" transform="translate(4 4)"/><path class="cls-4" d="M458.2,447.55c.74-.13,2.67-.36,3.52-1.45l-3.44.65Z" transform="translate(4 4)"/><path class="cls-4" d="M458.17,446.78l.11,0c.11-.86.21-1.45.26-1.71Z" transform="translate(4 4)"/><path class="cls-4" d="M458.18,447.75c0-.08,0-.13,0-.2C457.85,447.61,457.75,447.65,458.18,447.75Z" transform="translate(4 4)"/><path class="cls-4" d="M453.86,456.23C452,455,450,452.42,447,454.8,449.33,455.72,451,454.37,453.86,456.23Z" transform="translate(4 4)"/><path class="cls-4" d="M453.87,448.58l-.87,2.15c.91,0,2.24-.36,3.16.26Z" transform="translate(4 4)"/><polygon class="cls-4" points="456.82 451.48 457.87 452.58 458.19 451.79 456.82 451.48"/><path class="cls-4" d="M460,437.46a3.76,3.76,0,0,1-1.65-3.21,7.32,7.32,0,0,0-1.26,3.65C458.13,438.13,460,438.78,460,437.46Z" transform="translate(4 4)"/><path class="cls-4" d="M458.77,442c-.07-.07-.1-.15-.18-.21C458.29,441.86,458.2,442,458.77,442Z" transform="translate(4 4)"/><path class="cls-4" d="M459.28,423l-.63.12.58.1Z" transform="translate(4 4)"/><path class="cls-4" d="M456.42,438.07c-.71.89.09,1.49,1.11,2.08a5.4,5.4,0,0,1-.46-2.25C456.59,437.79,456.27,437.76,456.42,438.07Z" transform="translate(4 4)"/><path class="cls-4" d="M462.05,430.78a11.07,11.07,0,0,0-2,1.45C461.17,431.84,462.93,431,462.05,430.78Z" transform="translate(4 4)"/><path class="cls-4" d="M459.55,441.48c.05,0,.11.1.15.15C460.44,441.37,460.08,441.39,459.55,441.48Z" transform="translate(4 4)"/><path class="cls-4" d="M459.55,441.48a9,9,0,0,0-2-1.33,4.86,4.86,0,0,0,1.06,1.6A5.27,5.27,0,0,1,459.55,441.48Z" transform="translate(4 4)"/><path class="cls-4" d="M437.77,417.31c3.13.51,5.82,3.3,2.23,5.17,2.16,2.36,12.68,1.85,18.65.61a5.23,5.23,0,0,1-4.31-2.63c-1.79.57-4.47,4.4-7.16,2.31-1.35-3,1.34-2.26,3.13-3.49-4.05.8-5.32-4.25-11.15-4.26l1.74,2.79C440,417.76,438.67,416.68,437.77,417.31Z" transform="translate(4 4)"/><path class="cls-4" d="M458,427.11l.31.91c.63-.95,2-1.56,4.56-2.64a6,6,0,0,0-3.59-2.19l-.84,4.26Z" transform="translate(4 4)"/><path class="cls-4" d="M458,432c-3.38-.94-4.69-3.19-8.5-2.17,0,2.64,2.73,2.05,4.11,3.7-.54-4.24,1.82,1.33,4-1.53a5.43,5.43,0,0,1,.74,2.3,10.2,10.2,0,0,1,1.73-2l-.22.08h0c-.45.14-.72.18-.45,0,0,0-.05-.07-.07-.09A9,9,0,0,1,458,432c.8-1.15.9-.12,1.28.28.18,0,.33.07.52.09h0L458.26,428C457.72,428.86,457.73,430,458,432Z" transform="translate(4 4)"/><path class="cls-4" d="M439.64,452.34a2,2,0,0,1,.8-.12C440,451.93,439.74,451.82,439.64,452.34Z" transform="translate(4 4)"/><path class="cls-4" d="M441.77,450.62c.47.33,1.82.63,1.46,1.64-1.05.85-1.65-.05-2.79,0,.9.65,2.43,2.21,4.15.34l-.47-.32c1.22-1.7,5.63-3.74,6.08-3.43A38.15,38.15,0,0,0,441.77,450.62Z" transform="translate(4 4)"/><path class="cls-4" d="M448.91,441l-1.49-3.63L444.34,439h1.8C445.32,440.94,447.55,440.62,448.91,441Z" transform="translate(4 4)"/><polygon class="cls-4" points="465.02 426.74 468.61 427.54 463.67 425.06 465.02 426.74"/><polygon class="cls-4" points="465.04 422.24 468.16 422.73 466.4 421.36 465.04 422.24"/><path class="cls-4" d="M377.53,444.82l-.6,1.32A3.43,3.43,0,0,0,377.53,444.82Z" transform="translate(4 4)"/><path class="cls-4" d="M384.83,441.19l-.57-1.47C384.34,440.66,384.51,441.29,384.83,441.19Z" transform="translate(4 4)"/><path class="cls-4" d="M450.61,321.15c-3.09.63-7.74.7-4.27,1.33l3.48.39C449.32,322,449.79,321.52,450.61,321.15Z" transform="translate(4 4)"/><path class="cls-4" d="M428,389.39l1,.5-1.38-3.2C427.74,387.52,427.85,388.43,428,389.39Z" transform="translate(4 4)"/><path class="cls-4" d="M436.39,401.08l-3.08-.36A7.94,7.94,0,0,0,436.39,401.08Z" transform="translate(4 4)"/><path class="cls-4" d="M337.85,465.87l-.1,3.78C339.73,468.93,338.26,467.56,337.85,465.87Z" transform="translate(4 4)"/><path class="cls-4" d="M467,372.63a6.3,6.3,0,0,0,2.73-2.66C467.45,371,464.25,371.63,467,372.63Z" transform="translate(4 4)"/><path class="cls-4" d="M363.23,410.73a2.82,2.82,0,0,0,.22,2.27A2.3,2.3,0,0,0,363.23,410.73Z" transform="translate(4 4)"/><path class="cls-4" d="M470.53,366.38a9.35,9.35,0,0,0-.95.48,4,4,0,0,1,.15,3.11C471.43,369.18,472.6,368.14,470.53,366.38Z" transform="translate(4 4)"/><path class="cls-4" d="M378.14,329.51a3,3,0,0,1,.54.17C378.47,329.25,378.31,329.32,378.14,329.51Z" transform="translate(4 4)"/><path class="cls-4" d="M433.37,342.11a4.79,4.79,0,0,1-1.5.82C432.24,343.06,432.7,342.86,433.37,342.11Z" transform="translate(4 4)"/><path class="cls-4" d="M464.81,400.56c.09,1,.36.2,0,0Z" transform="translate(4 4)"/><path class="cls-4" d="M450.55,403.26a3.61,3.61,0,0,0-1.62-.62A4.62,4.62,0,0,1,450.55,403.26Z" transform="translate(4 4)"/><path class="cls-4" d="M451.79,351.89l0-.08C451.1,351.93,451.24,351.91,451.79,351.89Z" transform="translate(4 4)"/><path class="cls-4" d="M463,401.74a4.54,4.54,0,0,0,1.2-1.05A4.41,4.41,0,0,0,463,401.74Z" transform="translate(4 4)"/><path class="cls-4" d="M464.69,401.79c-.2.3-.32.54-.45.77C464.79,402.76,465.17,402.71,464.69,401.79Z" transform="translate(4 4)"/><path class="cls-4" d="M464.82,399.22a2.7,2.7,0,0,1-.58,1.47c.26-.15.46-.2.57-.13C464.8,400.27,464.79,399.88,464.82,399.22Z" transform="translate(4 4)"/><path class="cls-4" d="M319.66,394.2a2.75,2.75,0,0,1,.39,0C319.53,392.5,319.44,393,319.66,394.2Z" transform="translate(4 4)"/><path class="cls-4" d="M475.89,356.37c0-.06-.08-.13-.08-.19l-.2.09Z" transform="translate(4 4)"/><path class="cls-4" d="M476.08,361.33c-2.84-3.76-1.93-4.31-.47-5.06-3.16-1.18-6.29-2.41-9.41-3.66Q471.23,356.83,476.08,361.33Z" transform="translate(4 4)"/><path class="cls-4" d="M360.3,454.12,364,455.9c-.89,6-3.84,5.35.29,8.32-2-5.06.31-6.33,2.58-7.71s4.55-2.72,2.37-7.7l2.57,1.28c-.5.13-.29.74-.79.87,5.38,3.15-1.15-8.18,3.42-8.72,1.72,0,3.39.95,3.06,2.58l1.77-4c1-.27,1.65,1.51.67,1.78q2.11-1.56,4.17-3.21l.12.29a41.17,41.17,0,0,1,.17-6.32c1.91.73,0,1.32.94,2.34.41-1.23.81-2.44,1.19-3.68,2.4,1.87,1.71,5.44-.24,6,3.81,4.08,4,3.2,4.28,1.62s.51-3.83,4.64-2.57l-1.68,2.57c4.63,4.42,5.4,1.44,10.08,3.05-.85-.66-3.45-1.89-5.65-3.5s-4-3.57-3.36-5.52c1.17.27,2.37,0,2.67-2.76,2,3.29,2.94,1.61,4.58.35l2.6,4.41c1.14-2.45-.42-4.57-.55-7.22,2.35-.92,4.95,2.12,7.28,4.59,3.84-1.52-5.8-3.8-2.37-7.2,3.81-.25,4.65-3.24,6.06-8,2.9.11,1.48,2.79,3,3.5l-.7-4.51c.46-.21,1.07.9,1.37,1.46.47-2.29-2.86-4.22-1.53-6.91-1.38-2.49.92-1.64,3.45-1.08s5.32.81,4.66-2.75c1.53.64,1.61,2.72,3,4.13,1-6.16,1.26-4.82.56-11.58l4.58.59c-4.26-1.49-4.82-6.85-5.35-11.33-1.81-.9-3.36-1.7-4.21-2,.43-1.54.81-3.11,1.19-4.64.91.33,1.77,1.91,2.67,3.95-.07-.5-.15-1-.25-1.4,2.31.5,3.72,3.19,4.79,6-1-.44-2.11-.94-3.16-1.44,1.27,3,2.75,6.27,4.85,8.43a3.06,3.06,0,0,1,.14-2,4.52,4.52,0,0,0,1.13,1.82c.46.31.06-.84-.28-2.27l4.46,3.69L438,397.73c2.19-.29,4.37-.67,6.57-1.07-.43-3.46-1.5-7.34-2.16-11.06s-.93-7.28.3-10.23c2,4,4.7,5,8.24,8.44-2.5-1.19-2.94.05-3.17,1.83s-.29,4-1.84,4.82c1.62-.8,3,1.15,3.25,2.05.16-1.27.33-2.51.47-3.78l.37-3.8c2.82,2.92,3.07,1.21,5.38,1.24-6.62-4.65-.89-6.91-1.16-10.34,2.12,1.64,3.84,3.92,1.33,5.69,3.35.79,2.35-1.57,1.14-4s-2.52-4.83.47-4.4c-.41.59-1,.61-.1,1.71a2.76,2.76,0,0,1,1.5-3.15,2.09,2.09,0,0,1,3,.54l-.41.61a19.4,19.4,0,0,0,2.92-3.28,18.5,18.5,0,0,0,2.26-4.51,9.37,9.37,0,0,0,.44-4.71,6.12,6.12,0,0,0-2.38-3.85,89.92,89.92,0,0,1,7.66,5.82c-1.22-1.65-2.46-3.26-3.71-4.85s-2.59-3.19-3.91-4.73c-2.65-3.09-5.36-6-8.18-8.85,2.46,1.63,7,3.49,11.22,5.47s7.93,4.19,8.34,6.84a4.42,4.42,0,0,0,1.87-1.46,4.47,4.47,0,0,0,.31-3.45c-1.13.44-8.47-1.88-8.49-3.07,3.56.1,4.59,0,5.54-.28s1.8-.61,5.1-1.37c-.82.36-3.2-.7-5.27-2s-3.83-2.87-3.35-3.65c1.16.76,8.49,3.11,9.1,4.14-1.08-1.33-2.17-2.62-3.29-3.89s-2.32-2.52-3.51-3.72c1.18,1.61,7.15,2.68,9.94,2.33-.92,0-.54-1.06,0-2.3s1.15-2.76.9-3.53c-.85.54-1.7,1.07-2.54,1.57,1.36-2.61-1.38-4.76-4.28-6.68s-6.12-3.74-5.5-6.08c1.75.77,11.07,3.27,12.64.51-1.54-.66-4.59-1.86-8.06-3.19s-7.38-2.79-10.61-4.11l7.17,4.45c.33,1.54.68,2.91,1,4a25.45,25.45,0,0,1,.62,2.69c-.66-.62-1.33-1.2-2-1.75.07.61.16,1.19.27,1.76s.27,1.17.42,1.72a36.36,36.36,0,0,1-2.6-3.83,34.88,34.88,0,0,1-2.47-5.12,31.74,31.74,0,0,1-2.08-12.14v-.43l14.09,9.18c2.28,1.49,4.26,2.8,5.65,3.91,2.19-2,3.11-.48,3.17-3.56l.69-35L462.38,300l-.29.19a1.6,1.6,0,0,1-.86-2.31l2.66-6.45,28,25.51a4.72,4.72,0,0,1,1.26,2.8l.73-2.72,10.55-39.39-44.19,18.51c-1.31.54-2.62,1.12-3.91,1.75s-2.5,1.35-3.71,2.09c1.9,1.93,1,4.41.39,6.74a12.45,12.45,0,0,0-.52,3.3,3.24,3.24,0,0,0,1.37,2.52,35.23,35.23,0,0,1,4.82-11.69c1.67,2.1,2.28,6.3,2.49,10s.09,7.08-1.85,8.8c-1.23-.12-3-1.72-4.62-3.53s-2.91-3.8-3.66-4.31a7.4,7.4,0,0,1-.29,4.21c-.41,1.49-1.05,2.7-1.77,2.61-.35-1.24-.68-2.52-1-3.83a2.3,2.3,0,0,0-1.21,2.23,13.88,13.88,0,0,0,.6,2.93,4.89,4.89,0,0,1,.2,2.63c-.26.75-1,1.32-2.52,1.65-.43.52-2.43.73-3.93,1s-2.59.68-1.15,1.36c6.57.13,24,7.55,28,10.09-.25,0-2,.54-4.16,1.17a34.19,34.19,0,0,1-6.21,1.49c-2.55.08-5.11-1.34-7.55-2.85s-4.76-3.11-7-3a9.09,9.09,0,0,1,3.22,2.63c-1.54.76-4.21-1.8-4.31.87,5.09,1.94-1.82,4.75,4.1,2.41.84,2.74-1.75,2.12-2.22,4.85,3.62.08,11,5.41,11.91,8a11.83,11.83,0,0,0-4-.38c-1.57,4.42-4.63,6.28-5.61,10.56-1.38.1-3.4,1.83-5.5.43.81.84,2.48,1.8,2.31,3.16-5.18,1.58,0-3.13-6-2.37,3,.84,3.52,4.39,5.08,6.69,4.92.41,1.81-4.16.33-6.49,6.58,1.46,12.75,6.22,14.94,11.19.94,3.79-4.58.65-3.77,1.44-1.23,3.17,1.43,5.13,3.64,6.83s4,3.14,1.13,5.42c-4.6,1.42-8.44-1.35-11.58-1.4-1.14-3.18,3.47-4,3.65-5.92l-2.45,2c-1.24-1.17-1.94-3.3-.52-4.12-2.06.56-2.81,3.35-3.5,6.57s-1.43,6.87-3.56,9.21c1.28,1.15,2.53,3,4.35,2.46l-.35-1.73c3.65-1,4.29,3.77,6.2,2,2.08,2.53,5.51,5.45,3.2,8.21l-4.94-.07c1.43.12,3.15-1.61,1.78-2.66,2,1.54-7.19,3.84-1,6l3.65-1.71c2.14,2.48,7,5.73,5.19,8.2,4.95-.66-.48-.68,5.36-1.91-3.59.41-3.35-1.27-3.12-2.83s.41-3-3.44-2.16c6.78-1.1,3.2-3,9.09-4.73-1.62-.15-3.2.45-2.08-1.63a8.78,8.78,0,0,1-1.34-.69.86.86,0,0,1,.14-.13l-.21.1c-.23-.13-.28-.15-.07,0a6.2,6.2,0,0,1-2.6.78c-3.52-1.62-2.87-5.16-4.6-6.66,1-1.21,1.76.84,3.57.38l-2.56-2.24c3.57.38,6.48-2.53,8,.88l.62-2.73c2.27-1.29,3.4-3.37,2.18-5,1-1.15-3.3-4-.75-2.35l-1.38-4.74.89.13c.65-2.08-.35-4.56-.61-7s.33-4.77,4-6.47c-.57-1.63-1.31-3.36.27-5.5l3.14.27c-.61-2.08,4.33-4.67,1.42-6.24,4.31.07,5.32-2,5.54-4.39s-.4-4.68.7-5.66L476.82,344c.79-1.65.24-3.47-.46-5.86l-3.31-1.39c-1-1.44.16-2.21,1.53-2.67s3-.47,3.29-1.09c1,1,.49,1-.36.73a10.36,10.36,0,0,0,2.44.9c.36.08.34-.23.2-.59l-.31-.74c-.11-.26-.23-.55-.34-.87a5.5,5.5,0,0,1-.38-1.69l-24.56-15.24c.53,1.07.41,2.13-1.37,2.89.62.46.81.84.73,1.15s-.5.55-1,.76a.31.31,0,0,0-.16-.22.93.93,0,0,0-.1.32c-.67.26-1.44.5-2.06.78a7.13,7.13,0,0,0,2.05-.61,4.81,4.81,0,0,0,1,2.71l-3.84-.38c0,.08,0,.13.06.22-1.61.53,1.6,1.1,4.56,1.22a9.41,9.41,0,0,0,1.94,1.78c-3.12-.33-2.75.38-2.46,1.17s.48,1.62-2.86,1.14c1.45.77,1.64,2.12,2.26,3.67a8.18,8.18,0,0,0,4.5,4.83c-.84-.3-1.35-.17-1.18-.73-1.19.84-2.28,1.62-1.06,3.4L450.92,338q2.43,2.54,4.77,5.28c-3.42.14-5.27-.22-7.84-3.29,1.66,2.95,1.74,3.94,1.87,4.82a6.21,6.21,0,0,0,.39,1.55,26.81,26.81,0,0,0,1.41,3.1l-2.6-1.81c-.53,1,2,5.05-.61,4.2a5.09,5.09,0,0,0-4.19,1.16,26.38,26.38,0,0,0-3.63,3.77,33.25,33.25,0,0,1-4.27,4.29,12.17,12.17,0,0,1-5.74,2.53c3.87,2.72,2.53,2.6.87,2.43s-3.62-.41-1.15,2.24c-1.86-1.25-3.4-1.45-4-3.61-.47,2-2.08,2.31-3.19,2.86s-1.81,1.33-.68,4.42c-1.79-1.36-1.61-2.9-2.77-3.62.12.54.46,2.18-.7,1.45s-.86-1.72-1.1-2.8c-2.36,2.67,1.8,8,5.79,13-3.46-1-3.86-.08-2.26,4-1.88-1.16-4.13-2.11-2.79-4.21-1.24.63-8.22,2.84-5.17,6.89-1.15-.76-1.72.87-1.64,1.55-2.58,1.64-3.06,1.44-5.16,3.6l1.16.17c2.75,5.64-1.18,2.61-2.68,4.65l-.31-.55c-7.11-.42-.73,3.16-8.11,2.11l2.42,3c2.14,3.54.42,3.23-1.91,2.57s-5.24-1.68-5.72.48l2.17,1.21c0,1.66-2.53,0-5.32-2.14s-5.78-4.66-6.77-4.66c-.69-.42-.11-1.27,0-2-6.3-1.83,2.19,4.55,0,7.29-1.94-2-2.95-6.29-5.08-5.57-1-.66-1.23,2.06-1.91,4.55s-1.77,4.84-4.37,3.3c1.61,1.5,3.23,3,2.64,5.1-.87.91-3.24,0-5.2-.38s-3.56-.09-3,3.33a3.54,3.54,0,0,1-1.14-1.26,34.19,34.19,0,0,1-2.2,4,7.46,7.46,0,0,0-1.19,4.92c-3.69-5.56-5.47-2.87-7.13-.21s-3.11,5.41-5.57-.2l-4.85,2.83-.36-1.21c-3.59.6-3.63,3.78-3.73,7-1.08-.45-.94-1.75-1.11-2.37-2.89-.18-4.39-.15-5.43.88s-1.59,3-2.66,6.61l-1.77-3.59c-.08.64-.71.76-1.64.66a15,15,0,0,1-3.22-.72,9.47,9.47,0,0,0-2.69-.63c-.7,0-1.08.41-1.3,1.58,0-.46,0-1.23,0-1.8a1.91,1.91,0,0,1-.08.39c0,.11,0,.19,0,.26a1.72,1.72,0,0,1,0,.18c0,.38,0,.76-.05,1.14s-.09.81-.13,1.15-.07.62-.13.94a16.47,16.47,0,0,1-.36,1.62l-.12.35-.07.25c-.06.16-.12.33-.2.5l-.14.3-.14.26a.11.11,0,0,0,0,0h0a1.36,1.36,0,0,1,.24-.24,1.54,1.54,0,0,1-.19.17l-.17.13s0,0,0,0a1.54,1.54,0,0,1,.34-.17l.09,0,.18-.07.34-.11.31-.07.44-.11a5.64,5.64,0,0,1,.83-.13,2.83,2.83,0,0,0,.43-.05l.44-.05.72,0h-.16a.78.78,0,0,1-.22,0l-.44-.08a2.73,2.73,0,0,1-.87-.3,6.46,6.46,0,0,1-.84-.48c-.26-.2-.52-.42-.79-.65a1.9,1.9,0,0,1-1.63.87,6.19,6.19,0,0,1-2.33-.39c-1.7-.51-3.41-1.76-4.74-.94a1.53,1.53,0,0,1,.6-1.48,4.4,4.4,0,0,1,1.89-.88c1.44-.29,2.87.09,3,1.1l-.77.11c3.58,1.18,4.43.4,5.19-.54s1.38-2.14,3.67-1a25.92,25.92,0,0,1,3.58-5.4c.74-.92,1.51-1.81,2.3-2.69.39-.43.78-.87,1.19-1.29l1.27-1.23c1.7-1.63,3.4-3.21,5-4.83a56,56,0,0,0,4.56-4.87l-5.31-2.66,2.13-2.32c1.57.16,4.28,1.91,2.8,3.52,3.32,1.09-.06-4.66-1-5.48,2.31-1,3.37.45,4,1.94s.8,3.08,1.27,2.62l.77-1.63-.79-.12c-1-2.59-2.85-4.29-.94-6.17,2-.56,3.32,1.64,3.91,1.28.32.27.6.23.76-.66.91-.91,1.91-1.73,2.9-2.57l-4.52-1.89c-.55-2.79,2.67-2.59-2.48-4.7a6.34,6.34,0,0,0,5.23,0,14.86,14.86,0,0,0,4.12-3.12c2.52-2.48,4.46-5.38,5.9-5.06-.57-4.11,1.34-5.71,3.83-7.44-1.19-.22-5-3.76-2.61-5.09,3.2,4.36,4.81,4.37,6.53,4s3.48-1.31,6.71,1c-4.68-2.79,4.8-5.56-1.95-9.45,2.28-.61,2.58,3.08,5.43,4.11.76-3.15,3.43-4.33,6.38-5.23s6.31-1.38,8.49-3.7c-.68-1.24-2.72-2.45-2.73-5q3.34,2.1,6.57,4.25c.67-1.2-3.24-7.52,1.21-4.51-.88-.85-2.21-2.13-1.72-3a21.36,21.36,0,0,0,9.26-2.65c1.39-.72,2.67-1.67,4-2.46l4-2.53a31.43,31.43,0,0,1,4.2-2.25,21.14,21.14,0,0,1,4.6-1.33,16.07,16.07,0,0,1,5.05-.06,20.35,20.35,0,0,1,5.64,1.94c-2.48-2-1.54-2.63-.37-3.16-1-.33-1.14-3.28-1.93-5l3.35,1.61c1.1.53,2.2,1.07,3.3,1.68-.7-5.31,5.21-1.94,4.31-7l-1.35,1.36c.22-3.19-1.45-6.15-3.5-9.22s-4.46-6.24-5.45-9.95c-.29,3.65-2.77,1.73-5.4.43s-5.46-2.22-5.9,3.11c-1.5-1.13-.06-2.61-1.18-4.09,0,3.48-1,4.53-3.94,4.2l0-.87a19,19,0,0,1-8.79,2.39,86,86,0,0,0-10.3,1.15l2.25,3.12c-1.83.31-2.71-.59-3.87-1,.42,3.05,1.54,2.5,2.74,2.08s2.47-.75,3.05,2.48a4.76,4.76,0,0,0-4.17-1.74,14.23,14.23,0,0,0-4.13,1.5c-2.73,1.31-5.46,2.41-8.33-.94-2.4,1.39,2.88,3.38.51,4.75l-1.83-1.67,1,3c-1.78.49-4.1-1.58-5.21-3.25.5,0,.78-1.13,1.1-1.53-3.49-1.13-5.26,4.25-6.37,4,1-.1,2-.17,3-.21-.67.71-1.38,1.4-2.12,2.08s-1.54,1.3-2.36,1.91c-1.64,1.21-3.38,2.36-5.08,3.56-3.3,2.52-6.35,5.38-7.75,9.43l1.54,1.08c-2.16,6-4.62,1.23-8.29,6.23l-.11-.46c.21,2.1-.36,3.85-1.69,4.8-.27-2.6-4.83-1.11-4.9-4.19-1,3.35-1.1,4.35-.72,5.47a33.49,33.49,0,0,1,2.07,6.07l-2.7-1.54c.94,2.87,1.85,4,.33,6.56-.09-3.51-4.52-1.85-5-6.18-4.52-.05-5.07,2.79-5.47,5s-.69,4-5.18,1.86c4.15,7.65,7-.95,7.21,1.44,2.84.86,2.93,5.92,1.06,6.76-.72.66-3.23-.49-6-1.28a13.93,13.93,0,0,0-4.13-.68,4,4,0,0,0-3.2,1.48c.35-.37-.1-.8.25-1.16-2.83.15-.18,4.7-4.31,4.38,3.06,4.11-2.17,2.19,2.61,6.38.56-1.5,1.16-3,1.75-4.49-.18,1.54.79,3.93,1.15,6s.2,4-2.5,4.65a10.94,10.94,0,0,1-1.65-4.32c-2.24-.11-.44,2.68-2.76,2.59-2.44-2-1.88-3.37-1-4.86a11.27,11.27,0,0,0,1.28-2.44,4.59,4.59,0,0,0-.11-3.25c-3-.6.33,7.1-4.26,1.77,2.84,3.49,1.89,4.32.6,5.16s-2.9,1.71-1.2,5l-3-2.37c.08.39.31,1.08.45,1.76a2.24,2.24,0,0,1-.12,1.78c-1-1.44-2-2.9-3-4.35.9,2.38-.59,3-2.32,3.5s-3.64.87-3.45,2.65c3.1-4.89,4.54,1.43,8.18,1,.2,4.28-2.4,3.73-5.46,3.11s-6.52-1.3-7.79,2.65c.1-1.23,4-2.32,4.66.05a10.25,10.25,0,0,1-5.91,1.67c-2,5,3.8,1.26,4.68,4.37-2.46-.39-2.38.4-1.66,1.61.35.63.89,1.28,1.3,2.08a5.84,5.84,0,0,1,.75,2.42l-3.44-1.74c-2.85,2.93-1.17,4.4.48,5.47a5,5,0,0,1,1.93,1.78c.31.73.06,1.54-1.16,3-.71-.73-1.41-1.5-2.09-2.29s-1.34-1.57-2-2.39c0,1.4,0,2.85,0,4.32-1.34-.68-2.65-1.35-4-2.07a24.77,24.77,0,0,1,.86,3.59,10,10,0,0,1,.05,2.82c-.16,1.88-.95,3.6-1.32,7.18a4.19,4.19,0,0,1,4.56.18,7.31,7.31,0,0,1,2.1,1.94,12.62,12.62,0,0,1,1.65,3.17,3.2,3.2,0,0,1-.88,1.92,3,3,0,0,1-1,.38c-.26.1-.39.3-.16,1a8.84,8.84,0,0,0,.66,1.45c.38.61.9,1.39,1.62,2.33a8.49,8.49,0,0,1-4.67-1.57c-1.23-1.06-1.94-3-.77-5.46a5.28,5.28,0,0,1-2.12-.81,7.34,7.34,0,0,0-2.05-.92,9.32,9.32,0,0,0,0,4.78,13.49,13.49,0,0,0,.88,2.57,18.56,18.56,0,0,0,1.29,2.46,32.92,32.92,0,0,0,6.19,6.79,9.63,9.63,0,0,1-2.35-3.92,30.54,30.54,0,0,0,3.66,2.08,26.92,26.92,0,0,0,3.78,1.45,22,22,0,0,0,3.78.79c.62.08,1.23.14,1.83.17s1.17,0,1.74,0c.68,1,.61,1.68.06,2.14a5.92,5.92,0,0,1-2.61.89,10.21,10.21,0,0,0,4.15.07c.68-.1,1.41-.17,2.12-.26a14.34,14.34,0,0,1,2.33-.11,17.81,17.81,0,0,1-2,4.3,4.72,4.72,0,0,1-2.08,1.54,9,9,0,0,1-4.06.33,32.49,32.49,0,0,0,3.89.18,34.77,34.77,0,0,0,3.47-.29c1.05-.18,2.07-.39,3.05-.63s1.83-.55,2.67-.86c.33.67,1.69,1.55,2.8,2.36s2,1.58,1.4,2.23c2.9.59,5.63-1.54,7.81-3.65l1.61-1.55a17.43,17.43,0,0,1,1.55-1.31l.4-.26.31-.21a3.23,3.23,0,0,1,.66-.29,2.73,2.73,0,0,1,1.48,0,2.85,2.85,0,0,1,.75-2c3.52-.47,7.83,2,10.15-3.51l4.28,4.34c1.29-1.22-.13-2.55-1.32-4.09s-2.15-3.29-.08-5.28c2.82-3.1,3.15,3.89,5,4.82.7-3.36,1.36-9.95,6.41-7.18C362.3,453.71,361.12,453.3,360.3,454.12Zm34.23-20.4c-.25,1.08-.32,4-2,2.33C391.1,431.79,392.74,433.28,394.53,433.72Zm42.56-42.45c.43,1.32-.64,1.45-2.34,1C435.08,391.55,435.76,391.13,437.09,391.27Zm26.26-1.5-.17-.11C464.92,388.38,464.24,388.82,463.35,389.77Zm-2.19,2.91a2,2,0,0,0,1.57.42c-.92-.38-.87-1.11-.46-1.88C461.23,391.28,460.47,391.58,461.16,392.68ZM346.5,402.21l-1.16-.18C345.36,400.25,345.89,401.2,346.5,402.21Z" transform="translate(4 4)"/><path class="cls-4" d="M435.44,399.7a8,8,0,0,1-1.6-1.38A1.78,1.78,0,0,0,435.44,399.7Z" transform="translate(4 4)"/><path class="cls-4" d="M337.86,465.17c-.05,0-.08,0-.13,0a4.1,4.1,0,0,0,.12.7Z" transform="translate(4 4)"/><path class="cls-4" d="M440.78,334.41a4.18,4.18,0,0,1,2.36-.86A1.74,1.74,0,0,0,440.78,334.41Z" transform="translate(4 4)"/><path class="cls-4" d="M465.21,410.49l-.73-2.15c.06,1-.82,1.25-1.5,1.67C463.88,410.08,465.23,409.85,465.21,410.49Z" transform="translate(4 4)"/><path class="cls-4" d="M439.55,426.16c.45.35,0,.67.46,1l1.79.06C441.78,425.9,440.45,424.84,439.55,426.16Z" transform="translate(4 4)"/><path class="cls-4" d="M452.24,410.84c-3.25-.23-2.3,1.23-1.87,2.77a.46.46,0,0,1,0-.26C454.86,414.29,453.55,412.57,452.24,410.84Z" transform="translate(4 4)"/><path class="cls-4" d="M450.45,414a2.14,2.14,0,0,1-.08,1.37C452.16,415.7,450.81,414.82,450.45,414Z" transform="translate(4 4)"/><path class="cls-4" d="M462.64,397.07c-.93.55,4,1.06,2.68,1.24C469.28,399.7,461.05,393,462.64,397.07Z" transform="translate(4 4)"/><polygon class="cls-4" points="445.48 414.77 449.52 414.71 446.4 413.49 445.48 414.77"/><path class="cls-4" d="M446,399.37l-1.45,2.22a1.51,1.51,0,0,1,1.26.82C446.09,401,447.13,399.48,446,399.37Z" transform="translate(4 4)"/><path class="cls-4" d="M445.76,402.41a1.88,1.88,0,0,0,.42,2A3.92,3.92,0,0,0,445.76,402.41Z" transform="translate(4 4)"/><polygon class="cls-4" points="444.69 411.35 445.61 410.74 446.12 409.09 444.69 411.35"/><path class="cls-4" d="M451.1,374.12l-.59-2.79c-1.29-.54-2.26,0-1.92,1.06C449.4,373.2,449.72,374.25,451.1,374.12Z" transform="translate(4 4)"/><path class="cls-4" d="M438.81,379.89c.95-.56,1.84-.44,3.21-.6l-4.87-1Z" transform="translate(4 4)"/><path class="cls-4" d="M439.15,372c-1.3-.53-3.09-4.63-3.47-1.21C437,371.34,437.54,374.19,439.15,372Z" transform="translate(4 4)"/><path class="cls-4" d="M455.11,334.48l-.17.67,7.72,2.61Q458.88,336.14,455.11,334.48Z" transform="translate(4 4)"/><path class="cls-4" d="M491.06,331.05c2.61-3.71-4.78-1.85-1.79-5-1.76-1.18-2.44,2.56-3.92,1.35C487,330,485.6,331.08,491.06,331.05Z" transform="translate(4 4)"/><path class="cls-4" d="M485.35,327.39a8.85,8.85,0,0,0-1-1.36A4.18,4.18,0,0,0,485.35,327.39Z" transform="translate(4 4)"/><polygon class="cls-4" points="445.12 348.22 447.33 349.32 445.44 347.04 445.12 348.22"/><path class="cls-4" d="M442.8,337.39l1.83,4.87-.2-4.85C444.09,337.76,443.43,338.43,442.8,337.39Z" transform="translate(4 4)"/><path class="cls-4" d="M405.06,439.55l-.51-1.15a1.86,1.86,0,0,0-2.47-.44Z" transform="translate(4 4)"/><polygon class="cls-4" points="381.42 454.58 381.92 454.45 378.97 450.67 381.42 454.58"/><path class="cls-4" d="M357.3,466.35c1-.21,1.73-1.62,2.75-1.84C358.32,466.16,354.81,461,357.3,466.35Z" transform="translate(4 4)"/><path class="cls-4" d="M425.4,671.06c-.47.55,2.82,1.24,3.38,1.5C428.36,671.3,424.55,670.84,425.4,671.06Z" transform="translate(4 4)"/><polygon class="cls-4" points="425.07 662.51 426.33 663.07 423.55 660.61 425.07 662.51"/><path class="cls-4" d="M423.93,648.74c-5.76-.64-.13,3.8-2.58,5l-1.34-.08,4.2,2.06C424.12,653.39,422,649.8,423.93,648.74Z" transform="translate(4 4)"/><path class="cls-4" d="M437.29,646.93c-2.23-.29-1.51-1.65-1,1a5.57,5.57,0,0,1,.6-.07A2.35,2.35,0,0,1,437.29,646.93Z" transform="translate(4 4)"/><path class="cls-4" d="M436.88,647.89c-.14,1.08,2-.16,0,0Z" transform="translate(4 4)"/><path class="cls-4" d="M437,642.79l1.52,1.9c1.34.08,2-1,2.77-.33C440.66,642.67,439.32,642.59,437,642.79Z" transform="translate(4 4)"/><path class="cls-4" d="M433.39,640.35l.6.94C434.56,641.32,434.8,641.18,433.39,640.35Z" transform="translate(4 4)"/><path class="cls-4" d="M435.26,643.27l-1.27-2c-.94-.06-2.73-.55.42.86C432.82,641.56,434.3,642.3,435.26,643.27Z" transform="translate(4 4)"/><path class="cls-4" d="M434.19,643.87c-1.42.42-2.45,1.18-4-.72C430.24,646,434.21,646.68,434.19,643.87Z" transform="translate(4 4)"/><path class="cls-4" d="M418.39,646.62l-1.9.55,1.59,1.41C417.3,647.88,420.13,647.05,418.39,646.62Z" transform="translate(4 4)"/><path class="cls-4" d="M442.3,635.16c-1.15-.42-3.25-.44-4.77-.77l1.05,1.39C439.53,635.5,440.55,634.73,442.3,635.16Z" transform="translate(4 4)"/><path class="cls-4" d="M437.53,634.39,436,632.32C435.34,633.59,436.22,634.11,437.53,634.39Z" transform="translate(4 4)"/><polygon class="cls-4" points="431.37 642.36 434.87 646.03 431.44 641.87 431.37 642.36"/><polygon class="cls-4" points="448.09 633.49 450.55 635.12 446.9 632.42 448.09 633.49"/><path class="cls-4" d="M444.71,625.56c2.06,1.27,4,.23,5.22,1.29-.1-1.14-1.77-2.58-3.27-3.87C447.38,624.1,446.88,624.92,444.71,625.56Z" transform="translate(4 4)"/><path class="cls-4" d="M444.53,620.92a14.67,14.67,0,0,0,2.13,2.06A8,8,0,0,0,444.53,620.92Z" transform="translate(4 4)"/><path class="cls-4" d="M437.27,629.93c.74.09,2.65.4,3.67-.21l-3.45-.36Z" transform="translate(4 4)"/><path class="cls-4" d="M437.38,629.35h.11c.26-.62.46-1,.55-1.22Z" transform="translate(4 4)"/><path class="cls-4" d="M437.21,630.08a.67.67,0,0,0,.06-.15C436.93,629.9,436.81,629.9,437.21,630.08Z" transform="translate(4 4)"/><path class="cls-4" d="M431.47,635.29c-1.59-1.41-3-3.82-6.34-2.85C427.2,633.72,429.09,633.16,431.47,635.29Z" transform="translate(4 4)"/><path class="cls-4" d="M432.9,629.63,431.69,631c.87.22,2.22.3,3,1Z" transform="translate(4 4)"/><polygon class="cls-4" points="436.07 632.55 436.9 633.63 437.34 633.12 436.07 632.55"/><path class="cls-4" d="M440.67,622.76a2.91,2.91,0,0,1-1.12-2.81,4.91,4.91,0,0,0-1.78,2.47C438.77,622.84,440.5,623.77,440.67,622.76Z" transform="translate(4 4)"/><path class="cls-4" d="M438.78,625.88c-.06-.07-.08-.14-.14-.21C438.33,625.68,438.22,625.73,438.78,625.88Z" transform="translate(4 4)"/><path class="cls-4" d="M442,611.6l-.64,0,.56.2Z" transform="translate(4 4)"/><path class="cls-4" d="M437.11,622.39c-.83.5-.14,1.14.75,1.82a3.53,3.53,0,0,1-.09-1.79C437.32,622.22,437,622.12,437.11,622.39Z" transform="translate(4 4)"/><path class="cls-4" d="M443.66,618.14a11.43,11.43,0,0,0-2.14.67C442.65,618.76,444.48,618.52,443.66,618.14Z" transform="translate(4 4)"/><path class="cls-4" d="M439.61,625.7a.79.79,0,0,1,.12.15C440.49,625.82,440.15,625.75,439.61,625.7Z" transform="translate(4 4)"/><path class="cls-4" d="M439.61,625.7a9.69,9.69,0,0,0-1.75-1.49,4.08,4.08,0,0,0,.78,1.46A6.59,6.59,0,0,1,439.61,625.7Z" transform="translate(4 4)"/><path class="cls-4" d="M421.65,603c3,1,5.3,3.62,1.58,4.23,1.84,2.19,12.14,4.09,18.12,4.37a6,6,0,0,1-3.88-2.88c-1.82.07-4.9,2.37-7.27.24-1-2.54,1.58-1.39,3.48-1.94-4-.24-4.75-4.25-10.45-5.41l1.43,2.39C423.78,603.75,422.59,602.68,421.65,603Z" transform="translate(4 4)"/><path class="cls-4" d="M440.18,614.47l.19.75c.74-.58,2.11-.75,4.78-1a6.83,6.83,0,0,0-3.24-2.42l-1.34,3.06Z" transform="translate(4 4)"/><path class="cls-4" d="M439.54,618.13c-3.17-1.46-4.13-3.42-8-3.51-.32,2,2.38,2.13,3.49,3.69.06-3.31,1.59,1.41,4.11-.26a3.63,3.63,0,0,1,.4,1.9,8.64,8.64,0,0,1,2-1.14h-.27c-.46,0-.72,0-.44-.1,0,0,0-.06-.05-.08-.45-.16-.84-.33-1.21-.5.94-.69.9.11,1.21.5l.49.18h0l-.92-3.6C439.72,615.74,439.57,616.58,439.54,618.13Z" transform="translate(4 4)"/><path class="cls-4" d="M418.48,628.75a2.68,2.68,0,0,1,.8.13C418.93,628.56,418.67,628.41,418.48,628.75Z" transform="translate(4 4)"/><path class="cls-4" d="M420.84,628.07c.4.35,1.67.92,1.12,1.55-1.17.34-1.58-.46-2.68-.74.75.69,1.93,2.21,3.94,1.31l-.39-.35c1.49-.91,6.08-1.31,6.48-1A49.8,49.8,0,0,0,420.84,628.07Z" transform="translate(4 4)"/><path class="cls-4" d="M429.37,622.76l-.89-3-3.24.47,1.74.43C425.89,621.9,428.1,622.2,429.37,622.76Z" transform="translate(4 4)"/><polygon class="cls-4" points="447.72 615.79 451.12 617.14 446.61 614.23 447.72 615.79"/><polygon class="cls-4" points="448.27 612.35 451.27 613.35 449.69 611.94 448.27 612.35"/><path class="cls-4" d="M462.34,409.91l-.63-1A2.77,2.77,0,0,0,462.34,409.91Z" transform="translate(4 4)"/><path class="cls-4" d="M460.48,415.28l1.45.58C461.18,415.36,460.61,415.07,460.48,415.28Z" transform="translate(4 4)"/><path class="cls-4" d="M467.82,526.78c3.16-.25,7.92-.17,4.46-1l-3.42-.65C469.23,526,468.68,526.49,467.82,526.78Z" transform="translate(4 4)"/><path class="cls-4" d="M464.63,465.09l-1.1,0,3,1.69Z" transform="translate(4 4)"/><path class="cls-4" d="M451.11,460.18l2.58-.8A7.53,7.53,0,0,0,451.11,460.18Z" transform="translate(4 4)"/><path class="cls-4" d="M467.9,379.2l-3.1-1.92C464.39,378.66,466.28,378.58,467.9,379.2Z" transform="translate(4 4)"/><path class="cls-4" d="M452.94,574a4.79,4.79,0,0,0,2.7-1.77C453.4,572.81,450.26,572.88,452.94,574Z" transform="translate(4 4)"/><path class="cls-4" d="M496.92,422.8a3.25,3.25,0,0,0-1.83-1.26A2.71,2.71,0,0,0,496.92,422.8Z" transform="translate(4 4)"/><path class="cls-4" d="M456.43,569.51a8.77,8.77,0,0,0-.93.26,2.64,2.64,0,0,1,.14,2.46C457.31,571.81,458.47,571.11,456.43,569.51Z" transform="translate(4 4)"/><path class="cls-4" d="M504.14,272.74a4.58,4.58,0,0,1,.47-.12C504.17,272.46,504.11,272.56,504.14,272.74Z" transform="translate(4 4)"/><path class="cls-4" d="M547.42,252.17a3,3,0,0,1-.15,1.36C547.57,253.38,547.67,253,547.42,252.17Z" transform="translate(4 4)"/><path class="cls-4" d="M449.6,595.41c0,.77.33.22,0,0Z" transform="translate(4 4)"/><path class="cls-4" d="M435.42,595a4.67,4.67,0,0,0-1.53-.75A6.07,6.07,0,0,1,435.42,595Z" transform="translate(4 4)"/><path class="cls-4" d="M437.76,556.41s0,0,0-.06C437.07,556.37,437.21,556.37,437.76,556.41Z" transform="translate(4 4)"/><path class="cls-4" d="M447.78,596a3.84,3.84,0,0,0,1.25-.61A4,4,0,0,0,447.78,596Z" transform="translate(4 4)"/><path class="cls-4" d="M449.39,596.35c-.22.2-.35.36-.5.52C449.42,597.12,449.79,597.14,449.39,596.35Z" transform="translate(4 4)"/><path class="cls-4" d="M449.7,594.38a1.68,1.68,0,0,1-.67,1,.78.78,0,0,1,.57,0A8,8,0,0,1,449.7,594.38Z" transform="translate(4 4)"/><path class="cls-4" d="M495,333c.12,0,.2,0,.36,0C494.16,331.78,494.28,332.15,495,333Z" transform="translate(4 4)"/><path class="cls-4" d="M438.71,498.19s.11.09.14.13l.15-.07Z" transform="translate(4 4)"/><path class="cls-4" d="M437,494.92c3.81,2.31,3.12,2.77,2,3.33l9.84,2Z" transform="translate(4 4)"/><path class="cls-4" d="M465.35,396.62l-3.52.86c-4.26-3.64-2.09-4.67-6.79-4.29,10.31,3.43-1.05,7.22,9.26,10.65l-2.54.5c.2-.31-.39-.55-.19-.85-5.67.76,7,4,4.62,6.47a3,3,0,0,1-3.85,0l1.87,3.06c-.4.6-2.16-.11-1.75-.71l-.24,3.72-.29-.12a45.34,45.34,0,0,1,4.56,3.76c-1.77.43-1-.78-2.33-.95l1.93,2.69c-2.94,0-5.06-2.43-4.27-3.63-10.93-1.37,2.12,2.38-5.12,4.41l-.76-2.21c-6.25-.63-4.54,1.44-8.84,2.38,2.07.09,10.51-1.3,12.46,1.58-1,.35-1.57,1,.18,2.77-3.7-1.11-3.12.26-3.33,1.7l-4.87-1.58c1,1.92,3.49,2.56,5.43,4.1-1,1.51-4.88.7-8.19.12-1.59,2.42,6.63,0,6.61,3.44-2.55,1.64-1,3.79,1.11,7.32-2.16,1-2.91-1.18-4.48-1.05l3.49,2.56c-.2.3-1.36-.17-1.95-.41,1.17,1.61,4.87,1.58,5.64,3.79,5.25,2.12-9,1.34-3.56,5.44-1.56.13-2.92-1.17-4.87-1.58,3.1,4.3,2.13,3.53,6.78,7.69l-3.86,1.18c4.15-.47,7.9,2.86,10.94,5.71,1.94,0,3.64,0,4.48-.13l1.78,3.61c-.9.1-2.5-.69-4.41-1.77.35.32.69.62,1,.87-2.12.47-4.79-.91-7.31-2.45,1.07-.06,2.21-.09,3.34-.11a36,36,0,0,0-8.79-4,2.66,2.66,0,0,1,1.05,1.32,6.14,6.14,0,0,0-2-.82c-.54-.06.45.56,1.57,1.4l-5.66-1,2.12.81-4.53,2.67c4.7,4.3,12.11,9,13.1,13.91-3.7-2.24-6.48-2.19-11.21-3.67,5.37.36-1.15-3.89.52-5.76-.87,1-3.06,0-3.76-.48l3.4,5.25c-3.86-1.25-3.15,0-5.07.49,7.91,1.53,4.25,4.43,6.13,6.71-2.6-.67-5.13-1.84-3.92-3.58-6.42.4,8.19,5.45,2.65,6.07.08-.49.55-.63-.71-1.21,2,1.79-.65,3.94-2.7,2.63l.08-.48c-1.84,2.85-2.9,9.5,3.48,11.91-.85-.22-7.74-2.75-9-3.34l20.27,12.12c-5.45-2.16-19.35-4.25-21.74-7.78-1,.5-2.23,1.15-.72,3.31.95-.27,8.48,1.14,8.78,2-6.8.05-3.73.33-9.74,1.1,1.42-.41,10,3,9.32,4.17-1.26-.58-8.7-2.48-9.48-3.19l7.73,5.56c-1.33-1.21-7.27-2.3-9.91-2.36,1.79.19-.92,2.55-.3,3.6l2.38-.68c-2.32,3,11.13,6.95,9.68,10.16-1.66-.93-10.67-4.25-12.26-2.87,4.19,2.1,20.22,9.76,22.75,13.73l-2.7-.18,2.21,3.13c-6.23-3.38-19-11.5-23.84-15.29-2.37.68-3.09-.53-3.42,1.44a3.06,3.06,0,0,1-3.25-2.7l-2.84,4c5.21,1.33,4.17,4.9,8.52,6l-3.93-6.38c5.21,1.33,13.81,7.1,12,10-2.29.19-9-3.31-10.75-3.75,1.65.93,2.52,4,1.17,3.89l-2.36-2.15c-2.46,1.17,6,4.86.45,5.51-.54.62-7.27.2-4.26,1.22,6.24.56,24.51,5.7,28.7,7.79-.47.13-6.74,2.13-9.89,2.09-5-.17-10.48-5-14.74-5.18a11.43,11.43,0,0,1,3.42,2.07c-1.43.4-4.27-1.6-4.12.24,5.14,1.81-1.43,3.22,4.19,2.08,1,2-1.59,1.39-1.91,3.35,3.56.4,11,5.09,12,7.14a15.68,15.68,0,0,0-4-.69c-1.45,3.16-4.34,4.24-5.29,7.31-1.35-.09-3.32.95-5.39-.34.8.71,2.46,1.64,2.3,2.63-5.06.52-.08-2.33-5.93-2.52,3,1,3.48,3.69,5,5.6,4.82,1,1.82-2.86.32-4.77,6.48,1.89,12.57,6.23,14.63,10.33.86,3-4.51-.12-3.72.6-2.54,4.47,10.11,7.4,4.27,10-4.59.38-8.23-2.32-11.31-2.84-1-2.54,3.55-2.44,3.8-3.9L434,579.7c-1.18-1.06-1.81-2.76-.4-3.17-4.09.25-3.09,7.92-7.59,10.63,1.19,1.06,2.3,2.62,4.11,2.56l-.23-1.34c3.64-.11,4,3.55,5.95,2.52,1.88,2.26,5.05,5.09,2.52,6.76l-4.83-.95c1.39.35,3.23-.64,2-1.68,1.83,1.53-7.36,1.55-1.49,4.35l3.72-.6c1.91,2.27,6.34,5.67,4.29,7.2,4.91.46-.41-.6,5.44-.42-7.12-.75,1.75-4.94-5.93-5.06,6.73.4,3.39-1.7,9.32-2-1.57-.4-3.16-.21-1.92-1.63a11.62,11.62,0,0,1-1.26-.76.71.71,0,0,1,.15-.08l-.21,0c-.22-.14-.27-.16-.07,0a7.06,7.06,0,0,1-2.61.16c-3.33-1.86-2.46-4.45-4.05-5.87,1-.77,1.67.93,3.48.87l-2.38-2.13c3.49.88,6.49-.92,7.84,2l.76-2c2.29-.65,3.55-2.11,2.4-3.56,1-.76-3.09-3.59-.64-2l-1.19-3.87.87.22c1.37-3.08-3.78-8.27,3.52-10.12-.55-1.33-1.29-2.76.21-4.28l3.09.53c-.63-1.69,4.21-3.29,1.28-4.79,8.46.86,3.73-6.21,5.87-8.23l-3.87-1.24c.71-1.61.08-3.54-.87-6.08l-3.47-.89c-2.3-2.63,3.8-3.89,4.29-6.84,1.25.59.7,1.2-.25,1.48,8.77-1.09-3.52-8.83,3.05-10.23-1-1.13-.44-1.56.58-1.84,0,.07,0,.15.13.24a.76.76,0,0,0,.14-.3c.69-.16,1.48-.31,2.14-.52a7.6,7.6,0,0,0-2.11.35,4.63,4.63,0,0,0-.66-2.77l3.81.72c0-.09,0-.14-.05-.23,1.62-.46-1.54-1.22-4.46-1.58a8.78,8.78,0,0,0-1.87-1.82c6.16,1.07-1.33-2.91,5.31-2-2.92-1.52-1-5.11-7.41-7.52.86.22,1.35.08,1.26.57,1-.76,2.07-1.51.49-2.94l4.82,1-5.68-4c3.25-.44,5.08-.48,8.3,1.88-4.63-4.77-1.34-3.15-6.05-7.44l3,1c.16-1-3.46-3.71-.77-3.54,6.4-.39,3.93-10.24,10.92-14.06-9.25-1.63,4.75-1.33-2.11-3.62,2.21.32,3.63-.08,5.2,1.35-1.23-3.39,4.61-3.15-.65-6.82,2.21.32,2.91,1.52,4.25,1.62-.39-.36-1.57-1.44-.22-1.34s1.65.93,2.44,1.65c.49-2.94-5.93-5.18-12-7.23,3.32-.56,3.13-1.4-.57-3.64,2.15.1,4.49-.11,4.68,1.87.59-.9,4.75-5.16-.11-6.74,1.33.06.78-1.28.29-1.71,1-2.13,1.46-2.19,1.65-4.51l-1,.36c-5.64-2.65-.77-2.21-.94-4.18l.58.23c5.49-2.74-1.51-2.36,4.56-4.86L479,446c-7.78-2.76,5.73-2.11,3.41-5.33l-2.35.19c-2.32-2.08,11.81-.26,13.18-1.22.77-.07,1,.77,1.35,1.3,5.67-1.89-4.67-1.88-5-4.69,2.73.33,6.42,2.59,7.41,1.08,2.35-.19-7-7.38-1.3-8.13-2.15-.11-4.3-.23-5.45-1.83-.18-2,9-2.44,3.19-5.95a4.43,4.43,0,0,1,1.66.16c-1.21-1.84-1.36-5.19-4.53-7,13.05,2.63-3.62-10.23,8.06-6.63l.64-4.32,1.16.48c1.58-2.41-.93-4.2-3.45-6,1-.36,1.94.42,2.53.66,3.55-3.13,3.17-3.67-1.66-8.69l3.89.83c-1.93-1.56,7.66-3.74,4.4-8.89a4.91,4.91,0,0,1,1.58.94c-3.14-5.62,13.64-6.93.33-12.75l-2.53-3.86c-2.19,3.3-5.82-2.39-8.57-1.6-.37-1.68,5.3-2.41,5.47-.43l-.78.06c7,2.87,3.95-3.73,8.82-2.11,1.85-7.26,8-13,10.39-19.56l-5.83-1,1-2.24c1.49-.2,4.63.54,3.87,2.14,3.44.11-1.78-3.62-3-4.05,3.28-2.55,6.12,3.31,6.56,2.35v-1.49l-.75.11c-1.93-1.82-4.33-2.67-3.43-4.58,1.52-.92,3.65.42,4,0,.4.13.64,0,.4-.71l1.4-2.79-4.78-.2c-1.77-2,1.09-2.69-4.32-2.9,8.32.42,6.19-10.09,9-10.56-2.64-2.83-2-4.62-.92-6.72-1.1.26-6.15-1-5-2.7,10,3.92,5.55-2.12,13.4-1.36-5.32-.15.51-5.84-7.1-5.85,1.33-1.34,3.85,1.11,6.64.65-2.76-5.07,5.23-7.6,5.38-12.73-1.32-.5-3.62-.36-5.29-2l7.49-.37c-.36-1.14-7.47-3.31-2.27-3.53-1.21-.12-3-.3-3.25-1.06,9.45-7.17.63-20.58,15.89-26-3,.44-3-.49-2.77-1.49-.82.44-3.31-1.07-5.17-1.52l6.3-2.32c-4.81-2.32,1-4.31-3.69-6.27l.48,1.53c-5.17-3.48-13.39-1.73-20.61-4.3,5.88,3.92-11.14,1.83-2.85,7.83-1.7.19-2.17-1.33-4-1.51,2.88,1.77,3.23,2.91,1.28,4.19l-.71-.44c-.78,5.09-4.54,6.18-8.32,11l3.74.75c-.85,1-2.07.9-3.15,1.16,5.06,3.09,1.36-3.19,7-.05-7.84-.77-2.73,8.23-11.41,6.63-.62,1.79,4.35.8,3.73,2.58l-2.42-.23,2.77,1.37c-.85,1-3.87.73-5.8.17.32-.21-.27-1-.34-1.34-3.15.69-.46,4.61-1.49,4.86l1.94-1.29c.56,5.59-4.32,10.66-1.21,16.86l1.82.18c2,4.62-2.79,2.32-2.58,6.76l-.36-.27c1.45,1.33,2,2.67,1.43,3.7-1.68-1.64-4.47.67-6.27-1.35,2.15,5,2.05,2.79,7.57,7.38l-3-.29c2.29,1.69,3.61,2.19,3.72,4.41-1.92-2.4-4.71-.08-7.35-2.92-7.51,2.24,4.31,8.16-5.35,7.25,7.24,4.37,5.48-2.26,6.83-.66,2.84-.1,5.36,3.42,4.16,4.48-.59,1.28-10.74-.87-11.63,2.54.14-.32-.45-.53-.31-.85-2.39.63,1.94,3.31-1.79,3.84,4.47,2.34-.89,1.91,5.07,4.05l-.44-3.52c1,2.24,7.6,6.08,3.27,7.89A12.52,12.52,0,0,1,495,333c-2,.29.67,2-1.43,2.29-6-2.13-.15-4.15-4.18-7.46-2.83.11,3.28,4.91-3,1.92,7.91,4-2.09,3,3.57,7.24l-3.58-1.27c.46.53,1.94,1.81,1.64,2.44l-4.33-2.66c3.44,3.09-4.62,2.46-3,4.91,1-3.74,4.62.53,7.76-.21,3.43,6.07-10.3-.33-10.14,5.33-.3-.85,3-1.93,4.32-.32a8.91,8.91,0,0,1-4.93,1.6c-.29,3.62,3.9.64,5.68,2.77-4.78-.22,1.28,2.22,2.24,4.15l-3.69-1.14c-3.57,3.13,7.36,3.41,3.42,6l-4.65-3.05.76,2.22L477.38,356c2.5,2.94,1.51,3.3-.27,4.87,2.73.35,6.61,2.32,6.2,4.06-2.55.49-3.3-1.73-3.53.85-2.13-1.26-4.84-2.75-1.13-2.76-1.16-.48-2.14-1.25-3.29-1.73-2.91.48-1.55,3-1.79,3.87a1.6,1.6,0,0,1,1.15-.69l4,5.1a4.72,4.72,0,0,1-3.49-1.43c.18.84,1.73,1.85,1.72,3-2.91-1.2-6-2.09-7-4l2.29,4.38c-1.37-.18-4.11.61-5.08-.16-2.33,1.31,4.42,6.35,1.34,8.09a2.85,2.85,0,0,1,1.28,1.39c-1.39,2.11-5.7,3-2.43,7l-5.86-.09c.56,2.52,7.42,0,8.35,4.17.94,3.06-4.88-.46-6.64,0,2.32,2.09,7.17,6,2.08,7C464.55,397.83,465.53,397.47,465.35,396.62Zm-5.7,27.24c-.62-.75-2.7-2.5-.41-2.22C463.29,423.52,461.13,423.35,459.65,423.86Zm-3.3,43c-1.1-.75-.32-1.16,1.28-1.41C457.78,466,457.48,466.53,456.35,466.86Zm-7.52,120-.16-.11C450.45,586,449.75,586.22,448.83,586.82Zm-2.3,1.91a2.5,2.5,0,0,0,1.51.57c-.89-.43-.8-1-.35-1.52C446.67,587.67,445.91,587.78,446.53,588.73Zm75.56-255.51-1.11.16C520.24,332,521.12,332.6,522.09,333.22Z" transform="translate(4 4)"/><path class="cls-4" d="M452.67,460.76a12.12,12.12,0,0,1,2.07.39A2.41,2.41,0,0,0,452.67,460.76Z" transform="translate(4 4)"/><path class="cls-4" d="M468.48,379.55s0-.05.07-.07a5.3,5.3,0,0,0-.65-.28Z" transform="translate(4 4)"/><path class="cls-4" d="M426,542.61a4.55,4.55,0,0,1,2.19-.39C427.24,541.93,426.41,541.93,426,542.61Z" transform="translate(4 4)"/><path class="cls-4" d="M449.16,603.19l-.52-1.81c0,.79-.92.82-1.62,1C447.9,602.62,449.23,602.69,449.16,603.19Z" transform="translate(4 4)"/><path class="cls-4" d="M422.37,609.79c.39.35-.09.48.31.84l1.74.44A1.31,1.31,0,0,0,422.37,609.79Z" transform="translate(4 4)"/><path class="cls-4" d="M436.43,601c-3.15-.78-2.37.48-2.1,1.72a.25.25,0,0,1,.05-.19C438.65,604.13,437.54,602.57,436.43,601Z" transform="translate(4 4)"/><path class="cls-4" d="M434.36,603a1.23,1.23,0,0,1-.21,1C435.86,604.66,434.63,603.74,434.36,603Z" transform="translate(4 4)"/><path class="cls-4" d="M447.71,592.35c-.94.28,3.9,1.48,2.55,1.4C454.06,595.47,446.44,589,447.71,592.35Z" transform="translate(4 4)"/><polygon class="cls-4" points="429.91 602.91 433.87 603.64 430.94 602.14 429.91 602.91"/><path class="cls-4" d="M431.19,591.28l-1.57,1.4a1.72,1.72,0,0,1,1.18.83C431.24,592.5,432.34,591.57,431.19,591.28Z" transform="translate(4 4)"/><path class="cls-4" d="M430.8,593.51a1.24,1.24,0,0,0,.24,1.57A2.38,2.38,0,0,0,430.8,593.51Z" transform="translate(4 4)"/><polygon class="cls-4" points="429.43 600.23 430.38 599.96 431.01 598.83 429.43 600.23"/><path class="cls-4" d="M437.29,573.12l-.55-2.19c-1.27-.57-2.22-.3-1.9.55C435.63,572.19,435.93,573,437.29,573.12Z" transform="translate(4 4)"/><path class="cls-4" d="M425.11,575.68a9.59,9.59,0,0,1,3.16,0l-4.75-1.45Z" transform="translate(4 4)"/><path class="cls-4" d="M425.59,569.91c-1.27-.57-3-3.82-3.4-1.36C423.44,569.12,424,571.31,425.59,569.91Z" transform="translate(4 4)"/><polygon class="cls-4" points="443.87 547.57 443.79 548.07 451.63 550.3 443.87 547.57"/><path class="cls-4" d="M428.5,513.27c-2.53,1.65,4.67,2,1.74,3.26,1.69,1.07,2.39-1.07,3.83-.06C432.51,514.55,433.82,514.18,428.5,513.27Z" transform="translate(4 4)"/><path class="cls-4" d="M434.07,516.47a8.83,8.83,0,0,0,1,1A4.08,4.08,0,0,0,434.07,516.47Z" transform="translate(4 4)"/><polygon class="cls-4" points="557.24 252.34 559.3 251.45 556.41 251.53 557.24 252.34"/><path class="cls-4" d="M548.34,243.8l5,1.25-4.2-2.28C549.31,243.16,549.54,243.91,548.34,243.8Z" transform="translate(4 4)"/><path class="cls-4" d="M448.44,424.76l1.17.47c1.36.17,1.55-.13,2-.73Z" transform="translate(4 4)"/><polygon class="cls-4" points="462.02 410.64 461.82 410.94 466.5 411.69 462.02 410.64"/><path class="cls-4" d="M457.24,388.73c-.4.6.37,1.69,0,2.29C456.84,389.33,462.88,390.27,457.24,388.73Z" transform="translate(4 4)"/><path class="cls-4" d="M674,369.88c.61.23.11-3.09.14-3.7C673.27,367,674.15,370.74,674,369.88Z" transform="translate(4 4)"/><polygon class="cls-4" points="669.11 382.35 669.15 380.97 668.05 384.44 669.11 382.35"/><path class="cls-4" d="M656.13,379.12c1.4,5.61,3.16-1.22,5,.65l.38,1.28.29-4.65C659.88,377.31,657.65,380.58,656.13,379.12Z" transform="translate(4 4)"/><path class="cls-4" d="M650.11,367.33c.52,2.18-.85,2,1.19.57-.13-.23-.18-.37-.26-.54A1.84,1.84,0,0,1,650.11,367.33Z" transform="translate(4 4)"/><path class="cls-4" d="M651,367.36c.94-.25-.8-1.79,0,0Z" transform="translate(4 4)"/><path class="cls-4" d="M646.78,369.08l1.05-2.1c-.39-1.28-1.54-1.46-1.22-2.46C645.43,365.74,645.83,367,646.78,369.08Z" transform="translate(4 4)"/><path class="cls-4" d="M646,373.34l.56-.9C646.41,371.91,646.22,371.73,646,373.34Z" transform="translate(4 4)"/><path class="cls-4" d="M647.78,370.54l-1.2,1.9c.28.9.48,2.74.57-.7C647.21,373.44,647.31,371.79,647.78,370.54Z" transform="translate(4 4)"/><path class="cls-4" d="M648.64,371.32c.83,1.17,1.81,1.86.76,3.95C651.7,374.24,651,370.29,648.64,371.32Z" transform="translate(4 4)"/><path class="cls-4" d="M656.24,385.05l1.1,1.58.62-2C657.65,385.62,656,383.27,656.24,385.05Z" transform="translate(4 4)"/><path class="cls-4" d="M638.68,366.94c.05,1.21.76,3.17,1,4.71l.78-1.48C639.91,369.39,638.93,368.72,638.68,366.94Z" transform="translate(4 4)"/><path class="cls-4" d="M639.69,371.65l-1.16,2.22C639.79,374,639.91,373,639.69,371.65Z" transform="translate(4 4)"/><polygon class="cls-4" points="650.44 383.67 652.26 379.08 650.01 383.78 650.44 383.67"/><polygon class="cls-4" points="637.37 371.35 637.86 368.47 636.92 372.85 637.37 371.35"/><path class="cls-4" d="M629.92,368.23c.33-2.38-1.23-3.83-.77-5.32-.91.52-1.5,2.6-2,4.47C627.78,366.29,628.64,366.45,629.92,368.23Z" transform="translate(4 4)"/><path class="cls-4" d="M626.18,370.12a18.06,18.06,0,0,0,.94-2.74A7.93,7.93,0,0,0,626.18,370.12Z" transform="translate(4 4)"/><path class="cls-4" d="M636.12,373.51c-.19-.72-.6-2.6-1.46-3.32l.91,3.34Z" transform="translate(4 4)"/><path class="cls-4" d="M635.6,373.63l0-.1c-.6,0-1,0-1.19-.07Z" transform="translate(4 4)"/><path class="cls-4" d="M636.26,373.51h-.14C636.21,373.85,636.25,374,636.26,373.51Z" transform="translate(4 4)"/><path class="cls-4" d="M642.52,377c-.62,2-2.08,4.19-.15,6.93C642.7,381.51,641.6,380,642.52,377Z" transform="translate(4 4)"/><path class="cls-4" d="M637.38,377.69l1.55.63a8,8,0,0,1-.23-3.16Z" transform="translate(4 4)"/><polygon class="cls-4" points="640.78 382.85 641.38 381.69 640.81 381.46 640.78 382.85"/><path class="cls-4" d="M629,373a2.64,2.64,0,0,1-1.9,2.07,4,4,0,0,0,2.64.74C629.78,374.75,629.93,372.79,629,373Z" transform="translate(4 4)"/><path class="cls-4" d="M632.26,373.61a1.43,1.43,0,0,1-.12.21C632.26,374.1,632.34,374.18,632.26,373.61Z" transform="translate(4 4)"/><path class="cls-4" d="M619.44,375.93l.2.6,0-.59Z" transform="translate(4 4)"/><path class="cls-4" d="M630,376.45c.7.59,1-.29,1.23-1.37a2.79,2.79,0,0,1-1.44.75C629.78,376.32,629.81,376.64,630,376.45Z" transform="translate(4 4)"/><path class="cls-4" d="M624.2,371.94a11.24,11.24,0,0,0,1.31,1.75C625.07,372.65,624.22,371.05,624.2,371.94Z" transform="translate(4 4)"/><path class="cls-4" d="M631.83,372.9a.8.8,0,0,1,.08-.16C631.62,372,631.68,372.39,631.83,372.9Z" transform="translate(4 4)"/><path class="cls-4" d="M631.83,372.9a10.42,10.42,0,0,0-.61,2.18,3.88,3.88,0,0,0,.92-1.26A7.56,7.56,0,0,1,631.83,372.9Z" transform="translate(4 4)"/><path class="cls-4" d="M619.65,398c-.26-3.16,1.05-6.26,2.85-3,1.13-2.51-1-12.77-2.86-18.42a6.52,6.52,0,0,1-1,4.67c.7,1.66,3.66,3.66,2.77,6.65-1.72,1.83-1.69-1-2.81-2.5,1.24,3.82-1.76,6-.66,11.71l1.42-2.23C619.53,395.73,619.09,397.23,619.65,398Z" transform="translate(4 4)"/><path class="cls-4" d="M622.43,376.55l.55-.46c-.74-.47-1.37-1.68-2.55-4a7.35,7.35,0,0,0-.83,3.89l3,.11Z" transform="translate(4 4)"/><path class="cls-4" d="M625.65,375.78c-.08,3.47-1.34,5.09,0,8.7,1.72-.43.9-3,1.78-4.6-2.72,1.17.59-2-1.66-3.71a3.19,3.19,0,0,1,1.42-1.08,8.22,8.22,0,0,1-1.63-1.4l.08.21h0v0c.17.42.24.68.07.45,0,0,0,.06,0,.08a11.48,11.48,0,0,1,0,1.3c-.9-.62-.23-.87,0-1.3,0-.18,0-.34,0-.53l0,0L623,376.09C623.63,376.5,624.37,376.32,625.65,375.78Z" transform="translate(4 4)"/><path class="cls-4" d="M641.64,391.42a3.15,3.15,0,0,1-.17-.78C641.33,391.07,641.3,391.37,641.64,391.42Z" transform="translate(4 4)"/><path class="cls-4" d="M640.27,389.47c.16-.5.18-1.88.88-1.6.69,1,.17,1.64.32,2.77.3-1,1.14-2.61-.29-4.15L641,387c-1.25-1.06-3.16-5.19-3-5.68A56.86,56.86,0,0,0,640.27,389.47Z" transform="translate(4 4)"/><path class="cls-4" d="M633,383.5l-2.16,1.94,1.52,2.83-.26-1.78C633.51,387.05,633,384.89,633,383.5Z" transform="translate(4 4)"/><polygon class="cls-4" points="622.98 378.26 622.87 374.6 622.1 379.87 622.98 378.26"/><polygon class="cls-4" points="619.97 379.04 619.71 375.89 619.13 377.88 619.97 379.04"/><path class="cls-4" d="M452.23,440.84l-.49,1A2.59,2.59,0,0,0,452.23,440.84Z" transform="translate(4 4)"/><path class="cls-4" d="M457.12,440.07l-.18-1.55C456.88,439.41,456.91,440.05,457.12,440.07Z" transform="translate(4 4)"/><path class="cls-4" d="M541.1,385.53c-1.44-2.77-3.27-7.12-2.6-3.62l.84,3.38C539.94,384.56,540.54,384.86,541.1,385.53Z" transform="translate(4 4)"/><path class="cls-4" d="M493.69,414.43l.47,1c0-1.21.06-2.35.09-3.38Z" transform="translate(4 4)"/><path class="cls-4" d="M495.53,428.69l-1.69-2A7.81,7.81,0,0,0,495.53,428.69Z" transform="translate(4 4)"/><path class="cls-4" d="M426.57,450l0,3.62C427.75,453.31,426.84,451.68,426.57,450Z" transform="translate(4 4)"/><path class="cls-4" d="M584.85,380.22a4.41,4.41,0,0,0-2.44-1.8C583.72,380.26,585,383.12,584.85,380.22Z" transform="translate(4 4)"/><path class="cls-4" d="M446.89,404.34a3.56,3.56,0,0,0-.17,2.19A2.93,2.93,0,0,0,446.89,404.34Z" transform="translate(4 4)"/><path class="cls-4" d="M579.91,378.76a8.13,8.13,0,0,0,.56.75c.56-.66,1.14-1.2,1.94-1.09C581.44,377.06,580.43,376.26,579.91,378.76Z" transform="translate(4 4)"/><path class="cls-4" d="M334.45,471.75a4.35,4.35,0,0,1-.35-.3C334.27,471.89,334.36,471.87,334.45,471.75Z" transform="translate(4 4)"/><path class="cls-4" d="M292.52,455.44c.13-.37.56-.68.94-1C293.12,454.38,292.8,454.64,292.52,455.44Z" transform="translate(4 4)"/><path class="cls-4" d="M603.49,375c.62-.31,0-.4,0,0Z" transform="translate(4 4)"/><path class="cls-4" d="M608.3,388.27a5.18,5.18,0,0,0-.06,1.71A6.36,6.36,0,0,1,608.3,388.27Z" transform="translate(4 4)"/><path class="cls-4" d="M576.41,401.06h-.06C576.63,401.7,576.58,401.57,576.41,401.06Z" transform="translate(4 4)"/><path class="cls-4" d="M604.65,376.47a3.57,3.57,0,0,0-.95-.92A4,4,0,0,0,604.65,376.47Z" transform="translate(4 4)"/><path class="cls-4" d="M604.32,374.86c.25.13.43.19.61.27C604.94,374.54,604.83,374.19,604.32,374.86Z" transform="translate(4 4)"/><path class="cls-4" d="M602.61,375.32a1.42,1.42,0,0,1,1.09.23.8.8,0,0,1-.21-.52C603.3,375.1,603,375.2,602.61,375.32Z" transform="translate(4 4)"/><path class="cls-4" d="M379.49,448.16a2.6,2.6,0,0,1-.2-.28C379,449.43,379.22,449.14,379.49,448.16Z" transform="translate(4 4)"/><path class="cls-4" d="M530.08,423.75s0-.13,0-.17l-.11-.11Z" transform="translate(4 4)"/><path class="cls-4" d="M528.22,426.67c.28-4.42.91-4,1.8-3.2l-2.36-9.76Z" transform="translate(4 4)"/><path class="cls-4" d="M440.84,444.2l2.21,2.73c-.86,5.42-2.6,4-.23,7.95-2-10.68,5.9-2.34,3.94-13l1.5,2c-.32-.05-.24.59-.55.55,3.06,4.68-.07-8,2.86-7a3.26,3.26,0,0,1,1.66,3.43l1.51-3c.63.09.85,2,.23,1.89l2.93-1.48,0,.32a46,46,0,0,1,.87-5.73c1.1,1.38-.17,1.21.29,2.49l1.22-2.91c1.24,2.63.35,5.58-.92,5.42,3.71,10.32.9-3,5.59,2.58L462.63,442c2.23,5.84,3.07,3.4,5.63,6.82-.82-1.89-5.52-8.79-4.18-11.81.68.7,1.45.95,2-1.4.75,3.8,1.55,2.67,2.73,2.22l.89,5c1.05-1.71.45-4.25.8-6.66,1.57.2,2.63,4,3.6,7.25,2.52.33-2.83-5.92-.2-7.42,2.34,1.55,3.33-.76,5.13-4.21,1.71,1.48.34,3.12,1.11,4.47l.47-4.24c.32,0,.45,1.29.52,1.92.74-1.75-.86-5,.52-6.71-.58-5.62,4.84,7.48,5.7.81.75,1.34.32,3.13.83,5.05,2-4.64,1.82-3.44,3.08-9.42l2.54,3c-2.11-3.53-1.1-8.32-.15-12.28-.83-1.74-1.56-3.26-2-4l2.09-3.16c.45.77.5,2.55.46,4.73.1-.45.19-.89.25-1.29,1.25,1.7,1.29,4.69,1.14,7.62-.49-.94-1-1.95-1.48-2.95a40.94,40.94,0,0,0,.6,9.59,2.8,2.8,0,0,1,.59-1.51,6.78,6.78,0,0,0,.18,2.12c.18.51.25-.65.43-2l1.58,5.51-.25-2.25,3.94,2.93c1.38-6.08,2-14.77,5.4-17.76-.23,4.29,1,6.77,1.75,11.66-1.93-5-2.55,2.71-4.68,2,1.11.36,1.3,2.73,1.18,3.58l2.67-5.31c.61,4,1.26,2.86,2.45,4.35-2.05-7.78,1.7-5.7,2.72-8.36.53,2.64.66,5.41-1.19,5.05,2.93,5.63.9-9.69,3.64-4.95-.41.14-.71-.23-.65,1.15.59-2.53,3.33-1.06,3.15,1.34l-.41.13c3,.46,8.57-1.38,7.89-8.16.17.86,1,8.15,1,9.54l1.37-23.42c.49,5.84,4.41,19.31,2.6,22.94.8.72,1.79,1.55,2.87-.72-.59-.75-2.48-8.16-1.94-8.79,2.75,6.15,1.75,3.25,4.74,8.39-.89-1.12-1.56-10.29-.43-10.17,0,1.37,1.51,8.91,1.26,9.92l1.3-9.32c-.43,1.71,1.07,7.55,2.06,10-.55-1.7,2.36-.21,2.94-1.2l-1.47-1.89c3.26.87,1.08-13,4.19-13-.09,1.89.83,11.44,2.54,12.32,0-4.65-.2-22.37,2-26.28l.91,2.53,1.64-3.28c-.29,7.05-1.74,22-2.83,27.92,1.45,1.89.78,3,2.45,2.53,1,2.35-.37,3.84-.85,4.06l4.2,1c-1-5.3,2.24-5.79,1.43-10.2l-3.49,6.16c-1-5.29.23-15.47,3.21-15,1,2,.86,9.55,1.18,11.32.1-1.88,2.16-3.9,2.61-2.64l-.77,3c1.85,1.77,1.53-7.44,4.15-2.64.7.25,2.93,6.57,2.59,3.4-1.93-5.92-4.86-24.67-4.8-29.34.29.37,4.3,5.32,5.47,8.22,1.75,4.62,0,11.58,1.49,15.54a13.13,13.13,0,0,1,.34-4c.86,1.15.36,4.55,1.75,3.68-.51-5.42,3.1,0,.06-4.66,1.24-1.75,1.71.9,3.39.42-1-3.41-.11-12.08,1.15-13.84a17.81,17.81,0,0,0,.95,3.93c3.07.07,5,2.29,7.81,2,.44,1.27,2,2.68,1.73,5.08.28-1,.4-2.89,1.25-3.13,2.29,4.45-1.83,1,.19,6.43-.31-3.15,1.65-4.63,2.62-6.75-1-4.8-3-.56-3.93,1.56-.9-6.69.32-14,2.86-17.46,2.13-2,1.58,4.19,1.86,3.19,4.54.6,2.24-12.17,6.52-7.82,2,4.08,1.13,8.48,1.85,11.52-1.7,1.86-3.27-2.33-4.53-2l1.84,1.81c-.42,1.5-1.55,2.74-2.4,1.6,1.7,3.67,7.49-.25,11.31,2.9.42-1.5,1.27-3.11.57-4.77l-1,.73c-1.41-3.32,1.43-5-.12-6.45,1.14-2.59,2.3-6.59,4.56-4.89l1,4.82c-.21-1.42-1.67-2.74-2.06-1.19.58-2.26,3.9,6.22,4.06-.27l-1.83-3.2c1.15-2.62,2.33-8,4.32-6.69-1.39-4.71-.35.6-2.3-4.87,2,6.86-4.66.26-2,7.4-2.1-6.37-2.61-2.49-5-7.86.25,1.61,1,3-.63,2.4a11.46,11.46,0,0,1-.16,1.45.6.6,0,0,1-.12-.11c0,.06.07.13.11.18,0,.25,0,.31,0,.06a7.9,7.9,0,0,1,1.07,2.35c-.3,3.78-2.72,4-3.3,6-1-.66.15-1.9-.55-3.55l-.86,3c-.56-3.54-3.13-5.63-1.27-8l-1.93.08c-1.37-1.85-3-2.45-3.78-.82-1-.66-1.77,4.24-1.34,1.34l-2.71,2.6-.14-.88c-3-.07-5.29,6.69-9.52.69-.87,1-1.74,2.28-3.54,1.5l-.74-3c-1.13,1.25-4.26-2.55-4.36.73-2.53-8.09-6.45-.94-8.9-2.1l.49,4c-1.57,0-2.89,1.34-4.57,3.24l.63,3.53c-1.22,3.15-4.59-1.9-7.14-1.15,0-1.38.69-1.13,1.27-.37-4.3-7.56-5.68,6.8-9.38,1.38-.51,1.4-1.08,1-1.71.22a.35.35,0,0,0,.15-.22.61.61,0,0,0-.3,0c-.4-.56-.83-1.22-1.27-1.73a8.44,8.44,0,0,0,1.12,1.77,4,4,0,0,0-2,1.74l-.93-3.75c-.06.06-.12.06-.17.13-1-1.27-.36,1.91.5,4.71a9.46,9.46,0,0,0-.7,2.46c-1.6-6-1.79,2.4-3.69-4,0,3.28-3.66,3-3,9.83-.17-.87-.47-1.25,0-1.38-1-.62-2-1.25-2.53.78L528.53,393l-.91,6.81c-1.66-2.76-2.43-4.4-1.85-8.3-1.92,6.17-2,2.52-3.46,8.59l-.39-3.14c-.85.26-1.53,4.68-2.48,2.19-2.92-5.62-9.69.76-15.6-3.91,2.55,9-3-3.7-2,3.45-.66-2.12-1.57-3.23-1.09-5.25-2.17,2.57-4.42-2.78-5.11,3.53-.68-2.13,0-3.27-.51-4.52-.12.5-.47,2-1,.78s.05-1.89.28-2.9c-2.53.82-1.6,7.56-.67,13.87-1.84-2.74-2.42-2.21-2.62,2.08-.82-2-2-4-.5-5-1-.15-6.06-2-5.24,3-.51-1.23-1.32-.14-1.45.48-2.08.07-2.34-.35-4.24.5l.71.72c.33,6.21-1.4,1.66-2.86,2.68l-.07-.62c-4.49-3.7-1.19,2.38-5.75-1.94l.91,3.74c1.2,8.17-4.11-4.2-5.61-.68l1.16,2c-.6,3-5.31-10.4-6.66-11.19-.39-.66.17-1.21.43-1.79-3.95-4.2.56,5-1.47,6.59-.93-2.58-.78-6.88-2.39-7.07-1.18-2-2.71,9.49-5.78,4.79.87,2,1.72,3.92,1,5.67-1.45,1-5.87-6.9-6-.14a5.1,5.1,0,0,1-.61-1.55c-.89,1.92-3.41,3.58-3.43,7.23-3.78-12.75-6.27,7.86-8.72-4.12L431,411.05l-.16-1.24c-2.56-.28-2.8,2.77-3,5.82-.72-.69-.56-1.9-.64-2.53-4-1.67-4.26-1.08-5.91,5.51l-1.14-3.82c-.3,2.43-6.38-5-8.83.27a5.28,5.28,0,0,1,0-1.82c-2.84,5.4-11.64-8.67-9.9,5.74l-1.76,4c3.53.36.9,6.22,2.77,8.26-1.1,1.11-4.29-3.51-2.87-4.59l.41.65c-1.08-7.47-4.67-1.69-5.72-6.71-6.37,1.88-13.61-.72-19.76.38l2.06,5.53-2.2.18c-.87-1.19-1.81-4.27-.24-4.4-1.57-3-1.89,3.32-1.63,4.56-3.53-1.59-.45-6.91-1.39-6.83l-1.14.72.44.6c-.44,2.57.08,5-1.82,5.22-1.43-.85-1.46-3.36-2-3.46-.09-.41-.3-.56-.74,0l-2.82.18,2.2,4.21c-.63,2.5-2.58.42,0,5.17-1.9-3.68-4.6-3.74-7-3.13s-4.6,1.92-5.5.87c-.77,3.73-2.42,4.14-4.58,4.35.79.78,2.56,5.65.65,5.57-2.46-10.46-4.54-3.46-8.33-10.35,2.85,4.42-4.7,2.89-.38,9.11-1.74-.34-1.37-3.78-3.3-5.79-1.11,2.54-3.26,2.62-5.67,2.42s-5.1-.59-7,.94c.47,1.33,2,3,1.87,5.34q-2.46-2.82-5-5.53c-.62,1,2.43,7.8-1.09,4,.7,1,1.74,2.48,1.36,3.14-5.6-1.3-9.37,2.17-13.23,5a17.83,17.83,0,0,1-6.39,3.44,12.59,12.59,0,0,1-4.09.42,24.1,24.1,0,0,1-5.2-1c2.68,1.43,2.09,2.19,1.33,2.87.91.14,2,2.84,3.21,4.31q-3.14-1-6.42-1.87c1.3,2.31.52,3.09-.26,3.79s-1.55,1.38-.09,3.45l.4-1.5c1.23,2.85,3.82,5,6.57,7.33a46.39,46.39,0,0,1,8,7.82c-1.5-3.18.93-1.81,3.11-.74s4.12,1.8,2.45-2.9c1.35,1,1,2.3,2.24,3.6-1.33-3.05-1-4.06,1-3.61l.31.77a5.67,5.67,0,0,1,4.79-1.54c.89.05,1.81.16,2.84.27a22.41,22.41,0,0,0,3.37.18l-2.06-3.19c1.1,0,1.82.95,2.65,1.58-1.64-5.64-2.54,1-4.6-5.1,2.4,3.1,3.88,2.31,5.49,1.75s3.17-1.05,5.38,2.78c1.38-.55-2.22-3.82-.81-4.38l1.33,2-.89-2.95c1.13.06,2.75,2.59,3.57,4.42-.31-.13-.38.78-.54,1,1.13,1,1.82.47,2.35-.28s.91-1.64,1.28-1.3l-1.89-.82c1.5-1.76,3.66-2.47,5.79-3.32a10.73,10.73,0,0,0,3-1.74,7.81,7.81,0,0,0,2.31-3.25l-.86-1.59c2-4.16,3,1.05,5.88-1.44v.44c.15-1.9.78-3.06,1.77-3.14-.25,2.26,2.77,3.43,2.31,6,2.32-4.37.84-3.14,1.24-10.18l1.33,2.71c0-2.81-.28-4.18,1.26-5.4-.75,2.84,2.29,4.06,1.61,7.74,2.65,2.64,3.52.69,4.3-.81s1.43-2.59,3.44,1.79c-.38-8.39-4.29-3.6-3.8-5.54-1.47-2.39-.16-6.3,1.21-5.81,1.23-.12,4.59,9.67,7.47,8.8-.3,0-.17.64-.47.68,1.6,1.76,1.47-3.3,3.64-.32-.41-5,1.83-.15.57-6.35l-2.39,2.08c1.15-2,.88-9.54,4.28-6.66a13.24,13.24,0,0,1-.58,4.14c1.19,1.64,1.15-1.55,2.38.14,1.24,6.21-3,2.13-3.52,7.23,1.42,2.41,2-5.22,2.82,1.66-.84-8.78,3.17.38,3.66-6.58l.74,3.72c.19-.65.44-2.55,1.05-2.6l.06,5c.68-4.47,4,2.85,5,.25-3.26.88-1.78-4.28-3.8-6.65,2.91-5.9,4.6,9.12,8.72,6.29-.5.67-2.82-1.68-2.26-3.62a8.85,8.85,0,0,1,3.49,3.54c2.83-1.48-1.34-3.71-.58-6.28,2.06,4.27,1-2.18,2-3.93l.87,3.76c4,1.64-.88-8.05,2.89-5.83l-.13,5.51,1.31-1.71.64,4.36c1-3.57,1.77-2.87,3.76-2-1-2.56-1.31-6.88.19-7.34,1.54,2,.22,3.71,2.26,2.69,0,2.46.16,5.54-1.55,2.28.18,1.25,0,2.47.22,3.71,1.69,2.32,2.93-.05,3.71-.26a1.45,1.45,0,0,1-1-.68l2-5.93a5.3,5.3,0,0,1,.53,3.74c.54-.56.59-2.39,1.46-2.92.43,3.11,1.18,6.26.19,8l2.22-4.06c.49,1.28,2.33,3.32,2.19,4.53,2,1.45,2.76-6.81,5.47-4.9a2.91,2.91,0,0,1,.46-1.78c2.21.25,4.84,3.63,6.39-1.1l2.54,5.2c1.65-1.65-3.34-6.53-.59-9.28,1.89-2.25,1.83,4.51,2.94,5.87.54-3,1.33-9.05,4.34-5C442.1,444.36,441.39,443.66,440.84,444.2ZM464,437c-.3.88-.74,3.51-1.51,1.34C462.18,433.89,463,435.89,464,437Zm34.5-15.88c-.13,1.31-.77.79-1.62-.54C497.28,420.18,497.8,420.23,498.52,421.11ZM596.77,379a1,1,0,0,0,0,.19C595.5,377.86,596,378.4,596.77,379Zm2.4,1.38a2.88,2.88,0,0,0-.09-1.62c0,1-.51,1.12-1.11.92C598.26,380.68,598.62,381.34,599.17,380.4ZM366.61,424.56l.67.88C366.59,426.76,366.62,425.71,366.61,424.56Z" transform="translate(4 4)"/><path class="cls-4" d="M495.33,427a13.37,13.37,0,0,1-.57-2A2.69,2.69,0,0,0,495.33,427Z" transform="translate(4 4)"/><path class="cls-4" d="M426.58,449.3s-.05,0-.08,0c0,.23,0,.47.07.69Z" transform="translate(4 4)"/><path class="cls-4" d="M569.91,417.34a5,5,0,0,1-1.14-1.86C568.88,416.42,569.2,417.18,569.91,417.34Z" transform="translate(4 4)"/><path class="cls-4" d="M610,372.48l-1.28,1.17c.65-.27,1,.54,1.41,1.11C610,373.86,609.56,372.6,610,372.48Z" transform="translate(4 4)"/><path class="cls-4" d="M624.91,394.79c.15-.5.42-.1.57-.6l-.26-1.78A1.37,1.37,0,0,0,624.91,394.79Z" transform="translate(4 4)"/><path class="cls-4" d="M612.81,385.06c.5,3.21,1.24,2,2.15,1.3-.06,0-.11.05-.17,0C614.54,381.84,613.67,383.45,612.81,385.06Z" transform="translate(4 4)"/><path class="cls-4" d="M615.17,386.22a1,1,0,0,1,.9-.19C616,384.21,615.66,385.7,615.17,386.22Z" transform="translate(4 4)"/><path class="cls-4" d="M601.68,377.93c.57.77-.21-4.16.21-2.88C601.9,370.89,599.4,380.39,601.68,377.93Z" transform="translate(4 4)"/><polygon class="cls-4" points="618.87 399.59 618.04 395.65 617.88 398.92 618.87 399.59"/><path class="cls-4" d="M606.81,393.59l1.7.92a1.84,1.84,0,0,1,.25-1.4C607.78,393.08,606.63,392.42,606.81,393.59Z" transform="translate(4 4)"/><path class="cls-4" d="M608.76,393.11a1,1,0,0,0,1.17-.82A2,2,0,0,0,608.76,393.11Z" transform="translate(4 4)"/><polygon class="cls-4" points="616.88 401.04 616.32 400.26 615.19 400.11 616.88 401.04"/><path class="cls-4" d="M590,395l-1.55,1.35c0,1.38.58,2.16,1.14,1.54C589.83,396.84,590.4,396.23,590,395Z" transform="translate(4 4)"/><path class="cls-4" d="M596.5,405.17a10.34,10.34,0,0,1-1.13-2.92l.58,4.93Z" transform="translate(4 4)"/><path class="cls-4" d="M591.72,407c0,1.39-1.94,4.24.16,3.66C591.87,409.24,593.42,407.88,591.72,407Z" transform="translate(4 4)"/><polygon class="cls-4" points="569.38 408.21 569.8 408.08 568.58 400.03 569.38 408.21"/><path class="cls-4" d="M545.89,426.82c2.28,1.62-.29-5,1.87-2.92.17-2-1.77-1.73-1.54-3.45C545.32,422.65,544.52,421.62,545.89,426.82Z" transform="translate(4 4)"/><path class="cls-4" d="M546.22,420.45a10.45,10.45,0,0,0,.42-1.32A4.24,4.24,0,0,0,546.22,420.45Z" transform="translate(4 4)"/><polygon class="cls-4" points="289.45 459.34 287.17 459 289.68 460.49 289.45 459.34"/><path class="cls-4" d="M287,461.84l-3.63-3.74,2.35,4.15C285.87,461.86,286.09,461.1,287,461.84Z" transform="translate(4 4)"/><path class="cls-4" d="M469.54,446.57l-.14-1.25c-.46-1.29-.77-1.33-1.41-1.42Z" transform="translate(4 4)"/><polygon class="cls-4" points="455.65 450.15 455.96 450.2 454.48 445.71 455.65 450.15"/><path class="cls-4" d="M438.5,455c.63.07,1.1-1.11,1.73-1C439.13,455,437.14,449.28,438.5,455Z" transform="translate(4 4)"/><path class="cls-2" d="M561.72,507.72" transform="translate(4 4)"/></g></svg>